SplineFontDB: 3.0
FontName: Gothica-Book
FullName: Gothica Book
FamilyName: Gothica
Weight: Book
Copyright: Copyright (c) 2020-2024 by Wojciech Kalinowski "wmk69" with Reserved Font Name "Gothica-Book".\nThis Font Software is licensed under the SIL Open Font License, Version 1.1.
Version: 2.1.0; 2021-05-14
ItalicAngle: 0
UnderlinePosition: -80
UnderlineWidth: 200
Ascent: 1638
Descent: 410
InvalidEm: 0
LayerCount: 2
Layer: 0 1 "Warstwa t+AUIA-a" 1
Layer: 1 1 "Plan pierwszy" 0
XUID: [1021 783 23647091 8360855]
StyleMap: 0x0040
FSType: 0
OS2Version: 3
OS2_WeightWidthSlopeOnly: 0
OS2_UseTypoMetrics: 1
CreationTime: 1260698820
ModificationTime: 1621006777
PfmFamily: 33
TTFWeight: 400
TTFWidth: 5
LineGap: 250
VLineGap: 0
Panose: 2 12 5 4 5 5 3 6 6 4
OS2TypoAscent: 2000
OS2TypoAOffset: 0
OS2TypoDescent: -500
OS2TypoDOffset: 0
OS2TypoLinegap: 250
OS2WinAscent: 2000
OS2WinAOffset: 0
OS2WinDescent: 500
OS2WinDOffset: 0
HheadAscent: 2000
HheadAOffset: 0
HheadDescent: -500
HheadDOffset: 0
OS2SubXSize: 1434
OS2SubYSize: 1331
OS2SubXOff: 0
OS2SubYOff: 287
OS2SupXSize: 1434
OS2SupYSize: 1331
OS2SupXOff: 0
OS2SupYOff: 977
OS2StrikeYSize: 102
OS2StrikeYPos: 512
OS2CapHeight: 1550
OS2XHeight: 1140
OS2Vendor: '    '
OS2CodePages: 20000093.00000000
OS2UnicodeRanges: 8000002f.4000204b.00000000.00000000
Lookup: 258 0 0 "'kern' Horizontal Kerning lookup 0" { "'kern' Horizontal Kerning lookup 0-1 subtable" [307,0,4] } ['kern' ('DFLT' <'dflt' > 'grek' <'dflt' > 'latn' <'dflt' > ) ]
MarkAttachClasses: 1
DEI: 91125
KernClass2: 65 52 "'kern' Horizontal Kerning lookup 0-1 subtable"
 185 H I U Igrave Iacute Icircumflex Idieresis Ugrave Uacute Ucircumflex Udieresis Hcircumflex Hbar Itilde Imacron Ibreve Iogonek Idotaccent Utilde Umacron Ubreve Uring Uhungarumlaut Uogonek
 84 A Agrave Aacute Acircumflex Atilde Adieresis Aring Amacron Abreve Aogonek Aringacute
 9 B uni1E02
 47 C Ccedilla Cacute Ccircumflex Cdotaccent Ccaron
 27 D Eth Dcaron Dcroat uni1E0A

StartChar: .notdef
Encoding: 65536 -1 0
Width: 954
Flags: W
HStem: 0 68<240 714> 1442 68<240 714>
VStem: 130 110<68 1442> 714 110<68 1442>
LayerCount: 2
Fore
SplineSet
130 0 m 1,0,-1
 130 1510 l 1,1,-1
 824 1510 l 1,2,-1
 824 0 l 1,3,-1
 130 0 l 1,0,-1
240 68 m 1,4,-1
 714 68 l 1,5,-1
 714 1442 l 1,6,-1
 240 1442 l 1,7,-1
 240 68 l 1,4,-1
EndSplineSet
Validated: 1
EndChar

StartChar: exclam
Encoding: 33 33 4
Width: 560
GlyphClass: 2
Flags: W
HStem: -20 252<220.881 339.536> 1530 20G<356.114 390>
VStem: 156 248<42.4788 169.521> 171 219<1154.74 1375> 210 138<392 685.673>
LayerCount: 2
Fore
SplineSet
268 -20 m 0,0,1
 255 -20 255 -20 239 -14 c 0,2,3
 207 -2 207 -2 185 27 c 0,4,5
 156 65 156 65 156 104 c 0,6,7
 156 133 156 133 179 152 c 2,8,-1
 257 218 l 2,9,10
 274 232 274 232 292 232 c 0,11,12
 305 232 305 232 321 226 c 0,13,14
 354 213 354 213 375 185 c 0,15,16
 404 147 404 147 404 108 c 0,17,18
 404 79 404 79 381 60 c 2,19,-1
 303 -6 l 2,20,21
 286 -20 286 -20 268 -20 c 0,0,1
390 1550 m 1,22,-1
 348 392 l 1,23,-1
 220 285 l 1,24,-1
 210 285 l 1,25,-1
 171 1375 l 1,26,-1
 380 1550 l 1,27,-1
 390 1550 l 1,22,-1
EndSplineSet
Validated: 1
EndChar

StartChar: quotedbl
Encoding: 34 34 5
Width: 430
GlyphClass: 2
Flags: W
HStem: 1045 505
VStem: 30 136<1151 1444> 264 136<1151 1444>
LayerCount: 2
Fore
SplineSet
390 1550 m 1,0,-1
 400 1550 l 1,1,-1
 400 1151 l 1,2,-1
 274 1045 l 1,3,-1
 264 1045 l 1,4,-1
 264 1444 l 1,5,-1
 390 1550 l 1,0,-1
156 1550 m 1,6,-1
 166 1550 l 1,7,-1
 166 1151 l 1,8,-1
 40 1045 l 1,9,-1
 30 1045 l 1,10,-1
 30 1444 l 1,11,-1
 156 1550 l 1,6,-1
EndSplineSet
Validated: 1
EndChar

StartChar: numbersign
Encoding: 35 35 6
Width: 1328
GlyphClass: 2
Flags: W
HStem: 558 121<223 466 587 741 862 1105> 833 121<223 466 587 741 862 1105>
VStem: 466 121<315 558 679 833 954 1197> 741 121<315 558 679 833 954 1197>
LayerCount: 2
Fore
SplineSet
130 558 m 1,0,-1
 130 568 l 1,1,-1
 223 679 l 1,2,-1
 466 679 l 1,3,-1
 466 833 l 1,4,-1
 130 833 l 1,5,-1
 130 843 l 1,6,-1
 223 954 l 1,7,-1
 466 954 l 1,8,-1
 466 1197 l 1,9,-1
 577 1290 l 1,10,-1
 587 1290 l 1,11,-1
 587 954 l 1,12,-1
 741 954 l 1,13,-1
 741 1197 l 1,14,-1
 852 1290 l 1,15,-1
 862 1290 l 1,16,-1
 862 954 l 1,17,-1
 1198 954 l 1,18,-1
 1198 944 l 1,19,-1
 1105 833 l 1,20,-1
 862 833 l 1,21,-1
 862 679 l 1,22,-1
 1198 679 l 1,23,-1
 1198 669 l 1,24,-1
 1105 558 l 1,25,-1
 862 558 l 1,26,-1
 862 315 l 1,27,-1
 751 222 l 1,28,-1
 741 222 l 1,29,-1
 741 558 l 1,30,-1
 587 558 l 1,31,-1
 587 315 l 1,32,-1
 476 222 l 1,33,-1
 466 222 l 1,34,-1
 466 558 l 1,35,-1
 130 558 l 1,0,-1
741 833 m 1,36,-1
 587 833 l 1,37,-1
 587 679 l 1,38,-1
 741 679 l 1,39,-1
 741 833 l 1,36,-1
EndSplineSet
Validated: 1
EndChar

StartChar: dollar
Encoding: 36 36 7
Width: 1253
GlyphClass: 2
Flags: W
HStem: -20 175<457.688 573> 746 185<457.547 573> 1109 21G<827 860.916>
VStem: 203 184<997.254 1214.1> 573 100<-64 -20 158 742 931 1354 1530 1574> 933 190<370.783 633.178>
LayerCount: 2
Fore
SplineSet
573 -20 m 1,0,1
 545 -19 545 -19 513 -13 c 0,2,3
 346 18 346 18 234 151 c 0,4,5
 159 241 159 241 130 355 c 1,6,-1
 303 500 l 1,7,-1
 313 500 l 1,8,9
 313 348 313 348 399 251 c 0,10,11
 472 169 472 169 573 155 c 1,12,-1
 573 746 l 1,13,14
 405 758 405 758 312 841 c 0,15,16
 203 938 203 938 203 1085 c 0,17,18
 203 1139 203 1139 221 1176 c 0,19,20
 237 1209 237 1209 277 1242 c 2,21,-1
 573 1491 l 1,22,-1
 573 1574 l 1,23,-1
 663 1650 l 1,24,-1
 673 1650 l 1,25,-1
 673 1530 l 1,26,27
 703 1529 703 1529 725 1523 c 0,28,29
 842 1495 842 1495 915 1418 c 0,30,31
 981 1348 981 1348 1008 1252 c 1,32,-1
 837 1109 l 1,33,-1
 827 1109 l 1,34,35
 827 1226 827 1226 782 1286 c 0,36,37
 741 1340 741 1340 673 1354 c 1,38,-1
 673 924 l 1,39,40
 893 923 893 923 1010 797 c 0,41,42
 1123 675 1123 675 1123 500 c 0,43,44
 1123 446 1123 446 1105 409 c 0,45,46
 1090 377 1090 377 1049 343 c 2,47,-1
 673 26 l 1,48,-1
 673 -64 l 1,49,-1
 583 -140 l 1,50,-1
 573 -140 l 1,51,-1
 573 -20 l 1,0,1
573 931 m 1,52,-1
 573 1354 l 1,53,54
 511 1341 511 1341 460 1294 c 0,55,56
 387 1226 387 1226 387 1121 c 0,57,58
 387 961 387 961 573 931 c 1,52,-1
673 742 m 1,59,-1
 673 158 l 1,60,61
 755 177 755 177 835 251 c 0,62,63
 933 341 933 341 933 469 c 0,64,65
 933 595 933 595 860 667 c 0,66,67
 793 733 793 733 673 742 c 1,59,-1
EndSplineSet
Validated: 1
EndChar

StartChar: percent
Encoding: 37 37 8
Width: 1542
GlyphClass: 2
Flags: W
HStem: -40 21G<167.137 210.79> -20 159<970.024 1136.73> 494 160<1034.62 1200.31> 856 159<341.024 507.73> 1370 160<405.622 571.649> 1530 20G<1331.2 1375.03>
VStem: 130 158<1067.95 1292.59> 626 157<1092.8 1315.27> 759 158<191.945 416.59> 1255 157<216.679 439.271>
DStem2: 98 62 194 -40 0.642963 0.765897<0 1927.73>
LayerCount: 2
Fore
SplineSet
1085 494 m 128,-1,1
 1010 494 1010 494 963.5 440.5 c 128,-1,2
 917 387 917 387 917 314.5 c 128,-1,3
 917 242 917 242 962 190.5 c 128,-1,4
 1007 139 1007 139 1085 139 c 128,-1,5
 1163 139 1163 139 1209 192.5 c 128,-1,6
 1255 246 1255 246 1255 319 c 128,-1,7
 1255 392 1255 392 1207.5 443 c 128,-1,0
 1160 494 1160 494 1085 494 c 128,-1,1
1062 -20 m 0,8,9
 1048 -20 1048 -20 1016 -14 c 0,10,11
 909 6 909 6 836 94 c 0,12,13
 759 185 759 185 759 317 c 0,14,15
 759 355 759 355 771 376 c 0,16,17
 784 401 784 401 807 420 c 2,18,-1
 1058 630 l 2,19,20
 1087 654 1087 654 1108 654 c 0,21,22
 1122 654 1122 654 1155 648 c 0,23,24
 1259 629 1259 629 1335 540 c 0,25,26
 1412 449 1412 449 1412 317 c 0,27,28
 1412 286 1412 286 1400 259 c 0,29,30
 1389 234 1389 234 1364 214 c 2,31,-1
 1113 4 l 2,32,33
 1084 -20 1084 -20 1062 -20 c 0,8,9
456 1370 m 128,-1,35
 381 1370 381 1370 334.5 1316.5 c 128,-1,36
 288 1263 288 1263 288 1190.5 c 128,-1,37
 288 1118 288 1118 333 1066.5 c 128,-1,38
 378 1015 378 1015 456 1015 c 128,-1,39
 534 1015 534 1015 580 1068.5 c 128,-1,40
 626 1122 626 1122 626 1195 c 128,-1,41
 626 1268 626 1268 578.5 1319 c 128,-1,34
 531 1370 531 1370 456 1370 c 128,-1,35
479 1530 m 0,42,43
 493 1530 493 1530 526 1524 c 0,44,45
 632 1505 632 1505 706 1416 c 0,46,47
 783 1325 783 1325 783 1193 c 0,48,49
 783 1162 783 1162 771 1135 c 0,50,51
 761 1112 761 1112 735 1090 c 2,52,-1
 484 880 l 2,53,54
 455 856 455 856 433 856 c 0,55,56
 419 856 419 856 387 862 c 0,57,58
 280 882 280 882 207 970 c 0,59,60
 130 1061 130 1061 130 1193 c 0,61,62
 130 1231 130 1231 142 1252 c 0,63,64
 155 1277 155 1277 178 1296 c 2,65,-1
 429 1506 l 2,66,67
 458 1530 458 1530 479 1530 c 0,42,43
194 -40 m 1,68,-1
 184 -40 l 1,69,-1
 98 62 l 1,70,-1
 1348 1550 l 1,71,-1
 1358 1550 l 1,72,-1
 1444 1449 l 1,73,-1
 194 -40 l 1,68,-1
EndSplineSet
Validated: 1
EndChar

StartChar: ampersand
Encoding: 38 38 9
Width: 1402
GlyphClass: 2
Flags: W
HStem: -40 21G<1229.22 1272.86> -20 180<463.751 667.825> 1361 169<561.123 744.287>
VStem: 120 205<302.538 558.072> 210 188<1014.44 1226.59> 1058 200<487.686 797>
DStem2: 615 927 578 756 0.6434 -0.76553<83.5844 625.979 724.625 1129.94> 922 346 658 16 0.764157 0.64503<-333.636 -0.13656>
LayerCount: 2
Fore
SplineSet
1256 -40 m 1,0,-1
 1246 -40 l 1,1,-1
 975 283 l 1,2,-1
 658 16 l 2,3,4
 615 -20 615 -20 581 -20 c 0,5,6
 548 -20 548 -20 510 -13 c 0,7,8
 345 18 345 18 234 149 c 0,9,10
 120 285 120 285 120 459 c 0,11,12
 120 501 120 501 142 532 c 0,13,14
 158 555 158 555 194 585 c 2,15,-1
 439 790 l 1,16,17
 371 820 371 820 322 871 c 0,18,19
 210 987 210 987 210 1134 c 0,20,21
 210 1172 210 1172 233 1202 c 0,22,23
 252 1227 252 1227 284 1254 c 2,24,-1
 570 1494 l 2,25,26
 613 1530 613 1530 647 1530 c 0,27,28
 689 1530 689 1530 718 1523 c 0,29,30
 835 1495 835 1495 908 1418 c 0,31,32
 972 1350 972 1350 999 1275 c 1,33,-1
 842 1142 l 1,34,-1
 832 1142 l 1,35,36
 832 1235 832 1235 766.5 1298 c 128,-1,37
 701 1361 701 1361 614 1361 c 0,38,39
 520 1361 520 1361 460 1298 c 0,40,41
 398 1233 398 1233 398 1142 c 0,42,43
 398 1054 398 1054 462 991 c 0,44,45
 529 927 529 927 615 927 c 1,46,-1
 1018 448 l 1,47,48
 1058 518 1058 518 1058 617 c 2,49,-1
 1058 797 l 1,50,-1
 1248 957 l 1,51,-1
 1258 957 l 1,52,-1
 1258 617 l 2,53,54
 1258 570 1258 570 1240 526 c 0,55,56
 1228 497 1228 497 1184 460 c 2,57,-1
 1081 373 l 1,58,-1
 1342 62 l 1,59,-1
 1256 -40 l 1,0,-1
578 756 m 1,60,61
 475 743 475 743 403 659 c 0,62,63
 325 569 325 569 325 459 c 0,64,65
 325 345 325 345 401 259 c 0,66,67
 489 160 489 160 615 160 c 0,68,69
 703 160 703 160 832 270 c 2,70,-1
 922 346 l 1,71,-1
 578 756 l 1,60,61
EndSplineSet
Validated: 1
EndChar

StartChar: quotesingle
Encoding: 39 39 10
Width: 196
GlyphClass: 2
Flags: W
HStem: 1045 505
VStem: 30 136<1151 1444>
LayerCount: 2
Fore
SplineSet
156 1550 m 1,0,-1
 166 1550 l 1,1,-1
 166 1151 l 1,2,-1
 40 1045 l 1,3,-1
 30 1045 l 1,4,-1
 30 1444 l 1,5,-1
 156 1550 l 1,0,-1
EndSplineSet
Validated: 1
EndChar

StartChar: parenleft
Encoding: 40 40 11
Width: 795
GlyphClass: 2
Flags: W
HStem: -240 180<529.155 685>
VStem: 180 200<101.216 1356.47>
LayerCount: 2
Fore
SplineSet
651 -240 m 0,0,1
 618 -240 618 -240 580 -233 c 0,2,3
 413 -202 413 -202 301 -69 c 0,4,5
 180 75 180 75 180 280 c 2,6,-1
 180 1230 l 2,7,8
 180 1284 180 1284 198 1321 c 0,9,10
 213 1352 213 1352 254 1387 c 2,11,-1
 642 1714 l 2,12,13
 685 1750 685 1750 719 1750 c 0,14,15
 752 1750 752 1750 790 1743 c 1,16,-1
 685 1570 l 1,17,18
 553 1570 553 1570 468 1471 c 0,19,20
 380 1370 380 1370 380 1230 c 2,21,-1
 380 280 l 2,22,23
 380 136 380 136 466 39 c 0,24,25
 554 -60 554 -60 685 -60 c 1,26,-1
 728 -204 l 17,27,28
 685 -240 685 -240 651 -240 c 0,0,1
EndSplineSet
Validated: 1
EndChar

StartChar: parenright
Encoding: 41 41 12
Width: 795
GlyphClass: 2
Flags: W
HStem: 1570 180<110 265.845>
VStem: 415 200<153.525 1408.78>
LayerCount: 2
Fore
SplineSet
76 -240 m 0,0,1
 43 -240 43 -240 5 -233 c 1,2,-1
 110 -60 l 1,3,4
 242 -60 242 -60 327 39 c 0,5,6
 415 140 415 140 415 280 c 2,7,-1
 415 1230 l 2,8,9
 415 1374 415 1374 329 1471 c 0,10,11
 241 1570 241 1570 110 1570 c 1,12,-1
 67 1714 l 17,13,14
 110 1750 110 1750 144 1750 c 0,15,16
 177 1750 177 1750 215 1743 c 0,17,18
 382 1712 382 1712 494 1579 c 0,19,20
 615 1435 615 1435 615 1230 c 2,21,-1
 615 280 l 2,22,23
 615 226 615 226 597 189 c 0,24,25
 582 158 582 158 541 123 c 2,26,-1
 153 -204 l 2,27,28
 110 -240 110 -240 76 -240 c 0,0,1
EndSplineSet
Validated: 1
EndChar

StartChar: asterisk
Encoding: 42 42 13
Width: 1046
GlyphClass: 2
Flags: W
HStem: 1530 20G<549.344 583>
VStem: 463 120<804 1027 1234 1457>
DStem2: 130 973 270 915 0.866007 0.500032<92.2391 315.382 522.809 745.952> 190 1392 210 1242 0.866007 -0.500032<92.3249 314.968 523.31 745.952>
LayerCount: 2
Fore
SplineSet
573 1550 m 1,0,-1
 583 1550 l 1,1,-1
 583 1234 l 1,2,-1
 776 1346 l 1,3,-1
 911 1297 l 1,4,-1
 916 1288 l 1,5,-1
 643 1130 l 1,6,-1
 836 1019 l 1,7,-1
 861 877 l 1,8,-1
 856 869 l 1,9,-1
 583 1027 l 1,10,-1
 583 804 l 1,11,-1
 473 711 l 1,12,-1
 463 711 l 1,13,-1
 463 1027 l 1,14,-1
 270 915 l 1,15,-1
 135 964 l 1,16,-1
 130 973 l 1,17,-1
 403 1131 l 1,18,-1
 210 1242 l 1,19,-1
 185 1384 l 1,20,-1
 190 1392 l 1,21,-1
 463 1234 l 1,22,-1
 463 1457 l 1,23,-1
 573 1550 l 1,0,-1
EndSplineSet
Validated: 1
EndChar

StartChar: plus
Encoding: 43 43 14
Width: 1174
GlyphClass: 2
Flags: W
HStem: 679 151<249 512 662 926>
VStem: 512 150<416 679 830 1094>
LayerCount: 2
Fore
SplineSet
652 1212 m 1,0,-1
 662 1212 l 1,1,-1
 662 830 l 1,2,-1
 1044 830 l 1,3,-1
 1044 820 l 1,4,-1
 926 679 l 1,5,-1
 662 679 l 1,6,-1
 662 416 l 1,7,-1
 522 298 l 1,8,-1
 512 298 l 1,9,-1
 512 679 l 1,10,-1
 130 679 l 1,11,-1
 130 689 l 1,12,-1
 249 830 l 1,13,-1
 512 830 l 1,14,-1
 512 1094 l 1,15,-1
 652 1212 l 1,0,-1
EndSplineSet
Validated: 1
EndChar

StartChar: comma
Encoding: 44 44 15
Width: 321
GlyphClass: 2
Flags: W
HStem: -252 472
VStem: 139 152<-98.7715 71.2704>
LayerCount: 2
Fore
SplineSet
191 220 m 1,0,-1
 201 220 l 1,1,2
 291 144 291 144 291 35 c 0,3,4
 291 -123 291 -123 70 -252 c 1,5,-1
 60 -252 l 1,6,-1
 16 -215 l 1,7,8
 139 -131 139 -131 139 -21 c 0,9,10
 139 69 139 69 42 95 c 1,11,-1
 191 220 l 1,0,-1
EndSplineSet
Validated: 1
EndChar

StartChar: hyphen
Encoding: 45 45 16
Width: 1174
GlyphClass: 2
Flags: W
HStem: 679 151<249 926>
LayerCount: 2
Fore
SplineSet
130 679 m 1,0,-1
 130 689 l 1,1,-1
 249 830 l 1,2,-1
 1044 830 l 1,3,-1
 1044 820 l 1,4,-1
 926 679 l 1,5,-1
 130 679 l 1,0,-1
EndSplineSet
Validated: 1
EndChar

StartChar: period
Encoding: 46 46 17
Width: 308
GlyphClass: 2
Flags: W
HStem: -20 252<94.8813 213.536>
VStem: 30 248<42.4788 169.521>
LayerCount: 2
Fore
SplineSet
142 -20 m 0,0,1
 129 -20 129 -20 113 -14 c 0,2,3
 81 -2 81 -2 59 27 c 0,4,5
 30 65 30 65 30 104 c 0,6,7
 30 133 30 133 53 152 c 2,8,-1
 131 218 l 2,9,10
 148 232 148 232 166 232 c 0,11,12
 179 232 179 232 195 226 c 0,13,14
 228 213 228 213 249 185 c 0,15,16
 278 147 278 147 278 108 c 0,17,18
 278 79 278 79 255 60 c 2,19,-1
 177 -6 l 2,20,21
 160 -20 160 -20 142 -20 c 0,0,1
EndSplineSet
Validated: 1
EndChar

StartChar: slash
Encoding: 47 47 18
Width: 1035
GlyphClass: 2
Flags: W
DStem2: 10 -135 146 -240 0.422438 0.906392<0 2043.06>
LayerCount: 2
Fore
SplineSet
901 1750 m 1,0,-1
 1025 1646 l 1,1,-1
 146 -240 l 1,2,-1
 136 -240 l 1,3,-1
 10 -135 l 1,4,-1
 891 1750 l 1,5,-1
 901 1750 l 1,0,-1
EndSplineSet
Validated: 1
EndChar

StartChar: zero
Encoding: 48 48 19
Width: 1310
GlyphClass: 2
Flags: W
HStem: -20 180<498.767 705.374> 1350 180<604.626 811.233>
VStem: 150 200<321.216 1136.47> 960 200<373.525 1188.78>
LayerCount: 2
Fore
SplineSet
655 160 m 0,0,1
 787 160 787 160 872 259 c 0,2,3
 960 360 960 360 960 500 c 2,4,-1
 960 1010 l 2,5,6
 960 1154 960 1154 874 1251 c 0,7,8
 786 1350 786 1350 655 1350 c 0,9,10
 523 1350 523 1350 438 1251 c 0,11,12
 350 1150 350 1150 350 1010 c 2,13,-1
 350 500 l 2,14,15
 350 356 350 356 436 259 c 0,16,17
 524 160 524 160 655 160 c 0,0,1
621 -20 m 0,18,19
 588 -20 588 -20 550 -13 c 0,20,21
 383 18 383 18 271 151 c 0,22,23
 150 295 150 295 150 500 c 2,24,-1
 150 1010 l 2,25,26
 150 1064 150 1064 168 1101 c 0,27,28
 183 1132 183 1132 224 1167 c 2,29,-1
 612 1494 l 2,30,31
 655 1530 655 1530 689 1530 c 0,32,33
 722 1530 722 1530 760 1523 c 0,34,35
 927 1492 927 1492 1039 1359 c 0,36,37
 1160 1215 1160 1215 1160 1010 c 2,38,-1
 1160 500 l 2,39,40
 1160 446 1160 446 1142 409 c 0,41,42
 1127 378 1127 378 1086 343 c 2,43,-1
 698 16 l 2,44,45
 655 -20 655 -20 621 -20 c 0,18,19
EndSplineSet
Validated: 1
EndChar

StartChar: one
Encoding: 49 49 20
Width: 649
GlyphClass: 2
Flags: W
HStem: -40 21G<274 308.026> 1046 145<30 175> 1530 20G<435.1 469>
VStem: 274 195<114 1257>
DStem2: 30 1191 30 1046 0.766901 0.641766<0 229.48>
LayerCount: 2
Fore
SplineSet
274 -40 m 1,0,-1
 274 1257 l 1,1,-1
 30 1046 l 1,2,-1
 30 1191 l 1,3,-1
 459 1550 l 1,4,-1
 469 1550 l 1,5,-1
 469 114 l 1,6,-1
 284 -40 l 1,7,-1
 274 -40 l 1,0,-1
EndSplineSet
Validated: 1
EndChar

StartChar: two
Encoding: 50 50 21
Width: 1262
GlyphClass: 2
Flags: W
HStem: 0 130<344 1031> 1350 180<585.771 787.745>
VStem: 142 200<843.129 1149.64> 932 200<848.39 1199.74>
LayerCount: 2
Fore
SplineSet
413 804 m 1,0,-1
 268 683 l 1,1,-1
 258 683 l 1,2,3
 142 821 142 821 142 1021 c 0,4,5
 142 1071 142 1071 160 1111 c 0,6,7
 174 1143 174 1143 216 1177 c 2,8,-1
 594 1494 l 2,9,10
 637 1530 637 1530 671 1530 c 0,11,12
 704 1530 704 1530 742 1523 c 0,13,14
 903 1493 903 1493 1016 1359 c 0,15,16
 1132 1221 1132 1221 1132 1021 c 16,17,18
 1132 730 1132 730 809 530.5 c 128,-1,19
 486 331 486 331 344 130 c 1,20,-1
 1132 130 l 1,21,-1
 1132 120 l 1,22,-1
 1031 0 l 1,23,-1
 110 0 l 1,24,-1
 110 10 l 1,25,26
 396 463 396 463 732 688 c 0,27,28
 932 822 932 822 932 1021 c 8,29,30
 932 1160 932 1160 851 1251 c 0,31,32
 763 1350 763 1350 637 1350 c 0,33,34
 510 1350 510 1350 425 1251 c 0,35,36
 342 1156 342 1156 342 1021 c 0,37,38
 342 892 342 892 413 804 c 1,0,-1
EndSplineSet
Validated: 1
EndChar

StartChar: three
Encoding: 51 51 22
Width: 1233
GlyphClass: 2
Flags: W
HStem: -20 180<457.255 659.229> 1380 130<320 780>
VStem: 903 200<360.63 667.737>
DStem2: 439 796 733 972 0.504239 0.863564<300.234 676.267>
LayerCount: 2
Fore
SplineSet
574 -20 m 0,0,1
 541 -20 541 -20 503 -13 c 0,2,3
 342 17 342 17 229 151 c 0,4,5
 157 237 157 237 130 344 c 1,6,-1
 303 489 l 1,7,-1
 313 489 l 9,8,9
 313 350 313 350 394 259 c 0,10,11
 482 160 482 160 608 160 c 0,12,13
 735 160 735 160 820 259 c 0,14,15
 903 354 903 354 903 489 c 24,16,17
 903 628 903 628 822 719 c 0,18,19
 734 818 734 818 608 818 c 0,20,21
 529 818 529 818 467 780 c 1,22,-1
 439 796 l 1,23,-1
 780 1380 l 1,24,-1
 219 1380 l 1,25,-1
 219 1390 l 1,26,-1
 320 1510 l 1,27,-1
 1054 1510 l 1,28,-1
 1054 1500 l 1,29,-1
 733 972 l 1,30,31
 883 951 883 951 987 827 c 0,32,33
 1103 689 1103 689 1103 489 c 24,34,35
 1103 434 1103 434 1085 399 c 0,36,37
 1069 366 1069 366 1029 333 c 2,38,-1
 651 16 l 2,39,40
 608 -20 608 -20 574 -20 c 0,0,1
EndSplineSet
Validated: 1
EndChar

StartChar: four
Encoding: 52 52 23
Width: 1168
GlyphClass: 2
Flags: W
HStem: -40 21G<738 772> 372 130<300 738 928 987> 1530 20G<794.087 828>
VStem: 546 282<1228.16 1329.59> 738 190<110 372 502 694>
LayerCount: 2
Fore
SplineSet
748 -40 m 1,0,-1
 738 -40 l 1,1,-1
 738 372 l 1,2,-1
 5 372 l 1,3,-1
 5 382 l 1,4,5
 546 760 546 760 546 1247 c 0,6,7
 546 1283 546 1283 543 1320 c 1,8,-1
 818 1550 l 1,9,-1
 828 1550 l 1,10,11
 828 959 828 959 300 502 c 1,12,-1
 738 502 l 1,13,-1
 738 694 l 1,14,-1
 918 844 l 1,15,-1
 928 844 l 1,16,-1
 928 502 l 1,17,-1
 1088 502 l 1,18,-1
 1088 492 l 1,19,-1
 987 372 l 1,20,-1
 928 372 l 1,21,-1
 928 110 l 1,22,-1
 748 -40 l 1,0,-1
EndSplineSet
Validated: 1
EndChar

StartChar: five
Encoding: 53 53 24
Width: 1233
GlyphClass: 2
Flags: W
HStem: -20 180<457.255 659.229> 818 180<555.114 758.745> 1380 130<482 950>
VStem: 903 200<362.691 667.737>
DStem2: 170 874 362 920 0.241693 0.970353<91.0413 558.56>
LayerCount: 2
Fore
SplineSet
574 -20 m 0,0,1
 541 -20 541 -20 503 -13 c 0,2,3
 342 17 342 17 229 151 c 0,4,5
 157 237 157 237 130 344 c 1,6,-1
 303 489 l 1,7,-1
 313 489 l 9,8,9
 313 350 313 350 394 259 c 0,10,11
 482 160 482 160 608 160 c 0,12,13
 735 160 735 160 820 259 c 0,14,15
 903 354 903 354 903 489 c 24,16,17
 903 628 903 628 822 719 c 0,18,19
 734 818 734 818 608 818 c 0,20,21
 481 818 481 818 396 719 c 1,22,-1
 170 874 l 1,23,-1
 305 1416 l 1,24,-1
 417 1510 l 1,25,-1
 1051 1510 l 1,26,-1
 1051 1500 l 1,27,-1
 950 1380 l 1,28,-1
 482 1380 l 1,29,-1
 362 920 l 1,30,-1
 447 863 l 1,31,-1
 565 962 l 2,32,33
 608 998 608 998 642 998 c 0,34,35
 675 998 675 998 713 991 c 0,36,37
 874 961 874 961 987 827 c 0,38,39
 1103 689 1103 689 1103 489 c 24,40,41
 1103 434 1103 434 1085 399 c 0,42,43
 1067 365 1067 365 1029 333 c 2,44,-1
 651 16 l 2,45,46
 608 -20 608 -20 574 -20 c 0,0,1
EndSplineSet
Validated: 1
EndChar

StartChar: six
Encoding: 54 54 25
Width: 1250
GlyphClass: 2
Flags: W
HStem: -20 180<494.255 696.229> 818 180<592.786 795.745> 1350 180<593.771 796.127>
VStem: 150 200<310.73 665.709 751 1146> 940 200<362.958 667.737>
LayerCount: 2
Fore
SplineSet
611 -20 m 0,0,1
 578 -20 578 -20 540 -13 c 0,2,3
 379 17 379 17 266 151 c 0,4,5
 150 289 150 289 150 489 c 2,6,-1
 150 1021 l 2,7,8
 150 1081 150 1081 168 1111 c 0,9,10
 189 1148 189 1148 224 1177 c 2,11,-1
 602 1494 l 2,12,13
 645 1530 645 1530 679 1530 c 0,14,15
 712 1530 712 1530 750 1523 c 0,16,17
 899 1495 899 1495 1024 1359 c 0,18,19
 1035 1347 1035 1347 1044 1334 c 1,20,-1
 899 1212 l 1,21,-1
 889 1212 l 1,22,23
 879 1229 879 1229 859 1251 c 0,24,25
 769 1350 769 1350 645 1350 c 0,26,27
 518 1350 518 1350 433 1251 c 0,28,29
 350 1156 350 1156 350 1021 c 2,30,-1
 350 751 l 1,31,-1
 602 962 l 2,32,33
 645 998 645 998 679 998 c 0,34,35
 712 998 712 998 750 991 c 0,36,37
 911 961 911 961 1024 827 c 0,38,39
 1140 689 1140 689 1140 489 c 0,40,41
 1140 432 1140 432 1122 399 c 0,42,43
 1103 364 1103 364 1066 333 c 2,44,-1
 688 16 l 2,45,46
 645 -20 645 -20 611 -20 c 0,0,1
645 160 m 0,47,48
 772 160 772 160 857 259 c 0,49,50
 940 354 940 354 940 489 c 0,51,52
 940 628 940 628 859 719 c 0,53,54
 771 818 771 818 645 818 c 0,55,56
 518 818 518 818 433 719 c 0,57,58
 350 624 350 624 350 489 c 0,59,60
 350 350 350 350 431 259 c 0,61,62
 519 160 519 160 645 160 c 0,47,48
EndSplineSet
Validated: 1
EndChar

StartChar: seven
Encoding: 55 55 26
Width: 959
GlyphClass: 2
Flags: W
HStem: -40 21G<286.5 364.846> 1380 130<131 659>
VStem: 242 212<379.577 748.4>
LayerCount: 2
Fore
SplineSet
341 -40 m 1,0,-1
 331 -40 l 1,1,2
 242 167 242 167 242 392 c 0,3,4
 242 972 242 972 659 1380 c 1,5,-1
 30 1380 l 1,6,-1
 30 1390 l 1,7,-1
 131 1510 l 1,8,-1
 954 1510 l 1,9,-1
 954 1500 l 1,10,11
 454 1110 454 1110 454 675 c 0,12,13
 454 404 454 404 589 168 c 1,14,-1
 341 -40 l 1,0,-1
EndSplineSet
Validated: 1
EndChar

StartChar: eight
Encoding: 56 56 27
Width: 1230
GlyphClass: 2
Flags: W
HStem: -20 180<463.751 666.229> 758 169<485.622 747.987> 1361 169<561.123 744.287>
VStem: 120 205<302.538 558.072> 210 188<1014.44 1226.59> 832 188<1061.65 1274.09> 905 205<360.201 615.462>
LayerCount: 2
Fore
SplineSet
616 927 m 0,0,1
 708 927 708 927 770 990 c 128,-1,2
 832 1053 832 1053 832 1142 c 0,3,4
 832 1235 832 1235 766.5 1298 c 128,-1,5
 701 1361 701 1361 614 1361 c 0,6,7
 520 1361 520 1361 460 1298 c 0,8,9
 398 1233 398 1233 398 1142 c 0,10,11
 398 1054 398 1054 462 991 c 0,12,13
 529 927 529 927 616 927 c 0,0,1
581 -20 m 0,14,15
 548 -20 548 -20 510 -13 c 0,16,17
 345 18 345 18 234 149 c 0,18,19
 120 285 120 285 120 459 c 0,20,21
 120 501 120 501 142 532 c 0,22,23
 158 555 158 555 194 585 c 2,24,-1
 439 790 l 1,25,26
 371 820 371 820 322 871 c 0,27,28
 210 987 210 987 210 1134 c 0,29,30
 210 1172 210 1172 233 1202 c 0,31,32
 252 1227 252 1227 284 1254 c 2,33,-1
 570 1494 l 2,34,35
 613 1530 613 1530 647 1530 c 0,36,37
 689 1530 689 1530 718 1523 c 0,38,39
 835 1495 835 1495 908 1418 c 0,40,41
 1020 1299 1020 1299 1020 1157 c 0,42,43
 1020 1121 1020 1121 1006 1099 c 0,44,45
 988 1070 988 1070 946 1035 c 2,46,-1
 797 910 l 1,47,48
 914 866 914 866 996 769 c 0,49,50
 1110 633 1110 633 1110 459 c 0,51,52
 1110 424 1110 424 1093 395 c 128,-1,53
 1076 366 1076 366 1036 333 c 2,54,-1
 658 16 l 2,55,56
 615 -20 615 -20 581 -20 c 0,14,15
615 160 m 0,57,58
 742 160 742 160 827 259 c 0,59,60
 905 349 905 349 905 459 c 0,61,62
 905 573 905 573 829 659 c 0,63,64
 741 758 741 758 615 758 c 0,65,66
 488 758 488 758 403 659 c 0,67,68
 325 569 325 569 325 459 c 0,69,70
 325 345 325 345 401 259 c 0,71,72
 489 160 489 160 615 160 c 0,57,58
EndSplineSet
Validated: 1
EndChar

StartChar: nine
Encoding: 57 57 28
Width: 1250
GlyphClass: 2
Flags: W
HStem: -20 180<453.873 656.229> 512 180<454.255 657.214> 1350 180<553.771 755.745>
VStem: 110 200<842.263 1147.04> 900 200<360.416 759 844.291 1199.27>
LayerCount: 2
Fore
SplineSet
571 -20 m 0,0,1
 538 -20 538 -20 500 -13 c 0,2,3
 351 15 351 15 226 151 c 0,4,5
 215 163 215 163 206 176 c 1,6,-1
 351 298 l 1,7,-1
 361 298 l 1,8,9
 371 281 371 281 391 259 c 0,10,11
 481 160 481 160 605 160 c 0,12,13
 732 160 732 160 817 259 c 0,14,15
 900 354 900 354 900 489 c 2,16,-1
 900 759 l 1,17,-1
 648 548 l 2,18,19
 605 512 605 512 571 512 c 0,20,21
 538 512 538 512 500 519 c 0,22,23
 339 549 339 549 226 683 c 0,24,25
 110 821 110 821 110 1021 c 0,26,27
 110 1078 110 1078 128 1111 c 0,28,29
 147 1146 147 1146 184 1177 c 2,30,-1
 562 1494 l 2,31,32
 605 1530 605 1530 639 1530 c 0,33,34
 672 1530 672 1530 710 1523 c 0,35,36
 871 1493 871 1493 984 1359 c 0,37,38
 1100 1221 1100 1221 1100 1021 c 2,39,-1
 1100 489 l 2,40,41
 1100 435 1100 435 1082 399 c 0,42,43
 1065 365 1065 365 1026 333 c 2,44,-1
 648 16 l 2,45,46
 605 -20 605 -20 571 -20 c 0,0,1
605 1350 m 0,47,48
 478 1350 478 1350 393 1251 c 0,49,50
 310 1156 310 1156 310 1021 c 0,51,52
 310 882 310 882 391 791 c 0,53,54
 479 692 479 692 605 692 c 0,55,56
 732 692 732 692 817 791 c 0,57,58
 900 886 900 886 900 1021 c 0,59,60
 900 1160 900 1160 819 1251 c 0,61,62
 731 1350 731 1350 605 1350 c 0,47,48
EndSplineSet
Validated: 1
EndChar

StartChar: colon
Encoding: 58 58 29
Width: 308
GlyphClass: 2
Flags: W
HStem: -20 252<94.8813 213.536> 627 252<94.8813 213.536>
VStem: 30 248<42.4788 169.521 689.479 816.521>
LayerCount: 2
Fore
SplineSet
142 -20 m 0,0,1
 129 -20 129 -20 113 -14 c 0,2,3
 81 -2 81 -2 59 27 c 0,4,5
 30 65 30 65 30 104 c 0,6,7
 30 133 30 133 53 152 c 2,8,-1
 131 218 l 2,9,10
 148 232 148 232 166 232 c 0,11,12
 179 232 179 232 195 226 c 0,13,14
 228 213 228 213 249 185 c 0,15,16
 278 147 278 147 278 108 c 0,17,18
 278 79 278 79 255 60 c 2,19,-1
 177 -6 l 2,20,21
 160 -20 160 -20 142 -20 c 0,0,1
166 879 m 0,22,23
 179 879 179 879 195 873 c 0,24,25
 228 860 228 860 249 832 c 0,26,27
 278 794 278 794 278 755 c 0,28,29
 278 726 278 726 255 707 c 2,30,-1
 177 641 l 2,31,32
 160 627 160 627 142 627 c 0,33,34
 129 627 129 627 113 633 c 0,35,36
 81 645 81 645 59 674 c 0,37,38
 30 712 30 712 30 751 c 0,39,40
 30 780 30 780 53 799 c 2,41,-1
 131 865 l 2,42,43
 148 879 148 879 166 879 c 0,22,23
EndSplineSet
Validated: 1
EndChar

StartChar: semicolon
Encoding: 59 59 30
Width: 321
GlyphClass: 2
Flags: W
HStem: 627 252<94.8813 213.536>
VStem: 30 248<689.479 816.521> 139 152<-98.7715 71.2704>
LayerCount: 2
Fore
SplineSet
191 220 m 1,0,-1
 201 220 l 1,1,2
 291 144 291 144 291 35 c 0,3,4
 291 -123 291 -123 70 -252 c 1,5,-1
 60 -252 l 1,6,-1
 16 -215 l 1,7,8
 139 -131 139 -131 139 -21 c 0,9,10
 139 69 139 69 42 95 c 1,11,-1
 191 220 l 1,0,-1
166 879 m 0,12,13
 179 879 179 879 195 873 c 0,14,15
 228 860 228 860 249 832 c 0,16,17
 278 794 278 794 278 755 c 0,18,19
 278 726 278 726 255 707 c 2,20,-1
 177 641 l 2,21,22
 160 627 160 627 142 627 c 0,23,24
 129 627 129 627 113 633 c 0,25,26
 81 645 81 645 59 674 c 0,27,28
 30 712 30 712 30 751 c 0,29,30
 30 780 30 780 53 799 c 2,31,-1
 131 865 l 2,32,33
 148 879 148 879 166 879 c 0,12,13
EndSplineSet
Validated: 1
EndChar

StartChar: less
Encoding: 60 60 31
Width: 1236
GlyphClass: 2
Flags: W
DStem2: 354 772 130 709 0.906294 -0.422647<0 741.641> 224 832 354 772 0.905729 0.423857<92.3133 844.624>
LayerCount: 2
Fore
SplineSet
989 1190 m 1,0,-1
 1056 1110 l 1,1,-1
 1056 1100 l 1,2,-1
 354 772 l 1,3,-1
 1056 444 l 1,4,-1
 1056 434 l 1,5,-1
 962 321 l 1,6,-1
 130 709 l 1,7,-1
 130 719 l 1,8,-1
 224 832 l 1,9,-1
 989 1190 l 1,0,-1
EndSplineSet
Validated: 1
EndChar

StartChar: equal
Encoding: 61 61 32
Width: 1174
GlyphClass: 2
Flags: W
HStem: 502 151<249 926> 857 151<249 926>
LayerCount: 2
Fore
SplineSet
130 502 m 1,0,-1
 130 512 l 1,1,-1
 249 653 l 1,2,-1
 1044 653 l 1,3,-1
 1044 643 l 1,4,-1
 926 502 l 1,5,-1
 130 502 l 1,0,-1
130 857 m 1,6,-1
 130 867 l 1,7,-1
 249 1008 l 1,8,-1
 1044 1008 l 1,9,-1
 1044 998 l 1,10,-1
 926 857 l 1,11,-1
 130 857 l 1,6,-1
EndSplineSet
Validated: 1
EndChar

StartChar: greater
Encoding: 62 62 33
Width: 1236
GlyphClass: 2
Flags: W
DStem2: 274 1190 180 1067 0.906294 -0.422647<0 741.641> 180 411 247 321 0.905729 0.423857<22.5367 774.847>
LayerCount: 2
Fore
SplineSet
274 1190 m 1,0,-1
 1106 802 l 1,1,-1
 1106 792 l 1,2,-1
 1012 679 l 1,3,-1
 247 321 l 1,4,-1
 180 401 l 1,5,-1
 180 411 l 1,6,-1
 882 739 l 1,7,-1
 180 1067 l 1,8,-1
 180 1077 l 1,9,-1
 274 1190 l 1,0,-1
EndSplineSet
Validated: 1
EndChar

StartChar: question
Encoding: 63 63 34
Width: 1250
GlyphClass: 2
Flags: W
HStem: -20 252<563.881 682.536> 1350 180<573.771 775.745>
VStem: 130 200<843.129 1147.54> 499 248<42.4788 169.521> 920 200<893.379 1199.74>
LayerCount: 2
Fore
SplineSet
611 -20 m 0,0,1
 598 -20 598 -20 582 -14 c 0,2,3
 550 -2 550 -2 528 27 c 0,4,5
 499 65 499 65 499 104 c 0,6,7
 499 133 499 133 522 152 c 2,8,-1
 600 218 l 2,9,10
 617 232 617 232 635 232 c 0,11,12
 648 232 648 232 664 226 c 0,13,14
 697 213 697 213 718 185 c 0,15,16
 747 147 747 147 747 108 c 0,17,18
 747 79 747 79 724 60 c 2,19,-1
 646 -6 l 2,20,21
 629 -20 629 -20 611 -20 c 0,0,1
659 1530 m 0,22,23
 692 1530 692 1530 730 1523 c 0,24,25
 891 1493 891 1493 1004 1359 c 0,26,27
 1120 1221 1120 1221 1120 1021 c 24,28,29
 1120 966 1120 966 1102 931 c 0,30,31
 1085 898 1085 898 1046 865 c 2,32,-1
 878 724 l 2,33,34
 751 617 751 617 718 457 c 1,35,-1
 516 288 l 1,36,-1
 506 288 l 1,37,38
 506 523 506 523 691 666 c 0,39,40
 809 758 809 758 837 791 c 0,41,42
 920 889 920 889 920 1021 c 0,43,44
 920 1160 920 1160 839 1251 c 0,45,46
 751 1350 751 1350 625 1350 c 0,47,48
 498 1350 498 1350 413 1251 c 0,49,50
 330 1156 330 1156 330 1021 c 16,51,52
 330 892 330 892 401 804 c 1,53,-1
 256 683 l 1,54,-1
 246 683 l 1,55,56
 130 821 130 821 130 1021 c 0,57,58
 130 1076 130 1076 148 1111 c 0,59,60
 168 1148 168 1148 204 1177 c 2,61,-1
 582 1494 l 2,62,63
 625 1530 625 1530 659 1530 c 0,22,23
EndSplineSet
Validated: 1
EndChar

StartChar: at
Encoding: 64 64 35
Width: 1270
GlyphClass: 2
Flags: W
HStem: -40 21G<960 993.776> -20 160<708.722 895.448> 960 160<583.71 795.229>
VStem: 130 180<-94.282 728.525> 960 180<151.634 637.901>
DStem2: 502 377 616 353 0.765461 0.643482<47.8041 518.93>
LayerCount: 2
Fore
SplineSet
970 -40 m 1,0,-1
 960 -40 l 1,1,-1
 960 79 l 1,2,-1
 885 16 l 2,3,4
 842 -20 842 -20 808 -20 c 0,5,6
 766 -20 766 -20 737 -13 c 0,7,8
 636 11 636 11 547 92 c 0,9,10
 447 183 447 183 447 285 c 0,11,12
 447 314 447 314 460 334 c 0,13,14
 472 352 472 352 502 377 c 2,15,-1
 935 741 l 1,16,17
 912 802 912 802 867 854 c 0,18,19
 775 960 775 960 635 960 c 0,20,21
 499 960 499 960 405 854 c 0,22,23
 310 746 310 746 310 600 c 2,24,-1
 310 90 l 2,25,26
 310 -60 310 -60 403 -164 c 0,27,28
 501 -273 501 -273 638 -273 c 1,29,-1
 478 -407 l 1,30,-1
 468 -407 l 1,31,32
 341 -365 341 -365 251 -259 c 0,33,34
 130 -115 130 -115 130 90 c 2,35,-1
 130 600 l 2,36,37
 130 654 130 654 148 691 c 0,38,39
 163 723 163 723 204 757 c 2,40,-1
 592 1084 l 2,41,42
 635 1120 635 1120 669 1120 c 0,43,44
 702 1120 702 1120 740 1113 c 0,45,46
 907 1082 907 1082 1019 949 c 0,47,48
 1140 805 1140 805 1140 600 c 2,49,-1
 1140 103 l 1,50,-1
 970 -40 l 1,0,-1
960 173 m 1,51,-1
 960 600 l 2,52,53
 960 621 960 621 958 641 c 1,54,-1
 616 353 l 1,55,56
 626 262 626 262 682 207 c 0,57,58
 751 140 751 140 841 140 c 0,59,60
 909 140 909 140 960 173 c 1,51,-1
EndSplineSet
Validated: 1
EndChar

StartChar: A
Encoding: 65 65 36
Width: 1365
GlyphClass: 2
Flags: W
HStem: -40 21G<135 270 1053.5 1155.84> 520 130<106 195 395 985> 1350 180<639.112 840.987>
VStem: 195 200<110 520 650 1145.75> 985 200<131.44 520 650 1199.2>
LayerCount: 2
Fore
SplineSet
395 650 m 1,0,-1
 985 650 l 1,1,-1
 985 1020 l 2,2,3
 985 1160 985 1160 904 1251 c 0,4,5
 816 1350 816 1350 690 1350 c 0,6,7
 565 1350 565 1350 478 1251 c 0,8,9
 395 1156 395 1156 395 1020 c 2,10,-1
 395 650 l 1,0,-1
135 -40 m 1,11,12
 195 106 195 106 195 268 c 2,13,-1
 195 520 l 1,14,-1
 5 520 l 1,15,-1
 5 530 l 1,16,-1
 106 650 l 1,17,-1
 195 650 l 1,18,-1
 195 1020 l 2,19,20
 195 1079 195 1079 213 1111 c 0,21,22
 236 1149 236 1149 269 1177 c 2,23,-1
 647 1494 l 2,24,25
 690 1530 690 1530 724 1530 c 0,26,27
 757 1530 757 1530 795 1523 c 0,28,29
 958 1493 958 1493 1069 1359 c 0,30,31
 1185 1220 1185 1220 1185 1020 c 2,32,-1
 1185 240 l 2,33,34
 1185 132 1185 132 1281 105 c 1,35,-1
 1132 -20 l 1,36,-1
 1122 -20 l 1,37,38
 985 56 985 56 985 220 c 2,39,-1
 985 520 l 1,40,-1
 395 520 l 1,41,-1
 395 268 l 2,42,43
 395 56 395 56 145 -40 c 1,44,-1
 135 -40 l 1,11,12
EndSplineSet
Validated: 1
EndChar

StartChar: B
Encoding: 66 66 37
Width: 1232
GlyphClass: 2
Flags: W
HStem: -40 21G<180 421.5> 1384 146<590 670.504> 1530 20G<346.101 380>
VStem: 180 200<100 1391> 825 169<1060.24 1266.93> 941 211<421.852 715.459>
LayerCount: 2
Fore
SplineSet
180 -40 m 1,0,-1
 180 1391 l 1,1,-1
 370 1550 l 1,2,-1
 380 1550 l 1,3,-1
 380 100 l 1,4,5
 644 146 644 146 784 263 c 0,6,7
 941 394 941 394 941 570 c 0,8,9
 941 722 941 722 800 794 c 0,10,11
 711 839 711 839 542 847 c 1,12,13
 825 974 825 974 825 1148 c 0,14,15
 825 1255 825 1255 719 1316 c 4,16,17
 608 1379 608 1379 416 1384 c 5,18,-1
 590 1530 l 5,19,20
 771 1522 771 1522 873 1446 c 4,21,22
 994 1356 994 1356 994 1211 c 0,23,24
 994 1058 994 1058 850 965 c 1,25,26
 942 949 942 949 1012 897 c 0,27,28
 1152 792 1152 792 1152 618 c 0,29,30
 1152 372 1152 372 916 202 c 0,31,32
 653 13 653 13 190 -40 c 1,33,-1
 180 -40 l 1,0,-1
EndSplineSet
Validated: 1
EndChar

StartChar: C
Encoding: 67 67 38
Width: 1247
GlyphClass: 2
Flags: W
HStem: -20 180<482.78 684.971> 1350 180<583.692 786.52>
VStem: 130 205<317.28 1136.47>
DStem2: 852 259 678 16 0.764656 0.644439<-182.474 336.053>
LayerCount: 2
Fore
SplineSet
601 -20 m 0,0,1
 568 -20 568 -20 530 -13 c 0,2,3
 363 18 363 18 251 151 c 0,4,5
 130 296 130 296 130 500 c 2,6,-1
 130 1010 l 2,7,8
 130 1064 130 1064 148 1101 c 0,9,10
 163 1132 163 1132 204 1167 c 2,11,-1
 592 1494 l 2,12,13
 635 1530 635 1530 669 1530 c 0,14,15
 702 1530 702 1530 740 1523 c 0,16,17
 907 1492 907 1492 1019 1359 c 0,18,19
 1094 1269 1094 1269 1123 1159 c 1,20,-1
 945 1010 l 1,21,-1
 935 1010 l 1,22,23
 935 1153 935 1153 849 1251 c 0,24,25
 761 1350 761 1350 635 1350 c 0,26,27
 508 1350 508 1350 423 1251 c 0,28,29
 335 1150 335 1150 335 1010 c 2,30,-1
 335 500 l 2,31,32
 335 356 335 356 421 259 c 0,33,34
 509 160 509 160 622 160 c 128,-1,35
 735 160 735 160 852 259 c 2,36,-1
 1137 500 l 1,37,38
 1137 439 1137 439 1122 409 c 0,39,40
 1106 377 1106 377 1066 343 c 2,41,-1
 678 16 l 2,42,43
 635 -20 635 -20 601 -20 c 0,0,1
EndSplineSet
Validated: 19457
EndChar

StartChar: D
Encoding: 68 68 39
Width: 1293
GlyphClass: 2
Flags: W
HStem: -40 21G<180 379> 1384 146<572.915 631.458> 1530 20G<346.101 380>
VStem: 180 200<100 1391> 1006 207<623.732 1053.95>
LayerCount: 2
Fore
SplineSet
180 -40 m 1,0,-1
 180 1391 l 1,1,-1
 370 1550 l 1,2,-1
 380 1550 l 1,3,-1
 380 100 l 1,4,5
 616 188 616 188 777 326 c 0,6,7
 1006 522 1006 522 1006 834 c 0,8,9
 1006 1077 1006 1077 826 1233 c 0,10,11
 677 1362 677 1362 416 1384 c 1,12,-1
 590 1530 l 1,13,14
 859 1507 859 1507 1034 1332 c 0,15,16
 1213 1153 1213 1153 1213 888 c 0,17,18
 1213 475 1213 475 850 220 c 0,19,20
 568 22 568 22 190 -40 c 1,21,-1
 180 -40 l 1,0,-1
EndSplineSet
Validated: 1
EndChar

StartChar: E
Encoding: 69 69 40
Width: 1108
GlyphClass: 2
Flags: W
HStem: 0 130<107 195 395 977> 520 130<106 195 395 764> 1380 130<395 834>
VStem: 195 200<130 520 650 1380>
LayerCount: 2
Fore
SplineSet
5 0 m 1,0,-1
 5 8 l 1,1,-1
 107 130 l 1,2,-1
 195 130 l 1,3,-1
 195 520 l 1,4,-1
 5 520 l 1,5,-1
 5 530 l 1,6,-1
 106 650 l 1,7,-1
 195 650 l 1,8,-1
 195 1389 l 1,9,-1
 339 1510 l 1,10,-1
 935 1510 l 1,11,-1
 935 1500 l 1,12,-1
 834 1380 l 1,13,-1
 395 1380 l 1,14,-1
 395 650 l 1,15,-1
 865 650 l 1,16,-1
 865 640 l 1,17,-1
 764 520 l 1,18,-1
 395 520 l 1,19,-1
 395 130 l 1,20,-1
 1078 130 l 1,21,-1
 1078 120 l 1,22,-1
 977 0 l 1,23,-1
 5 0 l 1,0,-1
EndSplineSet
Validated: 1
EndChar

StartChar: F
Encoding: 70 70 41
Width: 1035
GlyphClass: 2
Flags: W
HStem: -40 21G<195 228.899> 520 130<106 195 395 764> 1380 130<395 834>
VStem: 195 200<119 520 650 1380>
LayerCount: 2
Fore
SplineSet
195 -40 m 1,0,-1
 195 520 l 1,1,-1
 5 520 l 1,2,-1
 5 530 l 1,3,-1
 106 650 l 1,4,-1
 195 650 l 1,5,-1
 195 1389 l 1,6,-1
 339 1510 l 1,7,-1
 935 1510 l 1,8,-1
 935 1500 l 1,9,-1
 834 1380 l 1,10,-1
 395 1380 l 1,11,-1
 395 650 l 1,12,-1
 865 650 l 1,13,-1
 865 640 l 1,14,-1
 764 520 l 1,15,-1
 395 520 l 1,16,-1
 395 119 l 1,17,-1
 205 -40 l 1,18,-1
 195 -40 l 1,0,-1
EndSplineSet
Validated: 1
EndChar

StartChar: G
Encoding: 71 71 42
Width: 1270
GlyphClass: 2
Flags: W
HStem: -20 180<483.48 686.308> 520 130<678 935> 1350 180<583.692 786.52>
VStem: 130 205<317.28 1136.47> 935 205<373.525 520>
LayerCount: 2
Fore
SplineSet
601 -20 m 0,0,1
 568 -20 568 -20 530 -13 c 0,2,3
 363 18 363 18 251 151 c 0,4,5
 130 296 130 296 130 500 c 2,6,-1
 130 1010 l 2,7,8
 130 1064 130 1064 148 1101 c 0,9,10
 163 1133 163 1133 204 1167 c 2,11,-1
 592 1494 l 2,12,13
 635 1530 635 1530 669 1530 c 0,14,15
 702 1530 702 1530 740 1523 c 0,16,17
 907 1492 907 1492 1019 1359 c 0,18,19
 1094 1269 1094 1269 1123 1159 c 1,20,-1
 945 1010 l 1,21,-1
 935 1010 l 1,22,23
 935 1153 935 1153 849 1251 c 0,24,25
 761 1350 761 1350 635 1350 c 0,26,27
 508 1350 508 1350 423 1251 c 0,28,29
 335 1150 335 1150 335 1010 c 2,30,-1
 335 500 l 2,31,32
 335 356 335 356 421 259 c 0,33,34
 509 160 509 160 635 160 c 0,35,36
 762 160 762 160 847 259 c 0,37,38
 935 360 935 360 935 500 c 2,39,-1
 935 520 l 1,40,-1
 577 520 l 1,41,-1
 577 530 l 1,42,-1
 678 650 l 1,43,-1
 1140 650 l 1,44,-1
 1140 500 l 2,45,46
 1140 446 1140 446 1122 409 c 0,47,48
 1107 377 1107 377 1066 343 c 2,49,-1
 678 16 l 2,50,51
 635 -20 635 -20 601 -20 c 0,0,1
EndSplineSet
Validated: 19457
EndChar

StartChar: H
Encoding: 72 72 43
Width: 1365
GlyphClass: 2
Flags: W
HStem: -40 21G<195 228.899 985 1018.9> 520 130<106 195 395 985> 1530 20G<361.101 395 1151.1 1185>
VStem: 195 200<119 520 650 1391> 985 200<119 520 650 1391>
LayerCount: 2
Fore
SplineSet
195 -40 m 1,0,-1
 195 520 l 1,1,-1
 5 520 l 1,2,-1
 5 530 l 1,3,-1
 106 650 l 1,4,-1
 195 650 l 1,5,-1
 195 1391 l 1,6,-1
 385 1550 l 1,7,-1
 395 1550 l 1,8,-1
 395 650 l 1,9,-1
 985 650 l 1,10,-1
 985 1391 l 1,11,-1
 1175 1550 l 1,12,-1
 1185 1550 l 1,13,-1
 1185 119 l 1,14,-1
 995 -40 l 1,15,-1
 985 -40 l 1,16,-1
 985 520 l 1,17,-1
 395 520 l 1,18,-1
 395 119 l 1,19,-1
 205 -40 l 1,20,-1
 195 -40 l 1,0,-1
EndSplineSet
Validated: 1
EndChar

StartChar: I
Encoding: 73 73 44
Width: 560
GlyphClass: 2
Flags: W
HStem: -40 21G<180 213.899> 1530 20G<346.101 380>
VStem: 180 200<119 1391>
LayerCount: 2
Fore
SplineSet
180 -40 m 1,0,-1
 180 1391 l 1,1,-1
 370 1550 l 1,2,-1
 380 1550 l 1,3,-1
 380 119 l 1,4,-1
 190 -40 l 1,5,-1
 180 -40 l 1,0,-1
EndSplineSet
Validated: 1
EndChar

StartChar: J
Encoding: 74 74 45
Width: 1158
GlyphClass: 2
Flags: W
HStem: -20 180<332.255 534.229> 1380 130<290 778>
VStem: 778 200<360.651 1380>
LayerCount: 2
Fore
SplineSet
449 -20 m 0,0,1
 416 -20 416 -20 378 -13 c 0,2,3
 217 17 217 17 104 151 c 0,4,5
 36 232 36 232 5 355 c 1,6,-1
 178 500 l 1,7,-1
 188 500 l 1,8,9
 188 350 188 350 269 259 c 0,10,11
 357 160 357 160 483 160 c 0,12,13
 610 160 610 160 695 259 c 0,14,15
 778 354 778 354 778 490 c 2,16,-1
 778 1380 l 1,17,-1
 189 1380 l 1,18,-1
 189 1390 l 1,19,-1
 290 1510 l 1,20,-1
 978 1510 l 1,21,-1
 978 490 l 2,22,23
 978 435 978 435 960 399 c 0,24,25
 943 365 943 365 904 333 c 2,26,-1
 526 16 l 2,27,28
 483 -20 483 -20 449 -20 c 0,0,1
EndSplineSet
Validated: 1
EndChar

StartChar: K
Encoding: 75 75 46
Width: 1296
GlyphClass: 2
Flags: W
HStem: -40 21G<180 213.899 993.995 1041.79> 1530 20G<346.101 380 1106.1 1140>
VStem: 180 200<119 267.125 355 1391> 940 200<909.595 1391>
DStem2: 666 776 518 660 0.573462 -0.819232<10.1585 224.142 338.301 854.459>
LayerCount: 2
Fore
SplineSet
180 -40 m 1,0,-1
 180 1391 l 1,1,-1
 370 1550 l 1,2,-1
 380 1550 l 1,3,-1
 380 355 l 1,4,5
 519 402 519 402 643 481 c 1,6,-1
 518 660 l 1,7,-1
 656 776 l 1,8,-1
 666 776 l 1,9,-1
 794 592 l 1,10,11
 940 804 940 804 940 1258 c 2,12,-1
 940 1391 l 1,13,-1
 1130 1550 l 1,14,-1
 1140 1550 l 1,15,-1
 1140 1262 l 2,16,17
 1140 766 1140 766 859 500 c 1,18,-1
 1156 76 l 1,19,-1
 1018 -40 l 1,20,-1
 1008 -40 l 1,21,-1
 709 387 l 1,22,23
 556 301 556 301 380 255 c 1,24,-1
 380 119 l 1,25,-1
 190 -40 l 1,26,-1
 180 -40 l 1,0,-1
EndSplineSet
Validated: 1
EndChar

StartChar: L
Encoding: 76 76 47
Width: 1083
GlyphClass: 2
Flags: W
HStem: 0 130<107 195 395 977> 1530 20G<361.101 395>
VStem: 195 200<130 1391>
LayerCount: 2
Fore
SplineSet
5 0 m 1,0,-1
 5 8 l 1,1,-1
 107 130 l 1,2,-1
 195 130 l 1,3,-1
 195 1391 l 1,4,-1
 385 1550 l 1,5,-1
 395 1550 l 1,6,-1
 395 130 l 1,7,-1
 1078 130 l 1,8,-1
 1078 120 l 1,9,-1
 977 0 l 1,10,-1
 5 0 l 1,0,-1
EndSplineSet
Validated: 1
EndChar

StartChar: M
Encoding: 77 77 48
Width: 2180
GlyphClass: 2
Flags: W
HStem: -40 21G<180 213.899 990 1023.9 1800 1833.9> 1350 180<633.563 841.233 1442.88 1651.23> 1530 20G<346.101 380>
VStem: 180 200<119 1187.59 1273 1391> 990 200<119 1187.59> 1800 200<119 1192.72>
CounterMasks: 1 1c
LayerCount: 2
Fore
SplineSet
180 -40 m 1,0,-1
 180 1391 l 1,1,-1
 370 1550 l 1,2,-1
 380 1550 l 1,3,-1
 380 1273 l 1,4,-1
 642 1494 l 2,5,6
 685 1530 685 1530 719 1530 c 0,7,8
 752 1530 752 1530 790 1523 c 0,9,10
 957 1492 957 1492 1069 1359 c 0,11,12
 1117 1302 1117 1302 1146 1236 c 1,13,-1
 1452 1494 l 2,14,15
 1495 1530 1495 1530 1529 1530 c 0,16,17
 1562 1530 1562 1530 1600 1523 c 0,18,19
 1767 1492 1767 1492 1879 1359 c 0,20,21
 2000 1214 2000 1214 2000 1010 c 2,22,-1
 2000 119 l 1,23,-1
 1810 -40 l 1,24,-1
 1800 -40 l 1,25,-1
 1800 1010 l 2,26,27
 1800 1154 1800 1154 1714 1251 c 0,28,29
 1626 1350 1626 1350 1495 1350 c 0,30,31
 1363 1350 1363 1350 1278 1251 c 0,32,33
 1190 1150 1190 1150 1190 1010 c 2,34,-1
 1190 119 l 1,35,-1
 1000 -40 l 1,36,-1
 990 -40 l 1,37,-1
 990 1010 l 2,38,39
 990 1154 990 1154 904 1251 c 0,40,41
 816 1350 816 1350 685 1350 c 0,42,43
 553 1350 553 1350 468 1251 c 0,44,45
 380 1150 380 1150 380 1010 c 2,46,-1
 380 119 l 1,47,-1
 190 -40 l 1,48,-1
 180 -40 l 1,0,-1
EndSplineSet
Validated: 1
EndChar

StartChar: N
Encoding: 78 78 49
Width: 1370
GlyphClass: 2
Flags: W
HStem: -40 21G<180 213.899 990 1023.9> 1350 180<633.563 841.233> 1530 20G<346.101 380>
VStem: 180 200<119 1187.59 1273 1391> 990 200<119 1192.72>
LayerCount: 2
Fore
SplineSet
180 -40 m 1,0,-1
 180 1391 l 1,1,-1
 370 1550 l 1,2,-1
 380 1550 l 1,3,-1
 380 1273 l 1,4,-1
 642 1494 l 2,5,6
 685 1530 685 1530 719 1530 c 0,7,8
 752 1530 752 1530 790 1523 c 0,9,10
 957 1492 957 1492 1069 1359 c 0,11,12
 1190 1214 1190 1214 1190 1010 c 2,13,-1
 1190 119 l 1,14,-1
 1000 -40 l 1,15,-1
 990 -40 l 1,16,-1
 990 1010 l 2,17,18
 990 1154 990 1154 904 1251 c 0,19,20
 816 1350 816 1350 685 1350 c 0,21,22
 553 1350 553 1350 468 1251 c 0,23,24
 380 1150 380 1150 380 1010 c 2,25,-1
 380 119 l 1,26,-1
 190 -40 l 1,27,-1
 180 -40 l 1,0,-1
EndSplineSet
Validated: 1
EndChar

StartChar: O
Encoding: 79 79 50
Width: 1270
GlyphClass: 2
Flags: W
HStem: -20 180<483.48 686.308> 1350 180<583.692 786.52>
VStem: 130 205<321.216 1136.47> 935 205<373.525 1188.78>
LayerCount: 2
Fore
SplineSet
635 160 m 0,0,1
 762 160 762 160 847 259 c 0,2,3
 935 360 935 360 935 500 c 2,4,-1
 935 1010 l 2,5,6
 935 1154 935 1154 849 1251 c 0,7,8
 761 1350 761 1350 635 1350 c 0,9,10
 508 1350 508 1350 423 1251 c 0,11,12
 335 1150 335 1150 335 1010 c 2,13,-1
 335 500 l 2,14,15
 335 356 335 356 421 259 c 0,16,17
 509 160 509 160 635 160 c 0,0,1
601 -20 m 0,18,19
 568 -20 568 -20 530 -13 c 0,20,21
 363 18 363 18 251 151 c 0,22,23
 130 295 130 295 130 500 c 2,24,-1
 130 1010 l 2,25,26
 130 1064 130 1064 148 1101 c 0,27,28
 163 1132 163 1132 204 1167 c 2,29,-1
 592 1494 l 2,30,31
 635 1530 635 1530 669 1530 c 0,32,33
 702 1530 702 1530 740 1523 c 0,34,35
 907 1492 907 1492 1019 1359 c 0,36,37
 1140 1215 1140 1215 1140 1010 c 2,38,-1
 1140 500 l 2,39,40
 1140 446 1140 446 1122 409 c 0,41,42
 1107 378 1107 378 1066 343 c 2,43,-1
 678 16 l 2,44,45
 635 -20 635 -20 601 -20 c 0,18,19
EndSplineSet
Validated: 19457
EndChar

StartChar: P
Encoding: 80 80 51
Width: 1234
GlyphClass: 2
Flags: W
HStem: -40 21G<180 213.899> 1384 146<572.915 661.943> 1530 20G<346.101 380>
VStem: 180 200<119 268.983 355 1391> 948 206<778.537 1140.65>
LayerCount: 2
Fore
SplineSet
180 -40 m 1,0,-1
 180 1391 l 1,1,-1
 370 1550 l 1,2,-1
 380 1550 l 1,3,-1
 380 355 l 1,4,5
 612 434 612 434 754 555 c 0,6,7
 948 720 948 720 948 948 c 0,8,9
 948 1141 948 1141 806 1260 c 0,10,11
 668 1376 668 1376 416 1384 c 1,12,13
 590 1530 l 1,14,15
 826 1512 826 1512 988 1371 c 0,16,17
 1154 1227 1154 1227 1154 999 c 0,18,19
 1154 671 1154 671 817 454 c 0,20,21
 619 327 619 327 380 255 c 1,22,-1
 380 119 l 1,23,-1
 190 -40 l 1,24,-1
 180 -40 l 1,0,-1
EndSplineSet
Validated: 1
EndChar

StartChar: Q
Encoding: 81 81 52
Width: 1270
GlyphClass: 2
Flags: W
HStem: -40 21G<954.032 1001.54> -20 180<483.48 687.484> 1350 180<583.692 786.52>
VStem: 130 205<317.28 1136.47> 935 205<371.888 1192.72>
DStem2: 770 472 666 392 0.570787 -0.821098<6.32606 203.335 302.887 527.342>
LayerCount: 2
Fore
SplineSet
666 392 m 1,0,-1
 760 472 l 1,1,-1
 770 472 l 1,2,-1
 886 305 l 1,3,4
 935 383 935 383 935 500 c 2,5,-1
 935 1010 l 2,6,7
 935 1154 935 1154 849 1251 c 0,8,9
 761 1350 761 1350 635 1350 c 0,10,11
 508 1350 508 1350 423 1251 c 0,12,13
 335 1150 335 1150 335 1010 c 2,14,-1
 335 500 l 2,15,16
 335 356 335 356 421 259 c 0,17,18
 509 160 509 160 635 160 c 0,19,20
 726 160 726 160 795 207 c 1,21,-1
 666 392 l 1,0,-1
601 -20 m 0,22,23
 568 -20 568 -20 530 -13 c 0,24,25
 363 18 363 18 251 151 c 0,26,27
 130 296 130 296 130 500 c 2,28,-1
 130 1010 l 2,29,30
 130 1064 130 1064 148 1101 c 0,31,32
 163 1133 163 1133 204 1167 c 2,33,-1
 592 1494 l 2,34,35
 635 1530 635 1530 669 1530 c 0,36,37
 702 1530 702 1530 740 1523 c 0,38,39
 907 1492 907 1492 1019 1359 c 0,40,41
 1140 1214 1140 1214 1140 1010 c 2,42,-1
 1140 500 l 2,43,44
 1140 449 1140 449 1122 409 c 0,45,46
 1108 379 1108 379 1066 343 c 2,47,-1
 936 233 l 1,48,-1
 1071 39 l 1,49,-1
 978 -40 l 1,50,-1
 968 -40 l 1,51,-1
 836 149 l 1,52,-1
 678 16 l 2,53,54
 635 -20 635 -20 601 -20 c 0,22,23
EndSplineSet
Validated: 19457
EndChar

StartChar: R
Encoding: 82 82 53
Width: 1306
GlyphClass: 2
Flags: W
HStem: -40 21G<180 213.899 993.967 1041.79> 1384 146<572.915 661.943> 1530 20G<346.101 380>
VStem: 180 200<119 268.469 355 1391> 948 206<775.537 1140.65>
DStem2: 666 776 517 660 0.574247 -0.818682<9.40432 224.715 349.572 854.459>
LayerCount: 2
Fore
SplineSet
180 -40 m 1,0,-1
 180 1391 l 1,1,-1
 370 1550 l 1,2,-1
 380 1550 l 1,3,-1
 380 355 l 1,4,5
 532 407 532 407 646 477 c 1,6,-1
 517 660 l 1,7,-1
 656 776 l 1,8,-1
 666 776 l 1,9,-1
 795 592 l 1,10,11
 948 745 948 745 948 948 c 0,12,13
 948 1141 948 1141 806 1260 c 0,14,15
 668 1376 668 1376 416 1384 c 1,16,-1
 590 1530 l 1,17,18
 826 1512 826 1512 988 1371 c 0,19,20
 1154 1227 1154 1227 1154 999 c 0,21,22
 1154 696 1154 696 867 488 c 1,23,-1
 1156 76 l 1,24,-1
 1018 -40 l 1,25,-1
 1008 -40 l 1,26,-1
 707 389 l 1,27,28
 554 307 554 307 380 255 c 1,29,-1
 380 119 l 1,30,-1
 190 -40 l 1,31,-1
 180 -40 l 1,0,-1
EndSplineSet
Validated: 1
EndChar

StartChar: S
Encoding: 83 83 54
Width: 1213
GlyphClass: 2
Flags: W
HStem: -20 180<441.714 647.758> 733 199<446.898 801.282> 1109 21G<807 840.916> 1354 176<548.222 734.53>
VStem: 183 187<1001.91 1214.33> 910 193<370.96 628.564>
LayerCount: 2
Fore
SplineSet
564 -20 m 0,0,1
 531 -20 531 -20 493 -13 c 0,2,3
 326 18 326 18 214 151 c 0,4,5
 139 241 139 241 110 355 c 1,6,-1
 283 500 l 1,7,-1
 293 500 l 1,8,9
 293 356 293 356 379 259 c 0,10,11
 467 160 467 160 597 160 c 0,12,13
 707 160 707 160 815 259 c 0,14,15
 910 346 910 346 910 469 c 0,16,17
 910 591 910 591 837 662 c 128,-1,18
 764 733 764 733 612 733 c 0,19,20
 401 733 401 733 292 835.5 c 128,-1,21
 183 938 183 938 183 1085 c 24,22,23
 183 1139 183 1139 201 1176 c 0,24,25
 217 1209 217 1209 257 1242 c 2,26,-1
 557 1494 l 2,27,28
 600 1530 600 1530 634 1530 c 0,29,30
 676 1530 676 1530 705 1523 c 0,31,32
 822 1495 822 1495 895 1418 c 0,33,34
 961 1348 961 1348 988 1252 c 1,35,-1
 817 1109 l 1,36,-1
 807 1109 l 1,37,38
 807 1221 807 1221 762 1281 c 0,39,40
 707 1354 707 1354 601 1354 c 0,41,42
 510 1354 510 1354 440 1289 c 128,-1,43
 370 1224 370 1224 370 1121 c 0,44,45
 370 932 370 932 648 932 c 0,46,47
 864 932 864 932 990 797 c 0,48,49
 1103 675 1103 675 1103 500 c 0,50,51
 1103 446 1103 446 1085 409 c 0,52,53
 1070 377 1070 377 1029 343 c 2,54,-1
 641 16 l 2,55,56
 598 -20 598 -20 564 -20 c 0,0,1
EndSplineSet
Validated: 19457
EndChar

StartChar: T
Encoding: 84 84 55
Width: 1066
GlyphClass: 2
Flags: W
HStem: -40 21G<433 466.899> 1380 130<106 433 633 960>
VStem: 433 200<119 1380>
LayerCount: 2
Fore
SplineSet
433 -40 m 1,0,-1
 433 1380 l 1,1,-1
 5 1380 l 1,2,-1
 5 1390 l 1,3,-1
 106 1510 l 1,4,-1
 1061 1510 l 1,5,-1
 1061 1500 l 1,6,-1
 960 1380 l 1,7,-1
 633 1380 l 1,8,-1
 633 119 l 1,9,-1
 443 -40 l 1,10,-1
 433 -40 l 1,0,-1
EndSplineSet
Validated: 19457
EndChar

StartChar: U
Encoding: 85 85 56
Width: 1370
GlyphClass: 2
Flags: W
HStem: -40 21G<990 1023.9> -20 180<528.767 736.437> 1530 20G<346.101 380 1156.1 1190>
VStem: 180 200<317.28 1391> 990 200<119 237 322.406 1391>
LayerCount: 2
Fore
SplineSet
651 -20 m 0,0,1
 618 -20 618 -20 580 -13 c 0,2,3
 413 18 413 18 301 151 c 0,4,5
 180 296 180 296 180 500 c 2,6,-1
 180 1391 l 1,7,-1
 370 1550 l 1,8,-1
 380 1550 l 1,9,-1
 380 500 l 2,10,11
 380 356 380 356 466 259 c 0,12,13
 554 160 554 160 685 160 c 0,14,15
 817 160 817 160 902 259 c 0,16,17
 990 360 990 360 990 500 c 2,18,-1
 990 1391 l 1,19,-1
 1180 1550 l 1,20,-1
 1190 1550 l 1,21,-1
 1190 119 l 1,22,-1
 1000 -40 l 1,23,-1
 990 -40 l 1,24,-1
 990 237 l 1,25,-1
 728 16 l 2,26,27
 685 -20 685 -20 651 -20 c 0,0,1
EndSplineSet
Validated: 1
EndChar

StartChar: V
Encoding: 86 86 57
Width: 1370
GlyphClass: 2
Flags: W
HStem: -20 180<528.767 735.374> 1510 20G<209.16 311.5 1115 1250>
VStem: 180 200<321.216 1378.56> 990 200<373.525 1400>
LayerCount: 2
Fore
SplineSet
651 -20 m 0,0,1
 618 -20 618 -20 580 -13 c 0,2,3
 413 18 413 18 301 151 c 0,4,5
 180 295 180 295 180 500 c 2,6,-1
 180 1270 l 2,7,8
 180 1378 180 1378 84 1405 c 1,9,-1
 233 1530 l 1,10,-1
 243 1530 l 1,11,12
 380 1454 380 1454 380 1290 c 2,13,-1
 380 500 l 2,14,15
 380 356 380 356 466 259 c 0,16,17
 554 160 554 160 685 160 c 0,18,19
 817 160 817 160 902 259 c 0,20,21
 990 360 990 360 990 500 c 2,22,-1
 990 1242 l 2,23,24
 990 1454 990 1454 1240 1550 c 1,25,-1
 1250 1550 l 1,26,27
 1190 1404 1190 1404 1190 1242 c 2,28,-1
 1190 500 l 2,29,30
 1190 446 1190 446 1172 409 c 0,31,32
 1157 378 1157 378 1116 343 c 2,33,-1
 728 16 l 2,34,35
 685 -20 685 -20 651 -20 c 0,0,1
EndSplineSet
Validated: 1
EndChar

StartChar: W
Encoding: 87 87 58
Width: 2180
GlyphClass: 2
Flags: W
HStem: -20 180<528.767 737.124 1338.77 1545.37> 1510 40G<209.16 311.5 1156.1 1190 1925 2060>
VStem: 180 200<317.28 1378.56> 990 200<322.406 1391> 1800 200<373.525 1400>
CounterMasks: 1 38
LayerCount: 2
Fore
SplineSet
651 -20 m 0,0,1
 618 -20 618 -20 580 -13 c 0,2,3
 413 18 413 18 301 151 c 0,4,5
 180 296 180 296 180 500 c 2,6,-1
 180 1270 l 2,7,8
 180 1378 180 1378 84 1405 c 1,9,-1
 233 1530 l 1,10,-1
 243 1530 l 1,11,12
 380 1454 380 1454 380 1290 c 2,13,-1
 380 500 l 2,14,15
 380 356 380 356 466 259 c 0,16,17
 554 160 554 160 685 160 c 0,18,19
 817 160 817 160 902 259 c 0,20,21
 990 360 990 360 990 500 c 2,22,-1
 990 1391 l 1,23,-1
 1180 1550 l 1,24,-1
 1190 1550 l 1,25,-1
 1190 500 l 2,26,27
 1190 356 1190 356 1276 259 c 0,28,29
 1364 160 1364 160 1495 160 c 0,30,31
 1627 160 1627 160 1712 259 c 0,32,33
 1800 360 1800 360 1800 500 c 2,34,-1
 1800 1242 l 2,35,36
 1800 1454 1800 1454 2050 1550 c 1,37,-1
 2060 1550 l 1,38,39
 2000 1404 2000 1404 2000 1242 c 2,40,-1
 2000 500 l 2,41,42
 2000 446 2000 446 1982 409 c 0,43,44
 1967 378 1967 378 1926 343 c 2,45,-1
 1538 16 l 2,46,47
 1495 -20 1495 -20 1461 -20 c 0,48,49
 1428 -20 1428 -20 1390 -13 c 0,50,51
 1223 18 1223 18 1111 151 c 0,52,53
 1063 208 1063 208 1034 274 c 1,54,-1
 728 16 l 2,55,56
 685 -20 685 -20 651 -20 c 0,0,1
EndSplineSet
Validated: 1
EndChar

StartChar: X
Encoding: 88 88 59
Width: 1340
GlyphClass: 2
Flags: W
HStem: -40 21G<180 213.718 965 998.718> 665 180<518.303 821.697> 1530 20G<341.282 375 1126.28 1160>
VStem: 180 195<116 458.25 996.507 1394> 965 195<116 513.493 1051.78 1394>
LayerCount: 2
Fore
SplineSet
180 -40 m 1,0,-1
 180 329 l 2,1,2
 180 383 180 383 198 420 c 0,3,4
 213 452 213 452 254 486 c 2,5,-1
 499 692 l 1,6,7
 369 739 369 739 291 834 c 0,8,9
 180 968 180 968 180 1189 c 2,10,-1
 180 1394 l 1,11,-1
 365 1550 l 1,12,-1
 375 1550 l 1,13,-1
 375 1185 l 2,14,15
 375 1035 375 1035 456 944 c 0,16,17
 544 845 544 845 670 845 c 0,18,19
 797 845 797 845 882 944 c 0,20,21
 965 1039 965 1039 965 1185 c 2,22,-1
 965 1394 l 1,23,-1
 1150 1550 l 1,24,-1
 1160 1550 l 1,25,-1
 1160 1181 l 2,26,27
 1160 1129 1160 1129 1142 1090 c 0,28,29
 1127 1059 1127 1059 1086 1024 c 2,30,-1
 841 818 l 1,31,32
 963 777 963 777 1047 676 c 0,33,34
 1160 541 1160 541 1160 321 c 2,35,-1
 1160 116 l 1,36,-1
 975 -40 l 1,37,-1
 965 -40 l 1,38,-1
 965 325 l 2,39,40
 965 475 965 475 884 566 c 0,41,42
 796 665 796 665 670 665 c 0,43,44
 543 665 543 665 458 566 c 0,45,46
 375 471 375 471 375 325 c 2,47,-1
 375 116 l 1,48,-1
 190 -40 l 1,49,-1
 180 -40 l 1,0,-1
EndSplineSet
Validated: 1
EndChar

StartChar: Y
Encoding: 89 89 60
Width: 1370
GlyphClass: 2
Flags: W
HStem: -40 21G<590 623.841> 1530 20G<346.25 380 1156.25 1190>
VStem: 180 200<681.216 1390> 590 190<111 345 535 699> 990 200<733.525 1390>
CounterMasks: 1 38
LayerCount: 2
Fore
SplineSet
590 -40 m 1,0,-1
 590 345 l 1,1,2
 585 346 585 346 580 347 c 0,3,4
 413 378 413 378 301 511 c 0,5,6
 180 655 180 655 180 860 c 2,7,-1
 180 1390 l 1,8,-1
 370 1550 l 1,9,-1
 380 1550 l 1,10,-1
 380 860 l 2,11,12
 380 716 380 716 466 619 c 0,13,14
 520 558 520 558 590 535 c 1,15,-1
 590 699 l 1,16,-1
 770 850 l 1,17,-1
 780 850 l 1,18,-1
 780 535 l 1,19,20
 850 558 850 558 902 619 c 0,21,22
 990 720 990 720 990 860 c 2,23,-1
 990 1390 l 1,24,-1
 1180 1550 l 1,25,-1
 1190 1550 l 1,26,-1
 1190 860 l 2,27,28
 1190 806 1190 806 1172 769 c 0,29,30
 1157 738 1157 738 1116 703 c 2,31,-1
 780 420 l 1,32,-1
 780 111 l 1,33,-1
 600 -40 l 1,34,-1
 590 -40 l 1,0,-1
EndSplineSet
Validated: 1
EndChar

StartChar: Z
Encoding: 90 90 61
Width: 1217
GlyphClass: 2
Flags: W
HStem: 0 130<360 1006> 522 130<251 370 637 986> 1380 130<301 822>
DStem2: 100 10 360 130 0.468747 0.883333<227.874 578.828 818.817 1548.6>
LayerCount: 2
Fore
SplineSet
100 0 m 1,0,-1
 100 10 l 1,1,-1
 370 522 l 1,2,-1
 150 522 l 1,3,-1
 150 532 l 1,4,-1
 251 652 l 1,5,-1
 438 652 l 1,6,-1
 822 1380 l 1,7,-1
 200 1380 l 1,8,-1
 200 1390 l 1,9,-1
 301 1510 l 1,10,-1
 1087 1510 l 1,11,-1
 1087 1500 l 1,12,-1
 637 652 l 1,13,-1
 1087 652 l 1,14,-1
 1087 642 l 1,15,-1
 986 522 l 1,16,-1
 568 522 l 1,17,-1
 360 130 l 1,18,-1
 1107 130 l 1,19,-1
 1107 120 l 1,20,-1
 1006 0 l 1,21,-1
 100 0 l 1,0,-1
EndSplineSet
Validated: 1
EndChar

StartChar: bracketleft
Encoding: 91 91 62
Width: 824
GlyphClass: 2
Flags: W
HStem: -240 130<380 692> 1620 130<380 692>
VStem: 180 200<-110 1590>
LayerCount: 2
Fore
SplineSet
180 -240 m 1,0,-1
 180 1590 l 1,1,-1
 370 1750 l 1,2,-1
 794 1750 l 1,3,-1
 794 1740 l 1,4,-1
 692 1620 l 1,5,-1
 380 1620 l 1,6,-1
 380 -110 l 1,7,-1
 794 -110 l 1,8,-1
 794 -120 l 1,9,-1
 692 -240 l 1,10,-1
 180 -240 l 1,0,-1
EndSplineSet
Validated: 1
EndChar

StartChar: backslash
Encoding: 92 92 63
Width: 1035
GlyphClass: 2
Flags: W
DStem2: 144 1750 10 1646 0.422438 -0.906392<37.658 2080.72>
LayerCount: 2
Fore
SplineSet
134 1750 m 1,0,-1
 144 1750 l 1,1,-1
 1025 -135 l 1,2,-1
 899 -240 l 1,3,-1
 889 -240 l 1,4,-1
 10 1646 l 1,5,-1
 134 1750 l 1,0,-1
EndSplineSet
Validated: 1
EndChar

StartChar: bracketright
Encoding: 93 93 64
Width: 824
GlyphClass: 2
Flags: W
HStem: -240 130<132 444> 1620 130<132 444>
VStem: 444 200<-80 1620>
LayerCount: 2
Fore
SplineSet
644 1750 m 1,0,-1
 644 -80 l 1,1,-1
 454 -240 l 1,2,-1
 30 -240 l 1,3,-1
 30 -230 l 1,4,-1
 132 -110 l 1,5,-1
 444 -110 l 1,6,-1
 444 1620 l 1,7,-1
 30 1620 l 1,8,-1
 30 1630 l 1,9,-1
 132 1750 l 1,10,-1
 644 1750 l 1,0,-1
EndSplineSet
Validated: 1
EndChar

StartChar: asciicircum
Encoding: 94 94 65
Width: 777
GlyphClass: 2
Flags: W
HStem: 1140 410
DStem2: 30 1208 120 1140 0.753529 0.657415<23.1133 380.305> 432 1550 389 1375 0.705985 -0.708227<93.5823 425.216>
LayerCount: 2
Fore
SplineSet
422 1550 m 1,0,-1
 432 1550 l 1,1,-1
 747 1234 l 1,2,-1
 633 1140 l 1,3,-1
 623 1140 l 1,4,-1
 389 1375 l 1,5,-1
 120 1140 l 1,6,-1
 110 1140 l 1,7,-1
 30 1208 l 1,8,-1
 422 1550 l 1,0,-1
EndSplineSet
Validated: 1
EndChar

StartChar: underscore
Encoding: 95 95 66
Width: 1174
GlyphClass: 2
Flags: W
HStem: -410 151<249 926>
LayerCount: 2
Fore
SplineSet
130 -410 m 1,0,-1
 130 -400 l 1,1,-1
 249 -259 l 1,2,-1
 1044 -259 l 1,3,-1
 1044 -269 l 1,4,-1
 926 -410 l 1,5,-1
 130 -410 l 1,0,-1
EndSplineSet
Validated: 1
EndChar

StartChar: grave
Encoding: 96 96 67
Width: 366
GlyphClass: 2
Flags: W
HStem: 1211 339
VStem: 243 93<1268.91 1307.71>
LayerCount: 2
Fore
SplineSet
169 1550 m 1,0,1
 314 1455 314 1455 336 1281 c 1,2,-1
 253 1211 l 1,3,-1
 243 1211 l 1,4,5
 181 1396 181 1396 30 1442 c 1,6,-1
 159 1550 l 1,7,-1
 169 1550 l 1,0,1
EndSplineSet
Validated: 1
EndChar

StartChar: a
Encoding: 97 97 68
Width: 1020
GlyphClass: 2
Flags: W
HStem: -40 21G<710 743.704> -20 148<350.732 539.039> 612 149<430.509 619.008> 969 151<430.697 619.939>
VStem: 80 169<229.776 436.639> 710 170<95 167 211.406 525.511 673 880.844>
LayerCount: 2
Fore
SplineSet
720 -40 m 1,0,-1
 710 -40 l 1,1,-1
 710 167 l 1,2,-1
 530 16 l 2,3,4
 487 -20 487 -20 453 -20 c 0,5,6
 411 -20 411 -20 382 -13 c 0,7,8
 266 15 266 15 192 92 c 0,9,10
 80 208 80 208 80 328 c 0,11,12
 80 382 80 382 98 419 c 0,13,14
 113 450 113 450 154 485 c 2,15,-1
 440 725 l 2,16,17
 483 761 483 761 517 761 c 0,18,19
 554 761 554 761 588 754 c 0,20,21
 657 740 657 740 719 673 c 1,22,-1
 719 689 l 2,23,24
 719 831 719 831 650 899 c 0,25,26
 578 969 578 969 484 969 c 0,27,28
 398 969 398 969 325 893 c 1,29,-1
 278 948 l 1,30,-1
 440 1084 l 2,31,32
 483 1120 483 1120 517 1120 c 0,33,34
 559 1120 559 1120 588 1113 c 0,35,36
 705 1085 705 1085 778 1008 c 0,37,38
 880 899 880 899 880 700 c 2,39,-1
 880 95 l 1,40,-1
 720 -40 l 1,0,-1
249 370 m 128,-1,42
 249 268 249 268 319 199 c 0,43,44
 390 128 390 128 486 128 c 0,45,46
 586 128 586 128 653 198 c 0,47,48
 721 268 721 268 721 370 c 128,-1,49
 721 472 721 472 651 541 c 0,50,51
 578 612 578 612 484 612 c 0,52,53
 383 612 383 612 317 542 c 0,54,41
 249 472 249 472 249 370 c 128,-1,42
EndSplineSet
Validated: 1
EndChar

StartChar: b
Encoding: 98 98 69
Width: 1100
GlyphClass: 2
Flags: W
HStem: -20 160<443.854 629.515> 960 160<520.735 706.475> 1530 20G<316.296 350>
VStem: 180 170<237.64 869.196 933 1415> 800 180<284.983 866.105>
LayerCount: 2
Fore
SplineSet
576 140 m 0,0,1
 672 140 672 140 735 206 c 0,2,3
 800 273 800 273 800 400 c 2,4,-1
 800 700 l 2,5,6
 800 827 800 827 733 893 c 0,7,8
 664 960 664 960 574 960 c 0,9,10
 478 960 478 960 415 894 c 0,11,12
 350 827 350 827 350 700 c 2,13,-1
 350 400 l 2,14,15
 350 273 350 273 417 207 c 0,16,17
 486 140 486 140 576 140 c 0,0,1
543 -20 m 0,18,19
 501 -20 501 -20 472 -13 c 0,20,21
 358 13 358 13 282 92 c 0,22,23
 180 200 180 200 180 400 c 2,24,-1
 180 1415 l 1,25,-1
 340 1550 l 1,26,-1
 350 1550 l 1,27,-1
 350 933 l 1,28,-1
 530 1084 l 2,29,30
 573 1120 573 1120 607 1120 c 0,31,32
 649 1120 649 1120 678 1113 c 0,33,34
 795 1085 795 1085 868 1008 c 0,35,36
 980 889 980 889 980 700 c 2,37,-1
 980 413 l 2,38,39
 980 359 980 359 962 322 c 0,40,41
 947 291 947 291 906 256 c 2,42,-1
 620 16 l 2,43,44
 577 -20 577 -20 543 -20 c 0,18,19
EndSplineSet
Validated: 1
EndChar

StartChar: c
Encoding: 99 99 70
Width: 1030
GlyphClass: 2
Flags: W
HStem: -20 160<393.854 578.885> 960 160<470.485 656.475>
VStem: 120 180<233.895 815.017>
DStem2: 930 413 570 16 0.766021 0.642815<-464.592 -37.6888>
LayerCount: 2
Fore
SplineSet
493 -20 m 0,0,1
 451 -20 451 -20 422 -13 c 0,2,3
 308 13 308 13 232 92 c 0,4,5
 120 211 120 211 120 400 c 2,6,-1
 120 687 l 2,7,8
 120 741 120 741 138 778 c 0,9,10
 153 810 153 810 194 844 c 2,11,-1
 480 1084 l 2,12,13
 523 1120 523 1120 557 1120 c 0,14,15
 599 1120 599 1120 628 1113 c 0,16,17
 745 1085 745 1085 818 1008 c 0,18,19
 889 932 889 932 915 830 c 1,20,-1
 760 700 l 1,21,-1
 750 700 l 1,22,23
 750 827 750 827 683 893 c 0,24,25
 614 960 614 960 524 960 c 0,26,27
 428 960 428 960 365 894 c 0,28,29
 300 827 300 827 300 700 c 2,30,-1
 300 400 l 2,31,32
 300 273 300 273 367 207 c 0,33,34
 436 140 436 140 526 140 c 0,35,36
 607 140 607 140 685 206 c 10,37,-1
 930 413 l 17,38,39
 930 359 930 359 912 322 c 0,40,41
 897 290 897 290 856 256 c 2,42,-1
 570 16 l 2,43,44
 527 -20 527 -20 493 -20 c 0,0,1
EndSplineSet
Validated: 19457
EndChar

StartChar: d
Encoding: 100 100 71
Width: 1100
GlyphClass: 2
Flags: W
HStem: -40 21G<750 783.704> -20 160<393.854 579.265> 960 160<470.485 656.915> 1530 20G<886.296 920>
VStem: 120 180<233.895 815.017> 750 170<95 167 230.804 866.105 1043 1415>
LayerCount: 2
Fore
SplineSet
526 140 m 0,0,1
 622 140 622 140 685 206 c 0,2,3
 750 273 750 273 750 400 c 2,4,-1
 750 700 l 2,5,6
 750 827 750 827 683 893 c 0,7,8
 614 960 614 960 524 960 c 0,9,10
 428 960 428 960 365 894 c 0,11,12
 300 827 300 827 300 700 c 2,13,-1
 300 400 l 2,14,15
 300 273 300 273 367 207 c 0,16,17
 436 140 436 140 526 140 c 0,0,1
760 -40 m 1,18,-1
 750 -40 l 1,19,-1
 750 167 l 1,20,-1
 570 16 l 2,21,22
 527 -20 527 -20 493 -20 c 0,23,24
 451 -20 451 -20 422 -13 c 0,25,26
 308 13 308 13 232 92 c 0,27,28
 120 211 120 211 120 400 c 2,29,-1
 120 687 l 2,30,31
 120 741 120 741 138 778 c 0,32,33
 153 809 153 809 194 844 c 2,34,-1
 480 1084 l 2,35,36
 523 1120 523 1120 557 1120 c 0,37,38
 594 1120 594 1120 627 1112 c 0,39,40
 693 1096 693 1096 750 1043 c 1,41,-1
 750 1415 l 1,42,-1
 910 1550 l 1,43,-1
 920 1550 l 1,44,-1
 920 95 l 1,45,-1
 760 -40 l 1,18,-1
EndSplineSet
Validated: 19457
EndChar

StartChar: e
Encoding: 101 101 72
Width: 1030
GlyphClass: 2
Flags: W
HStem: -20 160<393.787 578.885> 960 160<470.485 656.475>
VStem: 120 180<370.469 815.017>
DStem2: 301 370 324 270 0.765504 0.643431<0 609.531> 930 413 570 16 0.766021 0.642815<-464.592 -37.6888>
LayerCount: 2
Fore
SplineSet
493 -20 m 0,0,1
 451 -20 451 -20 422 -13 c 0,2,3
 306 15 306 15 232 92 c 0,4,5
 120 208 120 208 120 400 c 2,6,-1
 120 687 l 2,7,8
 120 741 120 741 138 778 c 0,9,10
 153 810 153 810 194 844 c 2,11,-1
 480 1084 l 2,12,13
 523 1120 523 1120 557 1120 c 0,14,15
 599 1120 599 1120 628 1113 c 0,16,17
 745 1085 745 1085 818 1008 c 0,18,19
 909 912 909 912 926 776 c 1,20,-1
 324 270 l 1,21,22
 340 233 340 233 367 207 c 0,23,24
 437 140 437 140 526 140 c 0,25,26
 607 140 607 140 685 206 c 2,27,-1
 930 413 l 1,28,29
 930 359 930 359 912 322 c 0,30,31
 897 290 897 290 856 256 c 2,32,-1
 570 16 l 2,33,34
 527 -20 527 -20 493 -20 c 0,0,1
301 370 m 1,35,36
 749 747 l 1,37,38
 739 838 739 838 683 893 c 0,39,40
 614 960 614 960 524 960 c 0,41,42
 428 960 428 960 365 894 c 0,43,44
 300 827 300 827 300 700 c 2,45,-1
 300 401 l 2,46,47
 300 385 300 385 301 370 c 1,35,36
EndSplineSet
Validated: 19457
EndChar

StartChar: f
Encoding: 102 102 73
Width: 903
GlyphClass: 2
Flags: W
HStem: -40 21G<210 243.704> 790 110<104 210 380 648> 1370 160<550.642 735.443>
VStem: 210 170<95 790 900 1218.95>
LayerCount: 2
Fore
SplineSet
210 -40 m 1,0,-1
 210 790 l 1,1,-1
 20 790 l 1,2,-1
 20 800 l 1,3,-1
 104 900 l 1,4,-1
 210 900 l 1,5,-1
 210 1093 l 2,6,7
 210 1150 210 1150 228 1184 c 0,8,9
 246 1216 246 1216 284 1250 c 2,10,-1
 560 1494 l 2,11,12
 601 1530 601 1530 637 1530 c 0,13,14
 679 1530 679 1530 708 1523 c 0,15,16
 823 1497 823 1497 898 1419 c 1,17,-1
 761 1304 l 1,18,19
 693 1370 693 1370 604 1370 c 0,20,21
 508 1370 508 1370 445 1304 c 0,22,23
 380 1237 380 1237 380 1110 c 2,24,-1
 380 900 l 1,25,-1
 732 900 l 1,26,-1
 732 890 l 1,27,-1
 648 790 l 1,28,-1
 380 790 l 1,29,-1
 380 95 l 1,30,-1
 220 -40 l 1,31,-1
 210 -40 l 1,0,-1
EndSplineSet
Validated: 19457
EndChar

StartChar: g
Encoding: 103 103 74
Width: 1050
GlyphClass: 2
Flags: W
HStem: -430 160<394.557 579.515> -20 160<393.854 579.265> 960 160<470.485 656.475>
VStem: 120 180<233.859 815.017> 750 180<-125.017 166 230.774 866.105>
LayerCount: 2
Fore
SplineSet
526 140 m 0,0,1
 622 140 622 140 685 206 c 0,2,3
 750 273 750 273 750 399 c 2,4,-1
 750 700 l 2,5,6
 750 827 750 827 683 893 c 0,7,8
 614 960 614 960 524 960 c 0,9,10
 428 960 428 960 365 894 c 0,11,12
 300 827 300 827 300 700 c 2,13,-1
 300 399 l 2,14,15
 300 273 300 273 367 207 c 0,16,17
 436 140 436 140 526 140 c 0,0,1
493 -20 m 0,18,19
 451 -20 451 -20 422 -13 c 0,20,21
 308 13 308 13 232 92 c 0,22,23
 120 211 120 211 120 400 c 2,24,-1
 120 687 l 2,25,26
 120 741 120 741 138 778 c 0,27,28
 153 809 153 809 194 844 c 2,29,-1
 480 1084 l 2,30,31
 523 1120 523 1120 557 1120 c 0,32,33
 599 1120 599 1120 628 1113 c 0,34,35
 745 1085 745 1085 818 1008 c 0,36,37
 930 889 930 889 930 700 c 2,38,-1
 930 3 l 2,39,40
 930 -52 930 -52 912 -88 c 0,41,42
 896 -121 896 -121 856 -154 c 2,43,-1
 570 -394 l 2,44,45
 527 -430 527 -430 493 -430 c 0,46,47
 451 -430 451 -430 422 -423 c 0,48,49
 307 -397 307 -397 232 -319 c 1,50,-1
 369 -204 l 1,51,52
 437 -270 437 -270 526 -270 c 0,53,54
 622 -270 622 -270 685 -204 c 0,55,56
 750 -137 750 -137 750 -10 c 2,57,-1
 750 166 l 1,58,-1
 570 16 l 2,59,60
 527 -20 527 -20 493 -20 c 0,18,19
EndSplineSet
Validated: 19457
EndChar

StartChar: h
Encoding: 104 104 75
Width: 1120
GlyphClass: 2
Flags: W
HStem: -40 21G<180 213.704 800 833.776> 960 160<520.735 706.146> 1530 20G<316.296 350>
VStem: 180 170<95 869.196 933 1415> 800 180<103 866.105>
LayerCount: 2
Fore
SplineSet
180 -40 m 1,0,-1
 180 1415 l 1,1,-1
 340 1550 l 1,2,-1
 350 1550 l 1,3,-1
 350 933 l 1,4,-1
 530 1084 l 2,5,6
 573 1120 573 1120 607 1120 c 0,7,8
 649 1120 649 1120 678 1113 c 0,9,10
 792 1088 792 1088 868 1008 c 0,11,12
 980 889 980 889 980 700 c 2,13,-1
 980 103 l 1,14,-1
 810 -40 l 1,15,-1
 800 -40 l 1,16,-1
 800 700 l 2,17,18
 800 827 800 827 733 893 c 0,19,20
 664 960 664 960 574 960 c 0,21,22
 478 960 478 960 415 894 c 0,23,24
 350 827 350 827 350 700 c 2,25,-1
 350 95 l 1,26,-1
 190 -40 l 1,27,-1
 180 -40 l 1,0,-1
EndSplineSet
Validated: 1
EndChar

StartChar: i
Encoding: 105 105 76
Width: 540
GlyphClass: 2
Flags: W
HStem: -40 21G<185 218.704> 1120 20G<321.296 355> 1278 252<210.881 329.536>
VStem: 146 248<1340.48 1467.52> 185 170<95 1005>
LayerCount: 2
Fore
SplineSet
282 1530 m 0,0,1
 295 1530 295 1530 311 1524 c 0,2,3
 344 1511 344 1511 365 1483 c 0,4,5
 394 1445 394 1445 394 1406 c 0,6,7
 394 1377 394 1377 371 1358 c 2,8,-1
 293 1292 l 2,9,10
 276 1278 276 1278 258 1278 c 0,11,12
 245 1278 245 1278 229 1284 c 0,13,14
 197 1296 197 1296 175 1325 c 0,15,16
 146 1363 146 1363 146 1402 c 0,17,18
 146 1431 146 1431 169 1450 c 2,19,-1
 247 1516 l 2,20,21
 264 1530 264 1530 282 1530 c 0,0,1
185 -40 m 1,22,-1
 185 1005 l 1,23,-1
 345 1140 l 1,24,-1
 355 1140 l 1,25,-1
 355 95 l 1,26,-1
 195 -40 l 1,27,-1
 185 -40 l 1,22,-1
EndSplineSet
Validated: 1
EndChar

StartChar: j
Encoding: 106 106 77
Width: 540
GlyphClass: 2
Flags: W
HStem: -450 21G<115 240> 1120 20G<321.296 355> 1278 252<210.881 329.536>
VStem: 146 248<1340.48 1467.52> 185 170<-305.297 1005>
LayerCount: 2
Fore
SplineSet
282 1530 m 0,0,1
 295 1530 295 1530 311 1524 c 0,2,3
 344 1511 344 1511 365 1483 c 0,4,5
 394 1445 394 1445 394 1406 c 0,6,7
 394 1377 394 1377 371 1358 c 2,8,-1
 293 1292 l 2,9,10
 276 1278 276 1278 258 1278 c 0,11,12
 245 1278 245 1278 229 1284 c 0,13,14
 197 1296 197 1296 175 1325 c 0,15,16
 146 1363 146 1363 146 1402 c 0,17,18
 146 1431 146 1431 169 1450 c 2,19,-1
 247 1516 l 2,20,21
 264 1530 264 1530 282 1530 c 0,0,1
115 -450 m 1,22,23
 185 -288 185 -288 185 -142 c 2,24,-1
 185 1005 l 1,25,-1
 345 1140 l 1,26,-1
 355 1140 l 1,27,-1
 355 -142 l 2,28,29
 355 -354 355 -354 125 -450 c 1,30,-1
 115 -450 l 1,22,23
EndSplineSet
Validated: 1
EndChar

StartChar: k
Encoding: 107 107 78
Width: 1120
GlyphClass: 2
Flags: W
HStem: -40 21G<180 213.704 800 833.776> 1120 20G<866.211 916.923> 1530 20G<316.296 350>
VStem: 180 170<95 622.766 686 1415> 800 180<103 618.801>
DStem2: 890 1140 700 861 0.765426 0.643524<-324.974 0>
LayerCount: 2
Fore
SplineSet
180 -40 m 1,0,-1
 180 1415 l 1,1,-1
 340 1550 l 1,2,-1
 350 1550 l 1,3,-1
 350 686 l 1,4,-1
 890 1140 l 1,5,-1
 900 1140 l 1,6,-1
 955 1075 l 1,7,-1
 700 861 l 1,8,9
 800 834 800 834 868 761 c 0,10,11
 980 642 980 642 980 453 c 2,12,-1
 980 103 l 1,13,-1
 810 -40 l 1,14,-1
 800 -40 l 1,15,-1
 800 453 l 2,16,17
 800 579 800 579 733 646 c 0,18,19
 664 713 664 713 574 713 c 0,20,21
 480 713 480 713 415 647 c 0,22,23
 350 582 350 582 350 453 c 2,24,-1
 350 95 l 1,25,-1
 190 -40 l 1,26,-1
 180 -40 l 1,0,-1
EndSplineSet
Validated: 1
EndChar

StartChar: l
Encoding: 108 108 79
Width: 530
GlyphClass: 2
Flags: W
HStem: -40 21G<180 213.704> 1530 20G<316.296 350>
VStem: 180 170<95 1415>
LayerCount: 2
Fore
SplineSet
180 -40 m 1,0,-1
 180 1415 l 1,1,-1
 340 1550 l 1,2,-1
 350 1550 l 1,3,-1
 350 95 l 1,4,-1
 190 -40 l 1,5,-1
 180 -40 l 1,0,-1
EndSplineSet
Validated: 1
EndChar

StartChar: m
Encoding: 109 109 80
Width: 1750
GlyphClass: 2
Flags: W
HStem: -40 21G<180 213.704 800 833.776 1430 1463.78> 960 160<520.735 706.146 1149.8 1336.15> 1120 20G<316.296 350>
VStem: 180 170<95 869.196 934 1005> 800 180<103 866.105> 1430 180<103 866.105>
LayerCount: 2
Fore
SplineSet
180 -40 m 1,0,-1
 180 1005 l 1,1,-1
 340 1140 l 1,2,-1
 350 1140 l 1,3,-1
 350 934 l 1,4,-1
 530 1084 l 2,5,6
 573 1120 573 1120 607 1120 c 0,7,8
 649 1120 649 1120 678 1113 c 0,9,10
 792 1088 792 1088 868 1008 c 0,11,12
 913 960 913 960 940 900 c 1,13,-1
 1160 1084 l 2,14,15
 1203 1120 1203 1120 1237 1120 c 0,16,17
 1279 1120 1279 1120 1308 1113 c 0,18,19
 1422 1088 1422 1088 1498 1008 c 0,20,21
 1610 889 1610 889 1610 700 c 2,22,-1
 1610 103 l 1,23,-1
 1440 -40 l 1,24,-1
 1430 -40 l 1,25,-1
 1430 700 l 2,26,27
 1430 827 1430 827 1363 893 c 0,28,29
 1294 960 1294 960 1204 960 c 0,30,31
 1108 960 1108 960 1045 894 c 0,32,33
 980 827 980 827 980 700 c 2,34,-1
 980 103 l 1,35,-1
 810 -40 l 1,36,-1
 800 -40 l 1,37,-1
 800 700 l 2,38,39
 800 827 800 827 733 893 c 0,40,41
 664 960 664 960 574 960 c 0,42,43
 478 960 478 960 415 894 c 0,44,45
 350 827 350 827 350 700 c 2,46,-1
 350 95 l 1,47,-1
 190 -40 l 1,48,-1
 180 -40 l 1,0,-1
EndSplineSet
Validated: 1
EndChar

StartChar: n
Encoding: 110 110 81
Width: 1120
GlyphClass: 2
Flags: W
HStem: -40 21G<180 213.704 800 833.776> 960 160<520.735 706.146> 1120 20G<316.296 350>
VStem: 180 170<95 869.196 933 1005> 800 180<103 866.105>
LayerCount: 2
Fore
SplineSet
180 -40 m 1,0,-1
 180 1005 l 1,1,-1
 340 1140 l 1,2,-1
 350 1140 l 1,3,-1
 350 933 l 1,4,-1
 530 1084 l 2,5,6
 573 1120 573 1120 607 1120 c 0,7,8
 649 1120 649 1120 678 1113 c 0,9,10
 792 1088 792 1088 868 1008 c 0,11,12
 980 889 980 889 980 700 c 2,13,-1
 980 103 l 1,14,-1
 810 -40 l 1,15,-1
 800 -40 l 1,16,-1
 800 700 l 2,17,18
 800 827 800 827 733 893 c 0,19,20
 664 960 664 960 574 960 c 0,21,22
 478 960 478 960 415 894 c 0,23,24
 350 827 350 827 350 700 c 2,25,-1
 350 95 l 1,26,-1
 190 -40 l 1,27,-1
 180 -40 l 1,0,-1
EndSplineSet
Validated: 1
EndChar

StartChar: o
Encoding: 111 111 82
Width: 1050
GlyphClass: 2
Flags: W
HStem: -20 160<393.854 579.515> 959 161<470.485 656.475>
VStem: 120 180<233.895 814.017> 750 180<284.983 861.807>
LayerCount: 2
Fore
SplineSet
493 -20 m 0,0,1
 451 -20 451 -20 422 -13 c 0,2,3
 308 13 308 13 232 92 c 0,4,5
 120 211 120 211 120 400 c 2,6,-1
 120 687 l 2,7,8
 120 741 120 741 138 778 c 0,9,10
 153 810 153 810 194 844 c 2,11,-1
 480 1084 l 2,12,13
 523 1120 523 1120 557 1120 c 0,14,15
 599 1120 599 1120 628 1113 c 0,16,17
 745 1085 745 1085 818 1008 c 0,18,19
 930 889 930 889 930 700 c 2,20,-1
 930 413 l 2,21,22
 930 359 930 359 912 322 c 0,23,24
 897 290 897 290 856 256 c 2,25,-1
 570 16 l 2,26,27
 527 -20 527 -20 493 -20 c 0,0,1
526 140 m 0,28,29
 622 140 622 140 685 206 c 0,30,31
 750 273 750 273 750 400 c 2,32,-1
 750 699 l 2,33,34
 750 826 750 826 683 892 c 0,35,36
 614 959 614 959 524 959 c 0,37,38
 428 959 428 959 365 893 c 0,39,40
 300 826 300 826 300 699 c 2,41,-1
 300 400 l 2,42,43
 300 273 300 273 367 207 c 0,44,45
 436 140 436 140 526 140 c 0,28,29
EndSplineSet
Validated: 19457
EndChar

StartChar: p
Encoding: 112 112 83
Width: 1100
GlyphClass: 2
Flags: W
HStem: -450 21G<180 213.704> -20 160<443.085 629.515> 960 160<520.735 706.146> 1120 20G<316.296 350>
VStem: 180 170<-315 57 233.895 869.196 933 1005> 800 180<284.983 866.105>
LayerCount: 2
Fore
SplineSet
574 960 m 0,0,1
 478 960 478 960 415 894 c 0,2,3
 350 827 350 827 350 700 c 2,4,-1
 350 400 l 2,5,6
 350 273 350 273 417 207 c 0,7,8
 486 140 486 140 576 140 c 0,9,10
 672 140 672 140 735 206 c 0,11,12
 800 273 800 273 800 400 c 2,13,-1
 800 700 l 2,14,15
 800 827 800 827 733 893 c 0,16,17
 664 960 664 960 574 960 c 0,0,1
543 -20 m 0,18,19
 506 -20 506 -20 473 -12 c 0,20,21
 407 4 407 4 350 57 c 1,22,-1
 350 -315 l 1,23,-1
 190 -450 l 1,24,-1
 180 -450 l 1,25,-1
 180 1005 l 1,26,-1
 340 1140 l 1,27,-1
 350 1140 l 1,28,-1
 350 933 l 1,29,-1
 530 1084 l 2,30,31
 573 1120 573 1120 607 1120 c 0,32,33
 649 1120 649 1120 678 1113 c 0,34,35
 792 1087 792 1087 868 1008 c 0,36,37
 980 889 980 889 980 700 c 2,38,-1
 980 413 l 2,39,40
 980 359 980 359 962 322 c 0,41,42
 947 291 947 291 906 256 c 2,43,-1
 620 16 l 2,44,45
 577 -20 577 -20 543 -20 c 0,18,19
EndSplineSet
Validated: 1
EndChar

StartChar: q
Encoding: 113 113 84
Width: 1100
GlyphClass: 2
Flags: W
HStem: -450 21G<750 783.704> -20 160<393.525 579.265> 960 160<470.485 656.146>
VStem: 120 180<233.895 815.017> 750 170<-315 167 230.804 862.36>
LayerCount: 2
Fore
SplineSet
524 960 m 0,0,1
 428 960 428 960 365 894 c 0,2,3
 300 827 300 827 300 700 c 2,4,-1
 300 400 l 2,5,6
 300 273 300 273 367 207 c 0,7,8
 436 140 436 140 526 140 c 0,9,10
 622 140 622 140 685 206 c 0,11,12
 750 273 750 273 750 400 c 2,13,-1
 750 700 l 2,14,15
 750 827 750 827 683 893 c 0,16,17
 614 960 614 960 524 960 c 0,0,1
493 -20 m 0,18,19
 451 -20 451 -20 422 -13 c 0,20,21
 305 15 305 15 232 92 c 0,22,23
 120 211 120 211 120 400 c 2,24,-1
 120 687 l 2,25,26
 120 741 120 741 138 778 c 0,27,28
 153 809 153 809 194 844 c 2,29,-1
 480 1084 l 2,30,31
 523 1120 523 1120 557 1120 c 0,32,33
 599 1120 599 1120 628 1113 c 0,34,35
 742 1087 742 1087 818 1008 c 0,36,37
 920 900 920 900 920 700 c 2,38,-1
 920 -315 l 1,39,-1
 760 -450 l 1,40,-1
 750 -450 l 1,41,-1
 750 167 l 1,42,-1
 570 16 l 2,43,44
 527 -20 527 -20 493 -20 c 0,18,19
EndSplineSet
Validated: 19457
EndChar

StartChar: r
Encoding: 114 114 85
Width: 970
GlyphClass: 2
Flags: W
HStem: -40 21G<180 213.704> 960 160<520.735 706.146> 1120 20G<316.296 350>
VStem: 180 170<95 869.196 933 1005>
LayerCount: 2
Fore
SplineSet
180 -40 m 1,0,-1
 180 1005 l 1,1,-1
 340 1140 l 1,2,-1
 350 1140 l 1,3,-1
 350 933 l 1,4,-1
 530 1084 l 2,5,6
 573 1120 573 1120 607 1120 c 0,7,8
 649 1120 649 1120 678 1113 c 0,9,10
 792 1088 792 1088 868 1008 c 0,11,12
 939 933 939 933 965 830 c 1,13,-1
 810 700 l 1,14,-1
 800 700 l 1,15,16
 800 827 800 827 733 893 c 0,17,18
 664 960 664 960 574 960 c 0,19,20
 478 960 478 960 415 894 c 0,21,22
 350 827 350 827 350 700 c 2,23,-1
 350 95 l 1,24,-1
 190 -40 l 1,25,-1
 180 -40 l 1,0,-1
EndSplineSet
Validated: 1
EndChar

StartChar: s
Encoding: 115 115 86
Width: 990
GlyphClass: 2
Flags: W
HStem: -20 160<358.307 544.515> 519 169<347.327 669.5> 970 150<429.833 601.47>
VStem: 142 164<726.254 870.741> 720 170<278.097 471.745>
LayerCount: 2
Fore
SplineSet
458 -20 m 0,0,1
 416 -20 416 -20 387 -13 c 0,2,3
 268 16 268 16 197 92 c 128,-1,4
 126 168 126 168 100 270 c 1,5,-1
 255 400 l 1,6,-1
 265 400 l 1,7,8
 265 273 265 273 332 207 c 0,9,10
 401 140 401 140 491 140 c 0,11,12
 587 140 587 140 650 206 c 0,13,14
 720 278 720 278 720 360 c 0,15,16
 720 432 720 432 675 473 c 0,17,18
 624 519 624 519 482 519 c 0,19,20
 324 519 324 519 232 594 c 0,21,22
 142 667 142 667 142 762 c 0,23,24
 142 802 142 802 159 832 c 0,25,26
 177 865 177 865 207 890 c 2,27,-1
 438 1084 l 2,28,29
 481 1120 481 1120 515 1120 c 0,30,31
 557 1120 557 1120 586 1113 c 0,32,33
 662 1095 662 1095 720.5 1040.5 c 128,-1,34
 779 986 779 986 810 909 c 1,35,-1
 668 790 l 1,36,-1
 658 790 l 1,37,38
 658 873 658 873 602 926 c 0,39,40
 555 970 555 970 482 970 c 0,41,42
 423 970 423 970 374 939 c 0,43,44
 306 895 306 895 306 826 c 0,45,46
 306 765 306 765 346 727 c 0,47,48
 388 688 388 688 491 688 c 0,49,50
 698 688 698 688 791 605 c 0,51,52
 890 517 890 517 890 393 c 0,53,54
 890 349 890 349 877 322 c 0,55,56
 862 290 862 290 821 256 c 2,57,-1
 535 16 l 2,58,59
 492 -20 492 -20 458 -20 c 0,0,1
EndSplineSet
Validated: 1
EndChar

StartChar: t
Encoding: 116 116 87
Width: 712
GlyphClass: 2
Flags: W
HStem: -40 21G<271 304.704> 990 110<89 271 441 623> 1530 20G<407.296 441>
VStem: 271 170<95 990 1100 1415>
LayerCount: 2
Fore
SplineSet
271 -40 m 1,0,-1
 271 990 l 1,1,-1
 5 990 l 1,2,-1
 5 1000 l 1,3,-1
 89 1100 l 1,4,-1
 271 1100 l 1,5,-1
 271 1415 l 1,6,-1
 431 1550 l 1,7,-1
 441 1550 l 1,8,-1
 441 1100 l 1,9,-1
 707 1100 l 1,10,-1
 707 1090 l 1,11,-1
 623 990 l 1,12,-1
 441 990 l 1,13,-1
 441 95 l 1,14,-1
 281 -40 l 1,15,-1
 271 -40 l 1,0,-1
EndSplineSet
Validated: 1
EndChar

StartChar: u
Encoding: 117 117 88
Width: 1120
GlyphClass: 2
Flags: W
HStem: -40 21G<770 803.704> -20 160<413.854 599.265> 1120 20G<286.224 320 906.296 940>
VStem: 140 180<233.895 997> 770 170<95 167 230.804 1005>
LayerCount: 2
Fore
SplineSet
780 -40 m 1,0,-1
 770 -40 l 1,1,-1
 770 167 l 1,2,-1
 590 16 l 2,3,4
 547 -20 547 -20 513 -20 c 0,5,6
 471 -20 471 -20 442 -13 c 0,7,8
 328 12 328 12 252 92 c 0,9,10
 140 211 140 211 140 400 c 2,11,-1
 140 997 l 1,12,-1
 310 1140 l 1,13,-1
 320 1140 l 1,14,-1
 320 400 l 2,15,16
 320 273 320 273 387 207 c 0,17,18
 456 140 456 140 546 140 c 0,19,20
 642 140 642 140 705 206 c 0,21,22
 770 273 770 273 770 400 c 2,23,-1
 770 1005 l 1,24,-1
 930 1140 l 1,25,-1
 940 1140 l 1,26,-1
 940 95 l 1,27,-1
 780 -40 l 1,0,-1
EndSplineSet
Validated: 1
EndChar

StartChar: v
Encoding: 118 118 89
Width: 1130
GlyphClass: 2
Flags: W
HStem: -20 160<429.739 619.372> 1100 20G<169.182 269 907.5 1030>
VStem: 160 175<233.895 975.195> 795 175<284.983 996.672>
LayerCount: 2
Fore
SplineSet
533 -20 m 0,0,1
 491 -20 491 -20 462 -13 c 0,2,3
 348 13 348 13 272 92 c 0,4,5
 160 211 160 211 160 400 c 2,6,-1
 160 860 l 2,7,8
 160 973 160 973 62 1010 c 1,9,-1
 193 1120 l 1,10,-1
 203 1120 l 1,11,12
 335 1047 335 1047 335 880 c 2,13,-1
 335 400 l 2,14,15
 335 273 335 273 402 207 c 0,16,17
 471 140 471 140 566 140 c 0,18,19
 667 140 667 140 730 206 c 0,20,21
 795 273 795 273 795 400 c 2,22,-1
 795 832 l 2,23,24
 795 1050 795 1050 1020 1140 c 1,25,-1
 1030 1140 l 1,26,27
 970 1017 970 1017 970 832 c 2,28,-1
 970 413 l 2,29,30
 970 359 970 359 952 322 c 0,31,32
 937 291 937 291 896 256 c 2,33,-1
 610 16 l 2,34,35
 567 -20 567 -20 533 -20 c 0,0,1
EndSplineSet
Validated: 1
EndChar

StartChar: w
Encoding: 119 119 90
Width: 1760
GlyphClass: 2
Flags: W
HStem: -20 160<429.739 619.576 1062.67 1249.37> 1100 40G<169.182 269 934.923 968 1537.5 1660>
VStem: 160 175<233.895 975.195> 793 175<233.895 997> 1425 175<284.983 998.25>
LayerCount: 2
Fore
SplineSet
533 -20 m 0,0,1
 491 -20 491 -20 462 -13 c 0,2,3
 348 13 348 13 272 92 c 0,4,5
 160 211 160 211 160 400 c 2,6,-1
 160 860 l 2,7,8
 160 973 160 973 62 1010 c 1,9,-1
 193 1120 l 1,10,-1
 203 1120 l 1,11,12
 335 1047 335 1047 335 880 c 2,13,-1
 335 400 l 2,14,15
 335 273 335 273 402 207 c 0,16,17
 471 140 471 140 566 140 c 0,18,19
 665 140 665 140 728 206 c 0,20,21
 793 273 793 273 793 399 c 2,22,-1
 793 997 l 1,23,-1
 958 1140 l 1,24,-1
 968 1140 l 1,25,-1
 968 400 l 2,26,27
 968 273 968 273 1035 207 c 0,28,29
 1104 140 1104 140 1196 140 c 0,30,31
 1297 140 1297 140 1360 206 c 0,32,33
 1425 273 1425 273 1425 400 c 2,34,-1
 1425 832 l 2,35,36
 1425 1050 1425 1050 1650 1140 c 1,37,-1
 1660 1140 l 1,38,39
 1600 1016 1600 1016 1600 832 c 2,40,-1
 1600 413 l 2,41,42
 1600 359 1600 359 1582 322 c 0,43,44
 1567 291 1567 291 1526 256 c 2,45,-1
 1240 16 l 2,46,47
 1197 -20 1197 -20 1163 -20 c 0,48,49
 1121 -20 1121 -20 1092 -13 c 0,50,51
 976 14 976 14 902 92 c 0,52,53
 857 139 857 139 830 200 c 1,54,-1
 610 16 l 2,55,56
 567 -20 567 -20 533 -20 c 0,0,1
EndSplineSet
Validated: 1
EndChar

StartChar: x
Encoding: 120 120 91
Width: 1100
GlyphClass: 2
Flags: W
HStem: -40 21G<160 193.741 765 798.741> 470 159<423.902 676.098> 1120 20G<301.259 335 906.259 940>
VStem: 160 175<99 327.514 718.64 1001> 765 175<99 381.576 771.486 1001>
LayerCount: 2
Fore
SplineSet
160 -40 m 1,0,-1
 160 201 l 2,1,2
 160 258 160 258 178 292 c 0,3,4
 197 326 197 326 234 358 c 2,5,-1
 392 495 l 1,6,7
 321 523 321 523 264 580 c 0,8,9
 160 681 160 681 160 893 c 2,10,-1
 160 1001 l 1,11,-1
 325 1140 l 1,12,-1
 335 1140 l 1,13,-1
 335 889 l 2,14,15
 335 757 335 757 397 696 c 0,16,17
 466 629 466 629 551 629 c 0,18,19
 642 629 642 629 705 695 c 0,20,21
 765 757 765 757 765 889 c 2,22,-1
 765 1001 l 1,23,-1
 930 1140 l 1,24,-1
 940 1140 l 1,25,-1
 940 898 l 2,26,27
 940 844 940 844 922 807 c 0,28,29
 907 776 907 776 866 741 c 2,30,-1
 703 604 l 1,31,32
 781 573 781 573 836 520 c 0,33,34
 940 420 940 420 940 206 c 2,35,-1
 940 99 l 1,36,-1
 775 -40 l 1,37,-1
 765 -40 l 1,38,-1
 765 210 l 2,39,40
 765 342 765 342 703 403 c 0,41,42
 634 470 634 470 549 470 c 0,43,44
 458 470 458 470 395 404 c 0,45,46
 335 342 335 342 335 210 c 2,47,-1
 335 99 l 1,48,-1
 170 -40 l 1,49,-1
 160 -40 l 1,0,-1
EndSplineSet
Validated: 1
EndChar

StartChar: y
Encoding: 121 121 92
Width: 1120
GlyphClass: 2
Flags: W
HStem: -430 160<414.557 599.358> -20 160<413.854 599.265> 1120 20G<286.224 320 906.296 940>
VStem: 140 180<233.895 997> 770 170<-133.891 167 230.804 1005>
LayerCount: 2
Fore
SplineSet
513 -20 m 0,0,1
 471 -20 471 -20 442 -13 c 0,2,3
 328 12 328 12 252 92 c 0,4,5
 140 211 140 211 140 400 c 2,6,-1
 140 997 l 1,7,-1
 310 1140 l 1,8,-1
 320 1140 l 1,9,-1
 320 400 l 2,10,11
 320 273 320 273 387 207 c 0,12,13
 456 140 456 140 546 140 c 0,14,15
 642 140 642 140 705 206 c 0,16,17
 770 273 770 273 770 400 c 2,18,-1
 770 1005 l 1,19,-1
 930 1140 l 1,20,-1
 940 1140 l 1,21,-1
 940 -5 l 2,22,23
 940 -60 940 -60 922 -96 c 0,24,25
 907 -127 907 -127 866 -162 c 2,26,-1
 590 -394 l 2,27,28
 547 -430 547 -430 513 -430 c 4,29,30
 471 -430 471 -430 442 -423 c 0,31,32
 327 -397 327 -397 252 -319 c 1,33,-1
 389 -204 l 1,34,35
 457 -270 457 -270 546 -270 c 0,36,37
 642 -270 642 -270 705 -204 c 0,38,39
 770 -137 770 -137 770 -10 c 2,40,-1
 770 167 l 1,41,-1
 590 16 l 2,42,43
 547 -20 547 -20 513 -20 c 0,0,1
EndSplineSet
Validated: 1
EndChar

StartChar: z
Encoding: 122 122 93
Width: 1025
GlyphClass: 2
Flags: W
HStem: 0 110<329 831> 400 110<234 325 560 811> 990 110<284 665>
DStem2: 100 10 329 110 0.50013 0.86595<201.125 450.25 663.035 1131.2>
LayerCount: 2
Fore
SplineSet
100 0 m 1,0,-1
 100 10 l 1,1,-1
 325 400 l 1,2,-1
 150 400 l 1,3,-1
 150 410 l 1,4,-1
 234 510 l 1,5,-1
 388 510 l 1,6,-1
 665 990 l 1,7,-1
 200 990 l 1,8,-1
 200 1000 l 1,9,-1
 284 1100 l 1,10,-1
 895 1100 l 1,11,-1
 895 1090 l 1,12,-1
 560 510 l 1,13,-1
 895 510 l 1,14,-1
 895 500 l 1,15,-1
 811 400 l 1,16,-1
 496 400 l 1,17,-1
 329 110 l 1,18,-1
 915 110 l 1,19,-1
 915 100 l 1,20,-1
 831 0 l 1,21,-1
 100 0 l 1,0,-1
EndSplineSet
Validated: 1
EndChar

StartChar: braceleft
Encoding: 123 123 94
Width: 865
GlyphClass: 2
Flags: W
HStem: -240 180<599.155 755> 664 182<174 250>
VStem: 250 200<101.216 664 846 1356.47>
LayerCount: 2
Fore
SplineSet
721 -240 m 0,0,1
 688 -240 688 -240 650 -233 c 0,2,3
 483 -202 483 -202 371 -69 c 0,4,5
 250 75 250 75 250 280 c 2,6,-1
 250 664 l 1,7,-1
 30 664 l 1,8,-1
 30 674 l 1,9,-1
 174 846 l 1,10,-1
 250 846 l 1,11,-1
 250 1230 l 2,12,13
 250 1284 250 1284 268 1321 c 0,14,15
 283 1352 283 1352 324 1387 c 2,16,-1
 712 1714 l 2,17,18
 755 1750 755 1750 789 1750 c 0,19,20
 822 1750 822 1750 860 1743 c 1,21,-1
 755 1570 l 1,22,23
 623 1570 623 1570 538 1471 c 0,24,25
 450 1370 450 1370 450 1230 c 2,26,-1
 450 280 l 2,27,28
 450 136 450 136 536 39 c 0,29,30
 624 -60 624 -60 755 -60 c 1,31,-1
 798 -204 l 1,32,33
 755 -240 755 -240 721 -240 c 0,0,1
EndSplineSet
Validated: 1
EndChar

StartChar: bar
Encoding: 124 124 95
Width: 626
GlyphClass: 2
Flags: W
VStem: 230 166<-109 1619>
LayerCount: 2
Fore
SplineSet
230 -240 m 1,0,-1
 230 1619 l 1,1,-1
 386 1750 l 1,2,-1
 396 1750 l 1,3,-1
 396 -109 l 1,4,-1
 240 -240 l 1,5,-1
 230 -240 l 1,0,-1
EndSplineSet
Validated: 1
EndChar

StartChar: braceright
Encoding: 125 125 96
Width: 865
GlyphClass: 2
Flags: W
HStem: 664 182<615 691> 1570 180<110 265.845>
VStem: 415 200<153.525 664 846 1408.78>
LayerCount: 2
Fore
SplineSet
76 -240 m 0,0,1
 43 -240 43 -240 5 -233 c 1,2,-1
 110 -60 l 1,3,4
 242 -60 242 -60 327 39 c 0,5,6
 415 140 415 140 415 280 c 2,7,-1
 415 1230 l 2,8,9
 415 1374 415 1374 329 1471 c 0,10,11
 241 1570 241 1570 110 1570 c 1,12,-1
 67 1714 l 1,13,14
 110 1750 110 1750 144 1750 c 0,15,16
 177 1750 177 1750 215 1743 c 0,17,18
 382 1712 382 1712 494 1579 c 0,19,20
 615 1435 615 1435 615 1230 c 2,21,-1
 615 846 l 1,22,-1
 835 846 l 1,23,-1
 835 836 l 1,24,-1
 691 664 l 1,25,-1
 615 664 l 1,26,-1
 615 280 l 2,27,28
 615 226 615 226 597 189 c 0,29,30
 582 158 582 158 541 123 c 2,31,-1
 153 -204 l 2,32,33
 110 -240 110 -240 76 -240 c 0,0,1
EndSplineSet
Validated: 1
EndChar

StartChar: asciitilde
Encoding: 126 126 97
Width: 1238
GlyphClass: 2
Flags: W
HStem: 566 90<803.97 919.735> 847 97<318.391 439.957>
VStem: 130 179<657.021 819.5> 929 179<687 852.979>
DStem2: 1049 957 889 585 0.765012 0.644016<-220.063 -55.3529>
LayerCount: 2
Fore
SplineSet
1059 957 m 1,0,1
 1108 892 1108 892 1108 802 c 24,2,3
 1108 769 1108 769 1085 750 c 2,4,-1
 889 585 l 2,5,6
 866 566 866 566 839 566 c 0,7,8
 623 566 623 566 533 692 c 0,9,10
 423 847 423 847 366 847 c 0,11,12
 309 846 309 846 309 793 c 0,13,14
 309 742 309 742 357 694 c 1,15,-1
 189 553 l 1,16,-1
 179 553 l 1,17,18
 130 618 130 618 130 708 c 24,19,20
 130 741 130 741 153 760 c 2,21,-1
 349 925 l 2,22,23
 372 944 372 944 399 944 c 0,24,25
 615 944 615 944 705 818 c 0,26,27
 822 656 822 656 869 656 c 0,28,29
 929 656 929 656 929 718 c 0,30,31
 929 768 929 768 881 816 c 1,32,-1
 1049 957 l 1,33,-1
 1059 957 l 1,0,1
EndSplineSet
Validated: 1
EndChar

StartChar: exclamdown
Encoding: 161 161 99
Width: 560
GlyphClass: 2
Flags: W
HStem: -450 21G<170 203.886> 868 252<220.464 339.119>
VStem: 156 248<930.479 1057.52> 170 219<-275 -54.736> 212 138<414.327 708>
LayerCount: 2
Fore
SplineSet
292 1120 m 0,0,1
 305 1120 305 1120 321 1114 c 0,2,3
 353 1102 353 1102 375 1073 c 0,4,5
 404 1035 404 1035 404 996 c 0,6,7
 404 967 404 967 381 948 c 2,8,-1
 303 882 l 2,9,10
 286 868 286 868 268 868 c 0,11,12
 255 868 255 868 239 874 c 0,13,14
 206 887 206 887 185 915 c 0,15,16
 156 953 156 953 156 992 c 0,17,18
 156 1021 156 1021 179 1040 c 2,19,-1
 257 1106 l 2,20,21
 274 1120 274 1120 292 1120 c 0,0,1
170 -450 m 1,22,-1
 212 708 l 1,23,-1
 340 815 l 1,24,-1
 350 815 l 1,25,-1
 389 -275 l 1,26,-1
 180 -450 l 1,27,-1
 170 -450 l 1,22,-1
EndSplineSet
Validated: 1
EndChar

StartChar: cent
Encoding: 162 162 100
Width: 1070
GlyphClass: 2
Flags: W
VStem: 140 180<233.895 815.017> 503 100<-64 -20 148 952 1113 1164>
DStem2: 950 413 603 27 0.766147 0.642665<-434.609 -37.6816>
LayerCount: 2
Fore
SplineSet
503 -20 m 1,0,1
 467 -19 467 -19 442 -13 c 0,2,3
 328 13 328 13 252 92 c 0,4,5
 140 211 140 211 140 400 c 2,6,-1
 140 687 l 2,7,8
 140 741 140 741 158 778 c 0,9,10
 173 810 173 810 214 844 c 2,11,-1
 500 1084 l 2,12,13
 502 1085 502 1085 503 1086 c 2,14,-1
 503 1164 l 1,15,-1
 593 1240 l 1,16,-1
 603 1240 l 1,17,-1
 603 1119 l 1,18,19
 628 1117 628 1117 648 1113 c 0,20,21
 765 1085 765 1085 838 1008 c 0,22,23
 909 932 909 932 935 830 c 1,24,-1
 780 700 l 1,25,-1
 770 700 l 1,26,27
 770 827 770 827 703 893 c 0,28,29
 658 937 658 937 603 952 c 1,30,-1
 603 148 l 1,31,32
 655 163 655 163 705 206 c 2,33,-1
 950 413 l 1,34,35
 950 359 950 359 932 322 c 0,36,37
 917 290 917 290 876 256 c 2,38,-1
 603 27 l 1,39,-1
 603 -64 l 1,40,-1
 513 -140 l 1,41,-1
 503 -140 l 1,42,-1
 503 -20 l 1,0,1
503 144 m 1,43,-1
 503 957 l 1,44,45
 434 946 434 946 385 894 c 0,46,47
 320 827 320 827 320 700 c 2,48,-1
 320 400 l 2,49,50
 320 273 320 273 387 207 c 0,51,52
 439 156 439 156 503 144 c 1,43,-1
EndSplineSet
Validated: 1
EndChar

StartChar: sterling
Encoding: 163 163 101
Width: 1193
GlyphClass: 2
Flags: W
HStem: 0 130<142 230 430 1012> 520 130<141 230 430 799> 1109 21G<854 887.916> 1349 181<594.267 781.53>
VStem: 230 200<130 520 650 1212>
LayerCount: 2
Fore
SplineSet
40 0 m 1,0,-1
 40 8 l 1,1,-1
 142 130 l 1,2,-1
 230 130 l 1,3,-1
 230 520 l 1,4,-1
 40 520 l 1,5,-1
 40 530 l 1,6,-1
 141 650 l 1,7,-1
 230 650 l 1,8,-1
 230 1085 l 2,9,10
 230 1139 230 1139 248 1176 c 0,11,12
 264 1208 264 1208 304 1242 c 2,13,-1
 604 1494 l 2,14,15
 647 1530 647 1530 681 1530 c 0,16,17
 723 1530 723 1530 752 1523 c 0,18,19
 869 1495 869 1495 942 1418 c 0,20,21
 1008 1348 1008 1348 1035 1252 c 1,22,-1
 864 1109 l 1,23,-1
 854 1109 l 1,24,25
 854 1216 854 1216 809 1276 c 0,26,27
 754 1349 754 1349 648 1349 c 0,28,29
 552 1349 552 1349 489 1283 c 0,30,31
 430 1222 430 1222 430 1121 c 2,32,-1
 430 650 l 1,33,-1
 900 650 l 1,34,-1
 900 640 l 1,35,-1
 799 520 l 1,36,-1
 430 520 l 1,37,-1
 430 130 l 1,38,-1
 1113 130 l 1,39,-1
 1113 120 l 1,40,-1
 1012 0 l 1,41,-1
 40 0 l 1,0,-1
EndSplineSet
Validated: 1
EndChar

StartChar: currency
Encoding: 164 164 102
Width: 1463
GlyphClass: 2
Flags: W
HStem: 208 180<578.824 785.687> 1068 180<682.313 889.176>
VStem: 229 200<546.733 855.849> 1039 200<600.151 911.023>
DStem2: 305 441 335 241 0.73086 0.682527<-114.58 0.929058 1018.17 1125.68>
LayerCount: 2
Fore
SplineSet
273 1142 m 1,0,-1
 471 1172 l 1,1,-1
 552 1095 l 1,2,-1
 691 1212 l 2,3,4
 734 1248 734 1248 768 1248 c 0,5,6
 801 1248 801 1248 839 1241 c 0,7,8
 962 1218 962 1218 1055 1140 c 1,9,-1
 1128 1209 l 1,10,-1
 1326 1180 l 1,11,-1
 1333 1173 l 1,12,-1
 1163 1014 l 1,13,14
 1239 890 1239 890 1239 728 c 0,15,16
 1239 674 1239 674 1221 637 c 0,17,18
 1206 606 1206 606 1165 571 c 2,19,-1
 1043 468 l 1,20,-1
 1202 321 l 1,21,-1
 1195 314 l 1,22,-1
 997 284 l 1,23,-1
 916 361 l 1,24,-1
 777 244 l 2,25,26
 734 208 734 208 700 208 c 0,27,28
 667 208 667 208 629 215 c 0,29,30
 506 238 506 238 413 316 c 1,31,-1
 335 241 l 1,32,-1
 137 271 l 1,33,-1
 130 278 l 1,34,-1
 305 441 l 1,35,36
 229 565 229 565 229 728 c 0,37,38
 229 782 229 782 247 819 c 0,39,40
 262 850 262 850 303 885 c 2,41,-1
 425 988 l 1,42,-1
 266 1135 l 1,43,-1
 273 1142 l 1,0,-1
429 728 m 0,44,45
 429 584 429 584 515 487 c 0,46,47
 603 388 603 388 734 388 c 0,48,49
 866 388 866 388 951 487 c 0,50,51
 1039 588 1039 588 1039 728 c 0,52,53
 1039 872 1039 872 953 969 c 0,54,55
 865 1068 865 1068 734 1068 c 0,56,57
 602 1068 602 1068 517 969 c 0,58,59
 429 868 429 868 429 728 c 0,44,45
EndSplineSet
Validated: 1
EndChar

StartChar: yen
Encoding: 165 165 103
Width: 1246
GlyphClass: 2
Flags: W
HStem: -40 21G<523 556.899> 360 100<244 523 723 1002> 560 100<244 458 784 1002> 1530 20G<230.969 274.045 1034.36 1077.16>
VStem: 523 200<119 360 460 522>
DStem2: 663 670 784 660 0.406406 0.913693<40.0382 929.989>
LayerCount: 2
Fore
SplineSet
523 -40 m 1,0,-1
 523 360 l 1,1,-1
 168 360 l 1,2,-1
 168 370 l 1,3,-1
 244 460 l 1,4,-1
 523 460 l 1,5,-1
 523 522 l 1,6,-1
 505 560 l 1,7,-1
 168 560 l 1,8,-1
 168 570 l 1,9,-1
 244 660 l 1,10,-1
 458 660 l 1,11,-1
 100 1421 l 1,12,-1
 255 1550 l 1,13,-1
 265 1550 l 1,14,-1
 663 670 l 1,15,-1
 1043 1550 l 1,16,-1
 1053 1550 l 1,17,-1
 1146 1473 l 1,18,-1
 784 660 l 1,19,-1
 1078 660 l 1,20,-1
 1078 650 l 1,21,-1
 1002 560 l 1,22,-1
 740 560 l 1,23,-1
 723 522 l 1,24,-1
 723 460 l 1,25,-1
 1078 460 l 1,26,-1
 1078 450 l 1,27,-1
 1002 360 l 1,28,-1
 723 360 l 1,29,-1
 723 119 l 1,30,-1
 533 -40 l 1,31,-1
 523 -40 l 1,0,-1
EndSplineSet
Validated: 1
EndChar

StartChar: brokenbar
Encoding: 166 166 104
Width: 626
GlyphClass: 2
Flags: W
VStem: 230 166<-109 530 980 1619>
LayerCount: 2
Fore
SplineSet
230 -240 m 1,0,-1
 230 530 l 1,1,-1
 386 661 l 1,2,-1
 396 661 l 1,3,-1
 396 -109 l 1,4,-1
 240 -240 l 1,5,-1
 230 -240 l 1,0,-1
386 1750 m 1,6,-1
 396 1750 l 1,7,-1
 396 980 l 1,8,-1
 240 849 l 1,9,-1
 230 849 l 1,10,-1
 230 1619 l 1,11,-1
 386 1750 l 1,6,-1
EndSplineSet
Validated: 1
EndChar

StartChar: section
Encoding: 167 167 105
Width: 1051
GlyphClass: 2
Flags: W
HStem: -40 160<418.53 590.167> 394 167<363.822 662.633> 950 167<388.367 687.178> 1391 160<460.833 632.47>
VStem: 130 175<617.004 800.525> 173 169<1164.47 1301.74> 709 169<209.259 346.526> 746 175<710.475 893.996>
LayerCount: 2
Fore
SplineSet
505 -40 m 0,0,1
 463 -40 463 -40 434 -33 c 0,2,3
 358 -15 358 -15 299.5 39.5 c 128,-1,4
 241 94 241 94 210 171 c 1,5,-1
 352 290 l 1,6,-1
 362 290 l 1,7,8
 362 217 362 217 418 164 c 0,9,10
 465 120 465 120 538 120 c 0,11,12
 597 120 597 120 646 151 c 0,13,14
 709 190 709 190 709 254 c 0,15,16
 709 312 709 312 667 347 c 0,17,18
 610 394 610 394 529 394 c 0,19,20
 320 394 320 394 229 475 c 0,21,22
 130 563 130 563 130 687 c 0,23,24
 130 731 130 731 143 758 c 0,25,26
 158 789 158 789 199 824 c 2,27,-1
 289 900 l 1,28,-1
 370 874 l 1,29,30
 305 807 305 807 305 720 c 0,31,32
 305 655 305 655 355 612 c 0,33,34
 413 561 413 561 538 561 c 0,35,36
 694 561 694 561 788 486 c 0,37,38
 878 413 878 413 878 318 c 0,39,40
 878 278 878 278 861 248 c 0,41,42
 843 215 843 215 813 190 c 2,43,-1
 582 -4 l 2,44,45
 539 -40 539 -40 505 -40 c 0,0,1
546 1551 m 0,46,47
 588 1551 588 1551 617 1544 c 0,48,49
 693 1526 693 1526 751.5 1471.5 c 128,-1,50
 810 1417 810 1417 841 1340 c 1,51,-1
 699 1221 l 1,52,-1
 689 1221 l 1,53,54
 689 1294 689 1294 633 1347 c 0,55,56
 586 1391 586 1391 513 1391 c 0,57,58
 454 1391 454 1391 405 1360 c 0,59,60
 342 1321 342 1321 342 1257 c 0,61,62
 342 1199 342 1199 384 1164 c 0,63,64
 441 1117 441 1117 522 1117 c 0,65,66
 731 1117 731 1117 822 1036 c 0,67,68
 921 948 921 948 921 824 c 0,69,70
 921 780 921 780 908 753 c 0,71,72
 893 722 893 722 852 687 c 2,73,-1
 762 611 l 1,74,-1
 681 637 l 1,75,76
 746 704 746 704 746 791 c 0,77,78
 746 856 746 856 696 899 c 0,79,80
 638 950 638 950 513 950 c 0,81,82
 357 950 357 950 263 1025 c 0,83,84
 173 1098 173 1098 173 1193 c 0,85,86
 173 1233 173 1233 190 1263 c 0,87,88
 208 1296 208 1296 238 1321 c 2,89,-1
 469 1515 l 2,90,91
 512 1551 512 1551 546 1551 c 0,46,47
EndSplineSet
Validated: 1
EndChar

StartChar: dieresis
Encoding: 168 168 106
Width: 580
GlyphClass: 2
Flags: W
HStem: 1274 226<82.9229 201.235 378.923 497.235>
VStem: 30 224<1326.31 1447.69> 326 224<1326.31 1447.69>
LayerCount: 2
Fore
SplineSet
449 1500 m 0,0,1
 461 1500 461 1500 475 1495 c 0,2,3
 506 1483 506 1483 524 1458 c 0,4,5
 550 1424 550 1424 550 1389 c 0,6,7
 550 1363 550 1363 529 1346 c 2,8,-1
 459 1286 l 2,9,10
 443 1274 443 1274 427 1274 c 0,11,12
 415 1274 415 1274 401 1279 c 0,13,14
 372 1290 372 1290 352 1316 c 0,15,16
 326 1350 326 1350 326 1385 c 0,17,18
 326 1411 326 1411 347 1428 c 2,19,-1
 417 1488 l 2,20,21
 431 1500 431 1500 449 1500 c 0,0,1
153 1500 m 0,22,23
 165 1500 165 1500 179 1495 c 0,24,25
 210 1483 210 1483 228 1458 c 0,26,27
 254 1424 254 1424 254 1389 c 0,28,29
 254 1363 254 1363 233 1346 c 2,30,-1
 163 1286 l 2,31,32
 147 1274 147 1274 131 1274 c 0,33,34
 119 1274 119 1274 105 1279 c 0,35,36
 76 1290 76 1290 56 1316 c 0,37,38
 30 1350 30 1350 30 1385 c 0,39,40
 30 1411 30 1411 51 1428 c 2,41,-1
 121 1488 l 2,42,43
 135 1500 135 1500 153 1500 c 0,22,23
EndSplineSet
Validated: 1
EndChar

StartChar: copyright
Encoding: 169 169 107
Width: 1361
GlyphClass: 2
Flags: W
HStem: 386 73<494.363 858.202> 546 132<587.614 741.643> 1230 132<623.039 777.232> 1453 77<496.855 864.866>
VStem: 130 74<768.815 1151.31> 410 140<714.544 1175.99> 1156 75<757.376 1158.43>
DStem2: 954 869 717 569 0.763685 0.645589<-334.435 -32.4355>
LayerCount: 2
Fore
SplineSet
701 1362 m 0,0,1
 717 1362 717 1362 739 1358 c 0,2,3
 828 1340 828 1340 880 1280 c 0,4,5
 929 1224 929 1224 945 1162 c 1,6,-1
 825 1061 l 1,7,-1
 815 1061 l 1,8,-1
 815 1081 l 2,9,10
 815 1147 815 1147 777 1188 c 0,11,12
 738 1230 738 1230 686 1230 c 0,13,14
 631 1230 631 1230 589 1188 c 0,15,16
 550 1150 550 1150 550 1081 c 2,17,-1
 550 827 l 2,18,19
 550 764 550 764 588 721 c 128,-1,20
 626 678 626 678 676 678 c 0,21,22
 725 678 725 678 778 722 c 2,23,-1
 954 869 l 1,24,-1
 954 826 l 2,25,26
 954 769 954 769 911 733 c 2,27,-1
 717 569 l 2,28,29
 690 546 690 546 668 546 c 0,30,31
 554 546 554 546 482 632 c 128,-1,32
 410 718 410 718 410 826 c 2,33,-1
 410 1082 l 2,34,35
 410 1139 410 1139 454 1176 c 2,36,-1
 648 1339 l 2,37,38
 675 1362 675 1362 701 1362 c 0,0,1
681 1530 m 0,39,40
 923 1530 923 1530 1079 1357 c 0,41,42
 1231 1188 1231 1188 1231 953 c 0,43,44
 1231 701 1231 701 1070 549 c 0,45,46
 899 386 899 386 679 386 c 0,47,48
 456 386 456 386 291 549 c 0,49,50
 130 708 130 708 130 953 c 0,51,52
 130 1197 130 1197 288 1362 c 0,53,54
 449 1530 449 1530 681 1530 c 0,39,40
679 1453 m 0,55,56
 489 1453 489 1453 347 1312 c 0,57,58
 204 1170 204 1170 204 953 c 0,59,60
 204 760 204 760 344 605 c 0,61,62
 475 459 475 459 681 459 c 0,63,64
 872 459 872 459 1017 605 c 0,65,66
 1156 745 1156 745 1156 953 c 0,67,68
 1156 1174 1156 1174 1019 1309 c 0,69,70
 873 1453 873 1453 679 1453 c 0,55,56
EndSplineSet
Validated: 1
EndChar

StartChar: ordfeminine
Encoding: 170 170 108
Width: 636
GlyphClass: 2
Flags: W
HStem: 891 115<118 518> 1040 121<238.013 380.27> 1348 125<260.098 391.28> 1528 122<257.192 395.894>
VStem: 95 130<1173.91 1324.07> 411 130<1188.33 1320.15>
LayerCount: 2
Fore
SplineSet
118 1006 m 1,0,-1
 606 1006 l 1,1,-1
 606 996 l 1,2,-1
 518 891 l 1,3,-1
 30 891 l 1,4,-1
 30 901 l 1,5,-1
 118 1006 l 1,0,-1
346 1650 m 0,6,7
 421 1650 421 1650 478 1590 c 0,8,9
 541 1525 541 1525 541 1420 c 2,10,-1
 541 1130 l 1,11,-1
 421 1029 l 1,12,-1
 411 1029 l 1,13,-1
 411 1110 l 1,14,-1
 353 1062 l 2,15,16
 326 1040 326 1040 289 1040 c 0,17,18
 214 1040 214 1040 146 1111 c 0,19,20
 95 1164 95 1164 95 1234 c 0,21,22
 95 1290 95 1290 140 1328 c 2,23,-1
 283 1448 l 2,24,25
 313 1473 313 1473 345 1473 c 0,26,27
 372 1473 372 1473 407 1455 c 1,28,29
 400 1484 400 1484 383 1502 c 0,30,31
 360 1528 360 1528 318 1528 c 0,32,33
 274 1528 274 1528 237 1487 c 1,34,-1
 186 1546 l 1,35,-1
 283 1627 l 2,36,37
 311 1650 311 1650 346 1650 c 0,6,7
385 1321 m 128,-1,39
 359 1348 359 1348 320 1348 c 0,40,41
 277 1348 277 1348 251 1321 c 128,-1,42
 225 1294 225 1294 225 1254 c 128,-1,43
 225 1214 225 1214 252 1188 c 0,44,45
 279 1161 279 1161 317 1161 c 128,-1,46
 355 1161 355 1161 383 1187.5 c 128,-1,47
 411 1214 411 1214 411 1254 c 128,-1,38
 411 1294 411 1294 385 1321 c 128,-1,39
EndSplineSet
Validated: 1
EndChar

StartChar: guillemotleft
Encoding: 171 171 109
Width: 1113
GlyphClass: 2
Flags: W
DStem2: 284 789 130 753 0.509697 -0.860354<0 429.955> 130 753 284 789 0.538107 0.842876<113.212 603.38> 669 789 515 753 0.509697 -0.860354<0 429.955> 515 753 669 789 0.538107 0.842876<113.212 603.38>
LayerCount: 2
Fore
SplineSet
854 1284 m 1,0,-1
 864 1284 l 1,1,-1
 933 1202 l 1,2,-1
 669 789 l 1,3,-1
 888 419 l 1,4,-1
 791 304 l 1,5,-1
 781 304 l 1,6,-1
 515 753 l 1,7,-1
 854 1284 l 1,0,-1
469 1284 m 1,8,-1
 479 1284 l 1,9,-1
 548 1202 l 1,10,-1
 284 789 l 1,11,-1
 503 419 l 1,12,-1
 406 304 l 1,13,-1
 396 304 l 1,14,-1
 130 753 l 1,15,-1
 469 1284 l 1,8,-1
EndSplineSet
Validated: 1
EndChar

StartChar: logicalnot
Encoding: 172 172 110
Width: 1174
GlyphClass: 2
Flags: W
HStem: 679 151<249 812>
VStem: 579 115<402 517>
DStem2: 579 402 694 402 0.641987 0.766716<73.8285 361.963>
LayerCount: 2
Fore
SplineSet
249 830 m 1,0,-1
 1044 830 l 1,1,-1
 1044 820 l 1,2,-1
 694 402 l 1,3,-1
 579 402 l 1,4,-1
 812 679 l 1,5,-1
 130 679 l 1,6,-1
 130 689 l 1,7,-1
 249 830 l 1,0,-1
EndSplineSet
Validated: 1
EndChar

StartChar: uni00AD
Encoding: 173 173 111
Width: 1174
GlyphClass: 2
Flags: W
HStem: 679 151<249 926>
LayerCount: 2
Fore
SplineSet
130 679 m 1,0,-1
 130 689 l 1,1,-1
 249 830 l 1,2,-1
 1044 830 l 1,3,-1
 1044 820 l 1,4,-1
 926 679 l 1,5,-1
 130 679 l 1,0,-1
EndSplineSet
Validated: 1
EndChar

StartChar: registered
Encoding: 174 174 112
Width: 1361
GlyphClass: 2
Flags: W
HStem: 386 73<494.363 858.202> 1453 77<496.855 864.866>
VStem: 130 74<768.815 1151.31> 440 140<642 700.352 778 1244> 823 146<913.08 1169.04> 1156 75<757.376 1158.43>
DStem2: 719 985 607 899 0.573612 -0.819127<6.20037 96.2597 201.787 448.038>
LayerCount: 2
Fore
SplineSet
607 899 m 1,0,-1
 709 985 l 1,1,-1
 719 985 l 1,2,-1
 774 906 l 1,3,4
 823 968 823 968 823 1051 c 0,5,6
 823 1136 823 1136 761 1187 c 0,7,8
 698 1239 698 1239 580 1244 c 1,9,-1
 580 778 l 1,10,11
 626 796 626 796 664 817 c 1,12,-1
 607 899 l 1,0,-1
440 533 m 1,13,-1
 440 1258 l 1,14,-1
 570 1367 l 1,15,-1
 580 1367 l 1,16,-1
 580 1292 l 1,17,-1
 659 1358 l 1,18,19
 784 1349 784 1349 876 1271 c 0,20,21
 969 1192 969 1192 969 1057 c 128,-1,22
 969 922 969 922 837 816 c 1,23,-1
 976 618 l 1,24,-1
 874 533 l 1,25,-1
 864 533 l 1,26,-1
 718 741 l 1,27,28
 652 708 652 708 580 685 c 1,29,-1
 580 642 l 1,30,-1
 450 533 l 1,31,-1
 440 533 l 1,13,-1
681 1530 m 0,32,33
 923 1530 923 1530 1079 1357 c 0,34,35
 1231 1188 1231 1188 1231 953 c 0,36,37
 1231 701 1231 701 1070 549 c 0,38,39
 899 386 899 386 679 386 c 0,40,41
 456 386 456 386 291 549 c 0,42,43
 130 708 130 708 130 953 c 0,44,45
 130 1197 130 1197 288 1362 c 0,46,47
 449 1530 449 1530 681 1530 c 0,32,33
679 1453 m 0,48,49
 489 1453 489 1453 347 1312 c 0,50,51
 204 1170 204 1170 204 953 c 0,52,53
 204 760 204 760 344 605 c 0,54,55
 475 459 475 459 681 459 c 0,56,57
 872 459 872 459 1017 605 c 0,58,59
 1156 745 1156 745 1156 953 c 0,60,61
 1156 1174 1156 1174 1019 1309 c 0,62,63
 873 1453 873 1453 679 1453 c 0,48,49
EndSplineSet
Validated: 1
EndChar

StartChar: macron
Encoding: 175 175 113
Width: 635
GlyphClass: 2
Flags: W
HStem: 1291 115<118 517>
VStem: 30 575
LayerCount: 2
Fore
SplineSet
118 1406 m 1,0,-1
 605 1406 l 1,1,-1
 605 1396 l 1,2,-1
 517 1291 l 1,3,-1
 30 1291 l 1,4,-1
 30 1301 l 1,5,-1
 118 1406 l 1,0,-1
EndSplineSet
Validated: 1
EndChar

StartChar: degree
Encoding: 176 176 114
Width: 604
GlyphClass: 2
Flags: W
HStem: 988 133<199.882 354.097> 1416 134<249.773 404.088>
VStem: 30 132<1160.42 1358.2> 444 130<1180.04 1375.91>
LayerCount: 2
Fore
SplineSet
302 1416 m 128,-1,1
 239 1416 239 1416 200.5 1371.5 c 128,-1,2
 162 1327 162 1327 162 1266.5 c 128,-1,3
 162 1206 162 1206 199.5 1163.5 c 128,-1,4
 237 1121 237 1121 302 1121 c 128,-1,5
 367 1121 367 1121 405.5 1165.5 c 128,-1,6
 444 1210 444 1210 444 1271 c 128,-1,7
 444 1332 444 1332 404.5 1374 c 128,-1,0
 365 1416 365 1416 302 1416 c 128,-1,1
321 1550 m 0,8,9
 338 1550 338 1550 360 1545 c 0,10,11
 448 1529 448 1529 510 1455 c 0,12,13
 574 1379 574 1379 574 1269 c 24,14,15
 574 1236 574 1236 565 1220 c 0,16,17
 555 1201 555 1201 534 1183 c 2,18,-1
 325 1008 l 2,19,20
 301 988 301 988 283 988 c 0,21,22
 266 988 266 988 244 993 c 0,23,24
 156 1009 156 1009 94 1083 c 0,25,26
 30 1159 30 1159 30 1269 c 0,27,28
 30 1302 30 1302 39 1318 c 0,29,30
 49 1337 49 1337 70 1355 c 2,31,-1
 279 1530 l 2,32,33
 303 1550 303 1550 321 1550 c 0,8,9
EndSplineSet
Validated: 1
EndChar

StartChar: plusminus
Encoding: 177 177 115
Width: 1174
GlyphClass: 2
Flags: W
HStem: 243 151<249 926> 850 151<249 512 662 926>
VStem: 512 150<587 850 1001 1265>
LayerCount: 2
Fore
SplineSet
130 243 m 1,0,-1
 130 253 l 1,1,-1
 249 394 l 1,2,-1
 1044 394 l 1,3,-1
 1044 384 l 1,4,-1
 926 243 l 1,5,-1
 130 243 l 1,0,-1
652 1383 m 1,6,-1
 662 1383 l 1,7,-1
 662 1001 l 1,8,-1
 1044 1001 l 1,9,-1
 1044 991 l 1,10,-1
 926 850 l 1,11,-1
 662 850 l 1,12,-1
 662 587 l 1,13,-1
 522 469 l 1,14,-1
 512 469 l 1,15,-1
 512 850 l 1,16,-1
 130 850 l 1,17,-1
 130 860 l 1,18,-1
 249 1001 l 1,19,-1
 512 1001 l 1,20,-1
 512 1265 l 1,21,-1
 652 1383 l 1,6,-1
EndSplineSet
Validated: 1
EndChar

StartChar: uni00B2
Encoding: 178 178 116
Width: 610
GlyphClass: 2
Flags: W
HStem: 844 106<207 500> 1518 132<254.19 403.428>
VStem: 46 141<1244.09 1468.89> 440 140<1263.52 1480.43>
LayerCount: 2
Fore
SplineSet
328 1650 m 0,0,1
 438 1650 438 1650 509 1566 c 128,-1,2
 580 1482 580 1482 580 1375 c 0,3,4
 580 1219 580 1219 410 1113 c 0,5,6
 278 1031 278 1031 207 950 c 1,7,-1
 580 950 l 1,8,-1
 580 940 l 1,9,-1
 500 844 l 1,10,-1
 30 844 l 1,11,-1
 30 854 l 1,12,13
 155 1102 155 1102 349 1225 c 0,14,15
 440 1282 440 1282 440 1375 c 0,16,17
 440 1436 440 1436 403 1477 c 128,-1,18
 366 1518 366 1518 317.5 1518 c 128,-1,19
 269 1518 269 1518 228 1482 c 128,-1,20
 187 1446 187 1446 187 1381.5 c 128,-1,21
 187 1317 187 1317 224 1270 c 1,22,-1
 124 1186 l 1,23,-1
 114 1186 l 1,24,25
 46 1265 46 1265 46 1375 c 0,26,27
 46 1432 46 1432 90 1469 c 2,28,-1
 279 1627 l 2,29,30
 307 1650 307 1650 328 1650 c 0,0,1
EndSplineSet
Validated: 1
EndChar

StartChar: uni00B3
Encoding: 179 179 117
Width: 585
GlyphClass: 2
Flags: W
HStem: 834 132<197.095 346.709> 1109 20G<126.238 160> 1534 106<154 338>
VStem: 414 141<1015.13 1218.84>
LayerCount: 2
Fore
SplineSet
154 1640 m 1,0,-1
 530 1640 l 1,1,-1
 530 1630 l 1,2,-1
 379 1362 l 1,3,4
 450 1343 450 1343 502 1280 c 0,5,6
 555 1216 555 1216 555 1109 c 0,7,8
 555 1052 555 1052 511 1015 c 2,9,-1
 322 857 l 2,10,11
 294 834 294 834 273 834 c 0,12,13
 165 834 165 834 82 927 c 0,14,15
 48 965 48 965 30 1028 c 1,16,-1
 150 1129 l 1,17,-1
 160 1129 l 1,18,-1
 160 1109 l 2,19,20
 160 1047 160 1047 197.5 1006.5 c 128,-1,21
 235 966 235 966 283 966 c 0,22,23
 345 966 345 966 378 1008 c 0,24,25
 414 1054 414 1054 414 1111 c 0,26,27
 414 1171 414 1171 377 1212 c 128,-1,28
 340 1253 340 1253 296 1253 c 128,-1,29
 252 1253 252 1253 217 1231 c 1,30,-1
 175 1255 l 1,31,-1
 338 1534 l 1,32,-1
 73 1534 l 1,33,-1
 73 1544 l 1,34,-1
 154 1640 l 1,0,-1
EndSplineSet
Validated: 1
EndChar

StartChar: acute
Encoding: 180 180 118
Width: 366
GlyphClass: 2
Flags: W
HStem: 1211 339
VStem: 30 93<1268.91 1307.71>
LayerCount: 2
Fore
SplineSet
197 1550 m 1,0,1
 207 1550 l 1,2,-1
 336 1442 l 1,3,4
 185 1396 185 1396 123 1211 c 1,5,-1
 113 1211 l 1,6,-1
 30 1281 l 1,7,8
 52 1455 52 1455 197 1550 c 1,0,1
EndSplineSet
Validated: 1
EndChar

StartChar: uni00B5
Encoding: 181 181 119
Width: 1170
GlyphClass: 2
Flags: W
HStem: -450 21G<180 213.776> -40 21G<810 843.776> -20 160<453.73 639.265> 1120 20G<326.224 360 956.224 990>
VStem: 180 180<-307 56 233.895 997> 810 180<103 167 230.804 997>
LayerCount: 2
Fore
SplineSet
820 -40 m 1,0,-1
 810 -40 l 1,1,-1
 810 167 l 1,2,-1
 630 16 l 2,3,4
 587 -20 587 -20 553 -20 c 0,5,6
 517 -20 517 -20 488 -13 c 0,7,8
 406 10 406 10 360 56 c 1,9,-1
 360 -307 l 1,10,-1
 190 -450 l 1,11,-1
 180 -450 l 1,12,-1
 180 997 l 1,13,-1
 350 1140 l 1,14,-1
 360 1140 l 1,15,-1
 360 400 l 2,16,17
 360 273 360 273 427 207 c 0,18,19
 496 140 496 140 586 140 c 0,20,21
 682 140 682 140 745 206 c 0,22,23
 810 273 810 273 810 400 c 2,24,-1
 810 997 l 1,25,-1
 980 1140 l 1,26,-1
 990 1140 l 1,27,-1
 990 103 l 1,28,-1
 820 -40 l 1,0,-1
EndSplineSet
Validated: 1
EndChar

StartChar: paragraph
Encoding: 182 182 120
Width: 1120
GlyphClass: 2
Flags: W
HStem: -40 21G<740 774> 1510 20G<550 588>
VStem: 740 70<10 740> 874 66<119 1139.1>
LayerCount: 2
Fore
SplineSet
750 -40 m 1,0,-1
 740 -40 l 1,1,-1
 740 740 l 1,2,-1
 580 606 l 2,3,4
 537 570 537 570 503 570 c 0,5,6
 461 570 461 570 432 577 c 0,7,8
 318 603 318 603 242 682 c 0,9,10
 130 801 130 801 130 990 c 2,11,-1
 130 1097 l 2,12,13
 130 1151 130 1151 148 1188 c 0,14,15
 163 1220 163 1220 204 1254 c 2,16,-1
 490 1494 l 2,17,18
 533 1530 533 1530 567 1530 c 0,19,20
 609 1530 609 1530 638 1523 c 0,21,22
 755 1495 755 1495 828 1418 c 0,23,24
 940 1299 940 1299 940 1110 c 2,25,-1
 940 119 l 1,26,-1
 874 64 l 1,27,-1
 874 1140 l 1,28,-1
 810 1086 l 1,29,-1
 810 10 l 1,30,-1
 750 -40 l 1,0,-1
EndSplineSet
Validated: 1
EndChar

StartChar: periodcentered
Encoding: 183 183 121
Width: 308
GlyphClass: 2
Flags: W
HStem: 627 252<94.8813 213.536>
VStem: 30 248<689.479 816.521>
LayerCount: 2
Fore
SplineSet
166 879 m 0,0,1
 179 879 179 879 195 873 c 0,2,3
 228 860 228 860 249 832 c 0,4,5
 278 794 278 794 278 755 c 0,6,7
 278 726 278 726 255 707 c 2,8,-1
 177 641 l 2,9,10
 160 627 160 627 142 627 c 0,11,12
 129 627 129 627 113 633 c 0,13,14
 81 645 81 645 59 674 c 0,15,16
 30 712 30 712 30 751 c 0,17,18
 30 780 30 780 53 799 c 2,19,-1
 131 865 l 2,20,21
 148 879 148 879 166 879 c 0,0,1
EndSplineSet
Validated: 1
EndChar

StartChar: cedilla
Encoding: 184 184 122
Width: 377
GlyphClass: 2
Flags: W
HStem: -410 410
VStem: 129 81<-89.7637 0> 219 128<-278.704 -147.366>
LayerCount: 2
Fore
SplineSet
129 0 m 1,0,-1
 210 0 l 1,1,-1
 210 -72 l 1,2,3
 347 -124 347 -124 347 -238 c 0,4,5
 347 -410 347 -410 30 -410 c 1,6,-1
 30 -400 l 1,7,-1
 118 -295 l 1,8,9
 219 -279 219 -279 219 -221.5 c 128,-1,10
 219 -164 219 -164 129 -120 c 1,11,-1
 129 0 l 1,0,-1
EndSplineSet
Validated: 1
EndChar

StartChar: uni00B9
Encoding: 185 185 123
Width: 370
GlyphClass: 2
Flags: W
VStem: 152 138<933 1431>
LayerCount: 2
Fore
SplineSet
280 1660 m 1,0,-1
 290 1660 l 1,1,-1
 290 933 l 1,2,-1
 162 826 l 1,3,-1
 152 826 l 1,4,-1
 152 1431 l 1,5,-1
 30 1325 l 1,6,-1
 30 1450 l 1,7,-1
 280 1660 l 1,0,-1
EndSplineSet
Validated: 1
EndChar

StartChar: ordmasculine
Encoding: 186 186 124
Width: 636
GlyphClass: 2
Flags: W
HStem: 891 115<118 518> 1039 122<246.585 378.359> 1528 122<257.641 389.415>
VStem: 95 130<1189.37 1499.63> 411 130<1189.37 1499.63>
LayerCount: 2
Fore
SplineSet
118 1006 m 1,0,-1
 606 1006 l 1,1,-1
 606 996 l 1,2,-1
 518 891 l 1,3,-1
 30 891 l 1,4,-1
 30 901 l 1,5,-1
 118 1006 l 1,0,-1
334 1650 m 0,6,7
 418 1650 418 1650 479.5 1586 c 128,-1,8
 541 1522 541 1522 541 1420 c 2,9,-1
 541 1276 l 2,10,11
 541 1220 541 1220 496 1182 c 2,12,-1
 353 1062 l 2,13,14
 326 1039 326 1039 302 1039 c 0,15,16
 218 1039 218 1039 156.5 1103 c 128,-1,17
 95 1167 95 1167 95 1269 c 2,18,-1
 95 1413 l 2,19,20
 95 1469 95 1469 140 1507 c 2,21,-1
 283 1627 l 2,22,23
 310 1650 310 1650 334 1650 c 0,6,7
318 1528 m 128,-1,25
 280 1528 280 1528 252.5 1500.5 c 128,-1,26
 225 1473 225 1473 225 1419 c 2,27,-1
 225 1270 l 2,28,29
 225 1216 225 1216 252.5 1188.5 c 128,-1,30
 280 1161 280 1161 318 1161 c 128,-1,31
 356 1161 356 1161 383.5 1188.5 c 128,-1,32
 411 1216 411 1216 411 1270 c 2,33,-1
 411 1419 l 2,34,35
 411 1473 411 1473 383.5 1500.5 c 128,-1,24
 356 1528 356 1528 318 1528 c 128,-1,25
EndSplineSet
Validated: 1
EndChar

StartChar: guillemotright
Encoding: 187 187 125
Width: 1113
GlyphClass: 2
Flags: W
DStem2: 180 386 259 304 0.538107 0.842876<0 490.168> 332 1284 225 1169 0.509697 -0.860354<44.4031 474.358> 565 386 644 304 0.538107 0.842876<0 490.168> 717 1284 610 1169 0.509697 -0.860354<44.4031 474.358>
LayerCount: 2
Fore
SplineSet
332 1284 m 1,0,-1
 598 835 l 1,1,-1
 259 304 l 1,2,-1
 249 304 l 1,3,-1
 180 386 l 1,4,-1
 444 799 l 1,5,-1
 225 1169 l 1,6,-1
 322 1284 l 1,7,-1
 332 1284 l 1,0,-1
717 1284 m 1,8,-1
 983 835 l 1,9,-1
 644 304 l 1,10,-1
 634 304 l 1,11,-1
 565 386 l 1,12,-1
 829 799 l 1,13,-1
 610 1169 l 1,14,-1
 707 1284 l 1,15,-1
 717 1284 l 1,8,-1
EndSplineSet
Validated: 1
EndChar

StartChar: onequarter
Encoding: 188 188 126
Width: 1506
GlyphClass: 2
Flags: W
HStem: -40 21G<149.137 192.79 1184 1217.81> 166 106<1036 1184 1319 1338> 1530 20G<417.19 451 1313.2 1357.03>
VStem: 313 138<823 1321> 1088 181<553.749 662.308> 1184 135<65 166 272 338>
DStem2: 80 62 176 -40 0.642963 0.765897<0 1927.73>
LayerCount: 2
Fore
SplineSet
441 1550 m 1,0,-1
 451 1550 l 1,1,-1
 451 823 l 1,2,-1
 323 716 l 1,3,-1
 313 716 l 1,4,-1
 313 1321 l 1,5,-1
 191 1215 l 1,6,-1
 191 1340 l 1,7,-1
 441 1550 l 1,0,-1
176 -40 m 1,8,-1
 166 -40 l 1,9,-1
 80 62 l 1,10,-1
 1330 1550 l 1,11,-1
 1340 1550 l 1,12,-1
 1426 1449 l 1,13,-1
 176 -40 l 1,8,-1
1194 -40 m 1,14,-1
 1184 -40 l 1,15,-1
 1184 166 l 1,16,-1
 817 166 l 1,17,-1
 817 176 l 1,18,19
 1088 370 1088 370 1088 624 c 0,20,21
 1088 640 1088 640 1087 651 c 1,22,-1
 1259 796 l 1,23,-1
 1269 796 l 1,24,25
 1269 495 1269 495 1036 272 c 1,26,-1
 1184 272 l 1,27,-1
 1184 338 l 1,28,-1
 1309 443 l 1,29,-1
 1319 443 l 1,30,-1
 1319 272 l 1,31,-1
 1419 272 l 1,32,-1
 1419 262 l 1,33,-1
 1338 166 l 1,34,-1
 1319 166 l 1,35,-1
 1319 65 l 1,36,-1
 1194 -40 l 1,14,-1
EndSplineSet
Validated: 1
EndChar

StartChar: onehalf
Encoding: 189 189 127
Width: 1506
GlyphClass: 2
Flags: W
HStem: -40 21G<149.137 192.79> 0 106<1051 1344> 674 132<1098.19 1247.43> 1530 20G<417.19 451 1313.2 1357.03>
VStem: 313 138<823 1321> 890 141<400.094 624.888> 1284 140<419.524 636.433>
DStem2: 80 62 176 -40 0.642963 0.765897<0 1927.73>
LayerCount: 2
Fore
SplineSet
1172 806 m 0,0,1
 1282 806 1282 806 1353 722 c 128,-1,2
 1424 638 1424 638 1424 531 c 0,3,4
 1424 375 1424 375 1254 269 c 0,5,6
 1122 187 1122 187 1051 106 c 1,7,-1
 1424 106 l 1,8,-1
 1424 96 l 1,9,-1
 1344 0 l 1,10,-1
 874 0 l 1,11,-1
 874 10 l 1,12,13
 999 258 999 258 1193 381 c 0,14,15
 1284 438 1284 438 1284 531 c 0,16,17
 1284 592 1284 592 1247 633 c 128,-1,18
 1210 674 1210 674 1161.5 674 c 128,-1,19
 1113 674 1113 674 1072 638 c 128,-1,20
 1031 602 1031 602 1031 537.5 c 128,-1,21
 1031 473 1031 473 1068 426 c 1,22,-1
 968 342 l 1,23,-1
 958 342 l 1,24,25
 890 421 890 421 890 531 c 0,26,27
 890 588 890 588 934 625 c 2,28,-1
 1123 783 l 2,29,30
 1151 806 1151 806 1172 806 c 0,0,1
441 1550 m 1,31,-1
 451 1550 l 1,32,-1
 451 823 l 1,33,-1
 323 716 l 1,34,-1
 313 716 l 1,35,-1
 313 1321 l 1,36,-1
 191 1215 l 1,37,-1
 191 1340 l 1,38,-1
 441 1550 l 1,31,-1
176 -40 m 1,39,-1
 166 -40 l 1,40,-1
 80 62 l 1,41,-1
 1330 1550 l 1,42,-1
 1340 1550 l 1,43,-1
 1426 1449 l 1,44,-1
 176 -40 l 1,39,-1
EndSplineSet
Validated: 1
EndChar

StartChar: threequarters
Encoding: 190 190 128
Width: 1506
GlyphClass: 2
Flags: W
HStem: -40 21G<149.137 192.79 1184 1217.81> 166 106<1036 1184 1319 1338> 730 132<280.095 429.709> 1127 21G<265 317.5> 1430 106<237 421>
VStem: 497 141<911.131 1114.84> 1088 181<553.749 662.308> 1184 135<65 166 272 338>
DStem2: 80 62 176 -40 0.642963 0.765897<0 1927.73>
LayerCount: 2
Fore
SplineSet
237 1536 m 1,0,-1
 613 1536 l 1,1,-1
 613 1526 l 1,2,-1
 462 1258 l 1,3,4
 533 1239 533 1239 585 1176 c 0,5,6
 638 1112 638 1112 638 1005 c 0,7,8
 638 948 638 948 594 911 c 2,9,-1
 405 753 l 2,10,11
 377 730 377 730 356 730 c 0,12,13
 248 730 248 730 165 823 c 0,14,15
 131 861 131 861 113 924 c 1,16,-1
 233 1025 l 1,17,-1
 243 1025 l 1,18,-1
 243 1005 l 2,19,20
 243 943 243 943 280.5 902.5 c 128,-1,21
 318 862 318 862 366 862 c 0,22,23
 428 862 428 862 461 904 c 0,24,25
 497 950 497 950 497 1007 c 0,26,27
 497 1067 497 1067 460 1108 c 128,-1,28
 423 1149 423 1149 379 1149 c 128,-1,29
 335 1149 335 1149 300 1127 c 1,30,-1
 258 1151 l 1,31,-1
 421 1430 l 1,32,-1
 156 1430 l 1,33,-1
 156 1440 l 1,34,-1
 237 1536 l 1,0,-1
176 -40 m 1,35,-1
 166 -40 l 1,36,-1
 80 62 l 1,37,-1
 1330 1550 l 1,38,-1
 1340 1550 l 1,39,-1
 1426 1449 l 1,40,-1
 176 -40 l 1,35,-1
1194 -40 m 1,41,-1
 1184 -40 l 1,42,-1
 1184 166 l 1,43,-1
 817 166 l 1,44,-1
 817 176 l 1,45,46
 1088 370 1088 370 1088 624 c 0,47,48
 1088 640 1088 640 1087 651 c 1,49,-1
 1259 796 l 1,50,-1
 1269 796 l 1,51,52
 1269 495 1269 495 1036 272 c 1,53,-1
 1184 272 l 1,54,-1
 1184 338 l 1,55,-1
 1309 443 l 1,56,-1
 1319 443 l 1,57,-1
 1319 272 l 1,58,-1
 1419 272 l 1,59,-1
 1419 262 l 1,60,-1
 1338 166 l 1,61,-1
 1319 166 l 1,62,-1
 1319 65 l 1,63,-1
 1194 -40 l 1,41,-1
EndSplineSet
Validated: 1
EndChar

StartChar: questiondown
Encoding: 191 191 129
Width: 1250
GlyphClass: 2
Flags: W
HStem: -430 180<474.255 676.229> 868 252<567.464 686.119>
VStem: 130 200<-99.7366 206.621> 503 248<930.479 1057.52> 920 200<-47.5381 256.871>
LayerCount: 2
Fore
SplineSet
639 1120 m 0,0,1
 652 1120 652 1120 668 1114 c 0,2,3
 700 1102 700 1102 722 1073 c 0,4,5
 751 1035 751 1035 751 996 c 0,6,7
 751 967 751 967 728 948 c 2,8,-1
 650 882 l 2,9,10
 633 868 633 868 615 868 c 0,11,12
 602 868 602 868 586 874 c 0,13,14
 553 887 553 887 532 915 c 0,15,16
 503 953 503 953 503 992 c 0,17,18
 503 1021 503 1021 526 1040 c 2,19,-1
 604 1106 l 2,20,21
 621 1120 621 1120 639 1120 c 0,0,1
591 -430 m 0,22,23
 558 -430 558 -430 520 -423 c 0,24,25
 359 -393 359 -393 246 -259 c 0,26,27
 130 -121 130 -121 130 79 c 24,28,29
 130 134 130 134 148 169 c 0,30,31
 165 202 165 202 204 235 c 2,32,-1
 372 376 l 2,33,34
 499 483 499 483 532 643 c 1,35,-1
 734 812 l 1,36,-1
 744 812 l 1,37,38
 744 577 744 577 559 434 c 0,39,40
 441 342 441 342 413 309 c 0,41,42
 330 211 330 211 330 79 c 0,43,44
 330 -60 330 -60 411 -151 c 0,45,46
 499 -250 499 -250 625 -250 c 0,47,48
 752 -250 752 -250 837 -151 c 0,49,50
 920 -56 920 -56 920 79 c 16,51,52
 920 208 920 208 849 296 c 1,53,-1
 994 417 l 1,54,-1
 1004 417 l 1,55,56
 1120 279 1120 279 1120 79 c 0,57,58
 1120 24 1120 24 1102 -11 c 0,59,60
 1082 -48 1082 -48 1046 -77 c 2,61,-1
 668 -394 l 2,62,63
 625 -430 625 -430 591 -430 c 0,22,23
EndSplineSet
Validated: 1
EndChar

StartChar: emdash
Encoding: 8212 8212 130
Width: 1474
GlyphClass: 2
Flags: W
HStem: 679 151<249 1226>
LayerCount: 2
Fore
SplineSet
130 679 m 1,0,-1
 130 689 l 1,1,-1
 249 830 l 1,2,-1
 1344 830 l 1,3,-1
 1344 820 l 1,4,-1
 1226 679 l 1,5,-1
 130 679 l 1,0,-1
EndSplineSet
Validated: 1
EndChar

StartChar: quoteleft
Encoding: 8216 8216 131
Width: 321
GlyphClass: 2
Flags: W
HStem: 1168 472
VStem: 30 152<1316.73 1486.77>
LayerCount: 2
Fore
SplineSet
251 1640 m 1,0,-1
 261 1640 l 1,1,-1
 305 1603 l 1,2,3
 182 1519 182 1519 182 1409 c 0,4,5
 182 1319 182 1319 279 1293 c 1,6,-1
 130 1168 l 1,7,-1
 120 1168 l 1,8,9
 30 1244 30 1244 30 1353 c 0,10,11
 30 1511 30 1511 251 1640 c 1,0,-1
EndSplineSet
Validated: 1
EndChar

StartChar: quoteright
Encoding: 8217 8217 132
Width: 321
GlyphClass: 2
Flags: W
HStem: 1168 472
VStem: 139 152<1321.23 1491.27>
LayerCount: 2
Fore
SplineSet
191 1640 m 1,0,-1
 201 1640 l 1,1,2
 291 1564 291 1564 291 1455 c 0,3,4
 291 1297 291 1297 70 1168 c 1,5,-1
 60 1168 l 1,6,-1
 16 1205 l 1,7,8
 139 1289 139 1289 139 1399 c 0,9,10
 139 1489 139 1489 42 1515 c 1,11,-1
 191 1640 l 1,0,-1
EndSplineSet
Validated: 1
EndChar

StartChar: quotesinglbase
Encoding: 8218 8218 133
Width: 321
GlyphClass: 2
Flags: W
HStem: -252 472
VStem: 139 152<-98.7715 71.2704>
LayerCount: 2
Fore
SplineSet
191 220 m 1,0,-1
 201 220 l 1,1,2
 291 144 291 144 291 35 c 0,3,4
 291 -123 291 -123 70 -252 c 1,5,-1
 60 -252 l 1,6,-1
 16 -215 l 1,7,8
 139 -131 139 -131 139 -21 c 0,9,10
 139 69 139 69 42 95 c 1,11,-1
 191 220 l 1,0,-1
EndSplineSet
Validated: 1
EndChar

StartChar: quotereversed
Encoding: 8219 8219 134
Width: 321
GlyphClass: 2
Flags: W
HStem: 1168 472
VStem: 30 152<1321.23 1491.27>
LayerCount: 2
Fore
SplineSet
130 1640 m 1,0,-1
 279 1515 l 1,1,2
 182 1489 182 1489 182 1399 c 0,3,4
 182 1289 182 1289 305 1205 c 1,5,-1
 261 1168 l 1,6,-1
 251 1168 l 1,7,8
 30 1297 30 1297 30 1455 c 0,9,10
 30 1564 30 1564 120 1640 c 1,11,-1
 130 1640 l 1,0,-1
EndSplineSet
Validated: 1
EndChar

StartChar: quotedblleft
Encoding: 8220 8220 135
Width: 610
GlyphClass: 2
Flags: W
HStem: 1168 472
VStem: 30 152<1316.73 1486.77> 319 152<1316.73 1486.77>
LayerCount: 2
Fore
SplineSet
251 1640 m 1,0,-1
 261 1640 l 1,1,-1
 305 1603 l 1,2,3
 182 1519 182 1519 182 1409 c 0,4,5
 182 1319 182 1319 279 1293 c 1,6,-1
 130 1168 l 1,7,-1
 120 1168 l 1,8,9
 30 1244 30 1244 30 1353 c 0,10,11
 30 1511 30 1511 251 1640 c 1,0,-1
540 1640 m 1,12,-1
 550 1640 l 1,13,-1
 594 1603 l 1,14,15
 471 1519 471 1519 471 1409 c 0,16,17
 471 1319 471 1319 568 1293 c 1,18,-1
 419 1168 l 1,19,-1
 409 1168 l 1,20,21
 319 1244 319 1244 319 1353 c 0,22,23
 319 1511 319 1511 540 1640 c 1,12,-1
EndSplineSet
Validated: 1
EndChar

StartChar: quotedblright
Encoding: 8221 8221 136
Width: 610
GlyphClass: 2
Flags: W
HStem: 1168 472
VStem: 139 152<1321.23 1491.27> 428 152<1321.23 1491.27>
LayerCount: 2
Fore
SplineSet
480 1640 m 1,0,-1
 490 1640 l 1,1,2
 580 1564 580 1564 580 1455 c 0,3,4
 580 1297 580 1297 359 1168 c 1,5,-1
 349 1168 l 1,6,-1
 305 1205 l 1,7,8
 428 1289 428 1289 428 1399 c 0,9,10
 428 1489 428 1489 331 1515 c 1,11,-1
 480 1640 l 1,0,-1
191 1640 m 1,12,-1
 201 1640 l 1,13,14
 291 1564 291 1564 291 1455 c 0,15,16
 291 1297 291 1297 70 1168 c 1,17,-1
 60 1168 l 1,18,-1
 16 1205 l 1,19,20
 139 1289 139 1289 139 1399 c 0,21,22
 139 1489 139 1489 42 1515 c 1,23,-1
 191 1640 l 1,12,-1
EndSplineSet
Validated: 1
EndChar

StartChar: quotedblbase
Encoding: 8222 8222 137
Width: 610
GlyphClass: 2
Flags: W
HStem: -252 472
VStem: 139 152<-98.7715 71.2704> 428 152<-98.7715 71.2704>
LayerCount: 2
Fore
SplineSet
480 220 m 1,0,-1
 490 220 l 1,1,2
 580 144 580 144 580 35 c 0,3,4
 580 -123 580 -123 359 -252 c 1,5,-1
 349 -252 l 1,6,-1
 305 -215 l 1,7,8
 428 -131 428 -131 428 -21 c 0,9,10
 428 69 428 69 331 95 c 1,11,-1
 480 220 l 1,0,-1
191 220 m 1,12,-1
 201 220 l 1,13,14
 291 144 291 144 291 35 c 0,15,16
 291 -123 291 -123 70 -252 c 1,17,-1
 60 -252 l 1,18,-1
 16 -215 l 1,19,20
 139 -131 139 -131 139 -21 c 0,21,22
 139 69 139 69 42 95 c 1,23,-1
 191 220 l 1,12,-1
EndSplineSet
Validated: 1
EndChar

StartChar: dagger
Encoding: 8224 8224 138
Width: 1174
GlyphClass: 2
Flags: W
HStem: -40 21G<487 520.899> 1000 180<272 487 687 902> 1530 20G<653.101 687>
VStem: 487 200<119 1000 1180 1391>
LayerCount: 2
Fore
SplineSet
497 -40 m 1,0,-1
 487 -40 l 1,1,-1
 487 1000 l 1,2,-1
 130 1000 l 1,3,-1
 130 1010 l 1,4,-1
 272 1180 l 1,5,-1
 487 1180 l 1,6,-1
 487 1391 l 1,7,-1
 677 1550 l 1,8,-1
 687 1550 l 1,9,-1
 687 1180 l 1,10,-1
 1044 1180 l 1,11,-1
 1044 1170 l 1,12,-1
 902 1000 l 1,13,-1
 687 1000 l 1,14,-1
 687 119 l 1,15,-1
 497 -40 l 1,0,-1
EndSplineSet
Validated: 1
EndChar

StartChar: daggerdbl
Encoding: 8225 8225 139
Width: 1174
GlyphClass: 2
Flags: W
HStem: -40 21G<487 520.899> 330 180<272 487 687 902> 1000 180<272 487 687 902> 1530 20G<653.101 687>
VStem: 487 200<119 330 510 1000 1180 1391>
LayerCount: 2
Fore
SplineSet
487 -40 m 1,0,-1
 487 330 l 1,1,-1
 130 330 l 1,2,-1
 130 340 l 1,3,-1
 272 510 l 1,4,-1
 487 510 l 1,5,-1
 487 1000 l 1,6,-1
 130 1000 l 1,7,-1
 130 1010 l 1,8,-1
 272 1180 l 1,9,-1
 487 1180 l 1,10,-1
 487 1391 l 1,11,-1
 677 1550 l 1,12,-1
 687 1550 l 1,13,-1
 687 1180 l 1,14,-1
 1044 1180 l 1,15,-1
 1044 1170 l 1,16,-1
 902 1000 l 1,17,-1
 687 1000 l 1,18,-1
 687 510 l 1,19,-1
 1044 510 l 1,20,-1
 1044 500 l 1,21,-1
 902 330 l 1,22,-1
 687 330 l 1,23,-1
 687 119 l 1,24,-1
 497 -40 l 1,25,-1
 487 -40 l 1,0,-1
EndSplineSet
Validated: 1
EndChar

StartChar: bullet
Encoding: 8226 8226 140
Width: 913
GlyphClass: 2
Flags: W
HStem: 410 674<387 526>
VStem: 130 653<650.131 846.995>
LayerCount: 2
Fore
SplineSet
479 1084 m 0,0,1
 493 1084 493 1084 526 1078 c 0,2,3
 632 1059 632 1059 706 970 c 0,4,5
 783 879 783 879 783 747 c 0,6,7
 783 716 783 716 771 689 c 0,8,9
 761 666 761 666 735 644 c 2,10,-1
 484 434 l 2,11,12
 455 410 455 410 433 410 c 0,13,14
 419 410 419 410 387 416 c 0,15,16
 280 436 280 436 207 524 c 0,17,18
 130 615 130 615 130 747 c 0,19,20
 130 785 130 785 142 806 c 0,21,22
 155 831 155 831 178 850 c 2,23,-1
 429 1060 l 2,24,25
 458 1084 458 1084 479 1084 c 0,0,1
EndSplineSet
Validated: 1
EndChar

StartChar: ellipsis
Encoding: 8230 8230 141
Width: 986
GlyphClass: 2
Flags: W
HStem: -20 252<94.8813 213.536 433.881 552.536 772.881 891.536>
VStem: 30 248<42.4788 169.521> 369 248<42.4788 169.521> 708 248<42.4788 169.521>
CounterMasks: 1 70
LayerCount: 2
Fore
SplineSet
820 -20 m 0,0,1
 807 -20 807 -20 791 -14 c 0,2,3
 759 -2 759 -2 737 27 c 0,4,5
 708 65 708 65 708 104 c 0,6,7
 708 133 708 133 731 152 c 2,8,-1
 809 218 l 2,9,10
 826 232 826 232 844 232 c 0,11,12
 857 232 857 232 873 226 c 0,13,14
 906 213 906 213 927 185 c 0,15,16
 956 147 956 147 956 108 c 0,17,18
 956 79 956 79 933 60 c 2,19,-1
 855 -6 l 2,20,21
 838 -20 838 -20 820 -20 c 0,0,1
481 -20 m 0,22,23
 468 -20 468 -20 452 -14 c 0,24,25
 420 -2 420 -2 398 27 c 0,26,27
 369 65 369 65 369 104 c 0,28,29
 369 133 369 133 392 152 c 2,30,-1
 470 218 l 2,31,32
 487 232 487 232 505 232 c 0,33,34
 518 232 518 232 534 226 c 0,35,36
 567 213 567 213 588 185 c 0,37,38
 617 147 617 147 617 108 c 0,39,40
 617 79 617 79 594 60 c 2,41,-1
 516 -6 l 2,42,43
 499 -20 499 -20 481 -20 c 0,22,23
142 -20 m 0,44,45
 129 -20 129 -20 113 -14 c 0,46,47
 81 -2 81 -2 59 27 c 0,48,49
 30 65 30 65 30 104 c 0,50,51
 30 133 30 133 53 152 c 2,52,-1
 131 218 l 2,53,54
 148 232 148 232 166 232 c 0,55,56
 179 232 179 232 195 226 c 0,57,58
 228 213 228 213 249 185 c 0,59,60
 278 147 278 147 278 108 c 0,61,62
 278 79 278 79 255 60 c 2,63,-1
 177 -6 l 2,64,65
 160 -20 160 -20 142 -20 c 0,44,45
EndSplineSet
Validated: 1
EndChar

StartChar: perthousand
Encoding: 8240 8240 142
Width: 2254
GlyphClass: 2
Flags: W
HStem: -40 21G<167.137 210.79> -20 159<970.024 1136.73 1682.02 1848.73> 494 160<1034.62 1200.31 1746.62 1912.31> 856 159<341.024 507.73> 1370 160<405.622 571.649> 1530 20G<1331.2 1375.03>
VStem: 130 158<1067.95 1292.59> 626 157<1092.8 1315.27> 759 158<191.945 416.59> 1255 157<216.679 439.271> 1471 158<191.945 416.59> 1967 157<216.679 439.271>
DStem2: 98 62 194 -40 0.642963 0.765897<0 1927.73> 1209 192.5 1364 214 0.790032 0.613065<-128.835 88.3982 445.16 647.524>
LayerCount: 2
Fore
SplineSet
1797 494 m 128,-1,1
 1722 494 1722 494 1675.5 440.5 c 128,-1,2
 1629 387 1629 387 1629 314.5 c 128,-1,3
 1629 242 1629 242 1674 190.5 c 128,-1,4
 1719 139 1719 139 1797 139 c 128,-1,5
 1875 139 1875 139 1921 192.5 c 128,-1,6
 1967 246 1967 246 1967 319 c 128,-1,7
 1967 392 1967 392 1919.5 443 c 128,-1,0
 1872 494 1872 494 1797 494 c 128,-1,1
1774 -20 m 0,8,9
 1760 -20 1760 -20 1728 -14 c 0,10,11
 1621 6 1621 6 1548 94 c 0,12,13
 1471 185 1471 185 1471 317 c 0,14,15
 1471 355 1471 355 1483 376 c 0,16,17
 1496 401 1496 401 1519 420 c 2,18,-1
 1770 630 l 2,19,20
 1799 654 1799 654 1820 654 c 0,21,22
 1834 654 1834 654 1867 648 c 0,23,24
 1971 629 1971 629 2047 540 c 0,25,26
 2124 449 2124 449 2124 317 c 0,27,28
 2124 286 2124 286 2112 259 c 0,29,30
 2101 234 2101 234 2076 214 c 2,31,-1
 1825 4 l 2,32,33
 1796 -20 1796 -20 1774 -20 c 0,8,9
1085 494 m 128,-1,35
 1010 494 1010 494 963.5 440.5 c 128,-1,36
 917 387 917 387 917 314.5 c 128,-1,37
 917 242 917 242 962 190.5 c 128,-1,38
 1007 139 1007 139 1085 139 c 128,-1,39
 1163 139 1163 139 1209 192.5 c 128,-1,40
 1255 246 1255 246 1255 319 c 128,-1,41
 1255 392 1255 392 1207.5 443 c 128,-1,34
 1160 494 1160 494 1085 494 c 128,-1,35
1062 -20 m 0,42,43
 1048 -20 1048 -20 1016 -14 c 0,44,45
 909 6 909 6 836 94 c 0,46,47
 759 185 759 185 759 317 c 0,48,49
 759 355 759 355 771 376 c 0,50,51
 784 401 784 401 807 420 c 2,52,-1
 1058 630 l 2,53,54
 1087 654 1087 654 1108 654 c 0,55,56
 1122 654 1122 654 1155 648 c 0,57,58
 1259 629 1259 629 1335 540 c 0,59,60
 1412 449 1412 449 1412 317 c 0,61,62
 1412 286 1412 286 1400 259 c 0,63,64
 1389 234 1389 234 1364 214 c 2,65,-1
 1113 4 l 2,66,67
 1084 -20 1084 -20 1062 -20 c 0,42,43
456 1370 m 128,-1,69
 381 1370 381 1370 334.5 1316.5 c 128,-1,70
 288 1263 288 1263 288 1190.5 c 128,-1,71
 288 1118 288 1118 333 1066.5 c 128,-1,72
 378 1015 378 1015 456 1015 c 128,-1,73
 534 1015 534 1015 580 1068.5 c 128,-1,74
 626 1122 626 1122 626 1195 c 128,-1,75
 626 1268 626 1268 578.5 1319 c 128,-1,68
 531 1370 531 1370 456 1370 c 128,-1,69
479 1530 m 0,76,77
 493 1530 493 1530 526 1524 c 0,78,79
 632 1505 632 1505 706 1416 c 0,80,81
 783 1325 783 1325 783 1193 c 0,82,83
 783 1162 783 1162 771 1135 c 0,84,85
 761 1112 761 1112 735 1090 c 2,86,-1
 484 880 l 2,87,88
 455 856 455 856 433 856 c 0,89,90
 419 856 419 856 387 862 c 0,91,92
 280 882 280 882 207 970 c 0,93,94
 130 1061 130 1061 130 1193 c 0,95,96
 130 1231 130 1231 142 1252 c 0,97,98
 155 1277 155 1277 178 1296 c 2,99,-1
 429 1506 l 2,100,101
 458 1530 458 1530 479 1530 c 0,76,77
194 -40 m 1,102,-1
 184 -40 l 1,103,-1
 98 62 l 1,104,-1
 1348 1550 l 1,105,-1
 1358 1550 l 1,106,-1
 1444 1449 l 1,107,-1
 194 -40 l 1,102,-1
EndSplineSet
Validated: 1
EndChar

StartChar: minute
Encoding: 8242 8242 143
Width: 378
GlyphClass: 2
Flags: W
HStem: 1100 450
VStem: 30 318
LayerCount: 2
Fore
SplineSet
188 1550 m 1,0,-1
 198 1550 l 1,1,-1
 348 1424 l 1,2,-1
 143 1100 l 1,3,-1
 133 1100 l 1,4,-1
 30 1187 l 1,5,-1
 188 1550 l 1,0,-1
EndSplineSet
Validated: 1
EndChar

StartChar: second
Encoding: 8243 8243 144
Width: 644
GlyphClass: 2
Flags: W
HStem: 1100 450
VStem: 30 584
LayerCount: 2
Fore
SplineSet
454 1550 m 1,0,-1
 464 1550 l 1,1,-1
 614 1424 l 1,2,-1
 409 1100 l 1,3,-1
 399 1100 l 1,4,-1
 296 1187 l 1,5,-1
 454 1550 l 1,0,-1
188 1550 m 1,6,-1
 198 1550 l 1,7,-1
 348 1424 l 1,8,-1
 143 1100 l 1,9,-1
 133 1100 l 1,10,-1
 30 1187 l 1,11,-1
 188 1550 l 1,6,-1
EndSplineSet
Validated: 1
EndChar

StartChar: guilsinglleft
Encoding: 8249 8249 145
Width: 728
GlyphClass: 2
Flags: W
VStem: 130 418
DStem2: 284 789 130 753 0.509697 -0.860354<0 429.955> 130 753 284 789 0.538107 0.842876<113.212 603.38>
LayerCount: 2
Fore
SplineSet
469 1284 m 1,0,-1
 479 1284 l 1,1,-1
 548 1202 l 1,2,-1
 284 789 l 1,3,-1
 503 419 l 1,4,-1
 406 304 l 1,5,-1
 396 304 l 1,6,-1
 130 753 l 1,7,-1
 469 1284 l 1,0,-1
EndSplineSet
Validated: 1
EndChar

StartChar: guilsinglright
Encoding: 8250 8250 146
Width: 728
GlyphClass: 2
Flags: W
VStem: 180 418
DStem2: 180 386 259 304 0.538107 0.842876<0 490.168> 332 1284 225 1169 0.509697 -0.860354<44.4031 474.358>
LayerCount: 2
Fore
SplineSet
332 1284 m 1,0,-1
 598 835 l 1,1,-1
 259 304 l 1,2,-1
 249 304 l 1,3,-1
 180 386 l 1,4,-1
 444 799 l 1,5,-1
 225 1169 l 1,6,-1
 322 1284 l 1,7,-1
 332 1284 l 1,0,-1
EndSplineSet
Validated: 1
EndChar

StartChar: Euro
Encoding: 8364 8364 147
Width: 1317
GlyphClass: 2
Flags: W
HStem: -20 180<528.068 734.971> 541 100<106 180 380 864> 741 100<106 180 380 864> 1350 180<634.626 841.233>
VStem: 180 200<317.28 541 641 741 841 1136.47>
DStem2: 902 259 728 16 0.764656 0.644439<-182.474 336.053>
LayerCount: 2
Fore
SplineSet
651 -20 m 0,0,1
 618 -20 618 -20 580 -13 c 0,2,3
 413 18 413 18 301 151 c 0,4,5
 180 296 180 296 180 500 c 2,6,-1
 180 541 l 1,7,-1
 30 541 l 1,8,-1
 30 551 l 1,9,-1
 106 641 l 1,10,-1
 180 641 l 1,11,-1
 180 741 l 1,12,-1
 30 741 l 1,13,-1
 30 751 l 1,14,-1
 106 841 l 1,15,-1
 180 841 l 1,16,-1
 180 1010 l 2,17,18
 180 1064 180 1064 198 1101 c 0,19,20
 213 1133 213 1133 254 1167 c 2,21,-1
 642 1494 l 2,22,23
 685 1530 685 1530 719 1530 c 0,24,25
 752 1530 752 1530 790 1523 c 0,26,27
 957 1492 957 1492 1069 1359 c 0,28,29
 1144 1269 1144 1269 1173 1155 c 1,30,-1
 1000 1010 l 1,31,-1
 990 1010 l 1,32,33
 990 1154 990 1154 904 1251 c 0,34,35
 816 1350 816 1350 685 1350 c 0,36,37
 553 1350 553 1350 468 1251 c 0,38,39
 380 1150 380 1150 380 1010 c 2,40,-1
 380 841 l 1,41,-1
 940 841 l 1,42,-1
 940 831 l 1,43,-1
 864 741 l 1,44,-1
 380 741 l 1,45,-1
 380 641 l 1,46,-1
 940 641 l 1,47,-1
 940 631 l 1,48,-1
 864 541 l 1,49,-1
 380 541 l 1,50,-1
 380 500 l 2,51,52
 380 356 380 356 466 259 c 0,53,54
 554 160 554 160 672 160 c 0,55,56
 785 160 785 160 902 259 c 2,57,-1
 1187 500 l 1,58,59
 1187 439 1187 439 1172 409 c 0,60,61
 1156 377 1156 377 1116 343 c 2,62,-1
 728 16 l 2,63,64
 685 -20 685 -20 651 -20 c 0,0,1
EndSplineSet
Validated: 1
EndChar

StartChar: afii61248
Encoding: 8453 8453 148
Width: 1542
GlyphClass: 2
Flags: W
HStem: -40 132<1045.1 1198.96> 644 132<1080.04 1233.89> 734 132<307.614 461.643> 1418 132<343.039 497.232>
VStem: 130 140<902.544 1363.99> 867 140<128.544 589.993> 1272 140<146.007 597.9>
DStem2: 98 62 194 -40 0.642963 0.765897<0 1927.73> 674 1057 437 757 0.763685 0.645589<-334.435 -32.4355>
LayerCount: 2
Fore
SplineSet
194 -40 m 1,0,-1
 184 -40 l 1,1,-1
 98 62 l 1,2,-1
 1348 1550 l 1,3,-1
 1358 1550 l 1,4,-1
 1444 1449 l 1,5,-1
 194 -40 l 1,0,-1
1136 92 m 0,6,7
 1191 92 1191 92 1233 134 c 0,8,9
 1272 172 1272 172 1272 241 c 2,10,-1
 1272 495 l 2,11,12
 1272 558 1272 558 1234 601 c 128,-1,13
 1196 644 1196 644 1143 644 c 0,14,15
 1088 644 1088 644 1046 602 c 0,16,17
 1007 564 1007 564 1007 495 c 2,18,-1
 1007 241 l 2,19,20
 1007 178 1007 178 1046 135 c 0,21,22
 1083 92 1083 92 1136 92 c 0,6,7
1125 -40 m 0,23,24
 1011 -40 1011 -40 939 46 c 128,-1,25
 867 132 867 132 867 240 c 2,26,-1
 867 496 l 2,27,28
 867 553 867 553 911 590 c 2,29,-1
 1105 753 l 2,30,31
 1132 776 1132 776 1158 776 c 0,32,33
 1174 776 1174 776 1196 772 c 0,34,35
 1283 756 1283 756 1337 694 c 0,36,37
 1412 607 1412 607 1412 496 c 2,38,-1
 1412 240 l 2,39,40
 1412 183 1412 183 1368 146 c 2,41,-1
 1174 -17 l 2,42,43
 1147 -40 1147 -40 1125 -40 c 0,23,24
421 1550 m 0,44,45
 437 1550 437 1550 459 1546 c 0,46,47
 548 1528 548 1528 600 1468 c 0,48,49
 649 1412 649 1412 665 1350 c 1,50,-1
 545 1249 l 1,51,-1
 535 1249 l 1,52,-1
 535 1269 l 2,53,54
 535 1335 535 1335 497 1376 c 0,55,56
 458 1418 458 1418 406 1418 c 0,57,58
 351 1418 351 1418 309 1376 c 0,59,60
 270 1338 270 1338 270 1269 c 2,61,-1
 270 1015 l 2,62,63
 270 952 270 952 308 909 c 128,-1,64
 346 866 346 866 396 866 c 0,65,66
 445 866 445 866 498 910 c 2,67,-1
 674 1057 l 1,68,-1
 674 1014 l 2,69,70
 674 957 674 957 631 921 c 2,71,-1
 437 757 l 2,72,73
 410 734 410 734 388 734 c 0,74,75
 274 734 274 734 202 820 c 128,-1,76
 130 906 130 906 130 1014 c 2,77,-1
 130 1270 l 2,78,79
 130 1327 130 1327 174 1364 c 2,80,-1
 368 1527 l 2,81,82
 395 1550 395 1550 421 1550 c 0,44,45
EndSplineSet
Validated: 1
EndChar

StartChar: afii61289
Encoding: 8467 8467 149
Width: 918
GlyphClass: 2
Flags: W
HStem: -20 136<438.002 554.715> 0 21G<30 243> 1510 20G<612 683>
VStem: 212 155<466 819.618> 635 153<1042.58 1357.48>
LayerCount: 2
Fore
SplineSet
367 466 m 1,0,1
 478 708 478 708 534 860 c 0,2,3
 635 1134 635 1134 635 1359 c 1,4,5
 543 1238 543 1238 483 1067 c 0,6,7
 367 740 367 740 367 466 c 1,0,1
30 0 m 1,8,9
 151 158 151 158 224 282 c 1,10,11
 212 366 212 366 212 443 c 0,12,13
 212 629 212 629 259 848 c 0,14,15
 347 1251 347 1251 497 1434 c 0,16,17
 575 1530 575 1530 649 1530 c 0,18,19
 717 1530 717 1530 752 1479 c 0,20,21
 788 1429 788 1429 788 1318 c 0,22,23
 788 1226 788 1226 758 1072 c 0,24,25
 688 722 688 722 402 271 c 1,26,27
 434 116 434 116 491 116 c 0,28,29
 515 116 515 116 542.5 145 c 128,-1,30
 570 174 570 174 596 228 c 1,31,-1
 772 228 l 1,32,33
 695 100 695 100 630.5 40 c 128,-1,34
 566 -20 566 -20 482 -20 c 0,35,36
 362 -20 362 -20 285 90 c 1,37,-1
 231 0 l 1,38,-1
 30 0 l 1,8,9
EndSplineSet
Validated: 1
EndChar

StartChar: trademark
Encoding: 8482 8482 150
Width: 1834
GlyphClass: 2
Flags: W
HStem: 1408 132<915.99 1069.87 1322.19 1475.83> 1434 106<211 344 484 617>
VStem: 344 140<833 1434> 704 140<824 1362.62 1434 1439> 1109 140<824 1362.62> 1514 140<824 1364.65>
LayerCount: 2
Fore
SplineSet
834 1550 m 1,0,-1
 844 1550 l 1,1,-1
 844 1434 l 1,2,-1
 942 1517 l 2,3,4
 968 1539 968 1539 991 1539 c 0,5,6
 1133 1539 1133 1539 1214 1404 c 1,7,-1
 1347 1517 l 2,8,9
 1374 1540 1374 1540 1398 1540 c 0,10,11
 1419 1540 1419 1540 1438 1536 c 0,12,13
 1530 1517 1530 1517 1592 1443 c 0,14,15
 1654 1368 1654 1368 1654 1260 c 2,16,-1
 1654 824 l 1,17,-1
 1524 714 l 1,18,-1
 1514 714 l 1,19,-1
 1514 1259 l 2,20,21
 1514 1323 1514 1323 1476 1366 c 0,22,23
 1439 1408 1439 1408 1385 1408 c 0,24,25
 1324 1408 1324 1408 1286.5 1364 c 128,-1,26
 1249 1320 1249 1320 1249 1259 c 2,27,-1
 1249 824 l 1,28,-1
 1119 714 l 1,29,-1
 1109 714 l 1,30,-1
 1109 1259 l 2,31,32
 1109 1324 1109 1324 1071 1366 c 128,-1,33
 1033 1408 1033 1408 981 1408 c 0,34,35
 919 1408 919 1408 881.5 1364 c 128,-1,36
 844 1320 844 1320 844 1259 c 2,37,-1
 844 824 l 1,38,-1
 714 714 l 1,39,-1
 704 714 l 1,40,-1
 704 1439 l 1,41,-1
 834 1550 l 1,0,-1
354 724 m 1,42,-1
 344 724 l 1,43,-1
 344 1434 l 1,44,-1
 130 1434 l 1,45,-1
 130 1444 l 1,46,-1
 211 1540 l 1,47,-1
 698 1540 l 1,48,-1
 698 1530 l 1,49,-1
 617 1434 l 1,50,-1
 484 1434 l 1,51,-1
 484 833 l 1,52,-1
 354 724 l 1,42,-1
EndSplineSet
Validated: 1
EndChar

StartChar: uni2126
Encoding: 8486 8486 151
Width: 1370
GlyphClass: 2
Flags: W
HStem: 0 174<507.542 588 782 860.717> 0 130<231 512 863 1139> 1350 180<634.626 841.233>
VStem: 180 200<334.789 1136.47> 990 200<373.525 1188.78>
LayerCount: 2
Fore
SplineSet
130 0 m 1,0,-1
 130 10 l 1,1,-1
 231 130 l 1,2,-1
 512 130 l 1,3,4
 375 165 375 165 275 268 c 0,5,6
 180 366 180 366 180 500 c 2,7,-1
 180 1010 l 2,8,9
 180 1064 180 1064 198 1101 c 0,10,11
 213 1133 213 1133 254 1167 c 2,12,-1
 642 1494 l 2,13,14
 685 1530 685 1530 719 1530 c 0,15,16
 752 1530 752 1530 790 1523 c 0,17,18
 957 1492 957 1492 1069 1359 c 0,19,20
 1190 1215 1190 1215 1190 1010 c 2,21,-1
 1190 500 l 2,22,23
 1190 449 1190 449 1172 409 c 0,24,25
 1158 378 1158 378 1116 343 c 2,26,-1
 863 130 l 1,27,-1
 1240 130 l 1,28,-1
 1240 120 l 1,29,-1
 1139 0 l 1,30,-1
 782 0 l 1,31,-1
 782 173 l 1,32,33
 846 194 846 194 902 259 c 0,34,35
 990 360 990 360 990 500 c 2,36,-1
 990 1010 l 2,37,38
 990 1154 990 1154 904 1251 c 0,39,40
 816 1350 816 1350 685 1350 c 0,41,42
 553 1350 553 1350 468 1251 c 0,43,44
 380 1150 380 1150 380 1010 c 2,45,-1
 380 500 l 2,46,47
 380 356 380 356 466 259 c 0,48,49
 522 196 522 196 588 174 c 1,50,-1
 588 0 l 1,51,-1
 130 0 l 1,0,-1
EndSplineSet
Validated: 1
EndChar

StartChar: estimated
Encoding: 8494 8494 152
Width: 1290
GlyphClass: 2
Flags: W
HStem: -20 92<431.758 832.453> 525 80<328 963> 1036 84<448.183 832.399>
VStem: 80 248<309.991 525 605 788.181> 963 247<605 774.087>
LayerCount: 2
Fore
SplineSet
1084 204 m 1,0,1
 1012 113 1012 113 928 61 c 0,2,3
 797 -20 797 -20 645 -20 c 0,4,5
 389 -20 389 -20 236 139 c 0,6,7
 80 301 80 301 80 550 c 0,8,9
 80 788 80 788 229 952 c 24,10,11
 382 1120 382 1120 646 1120 c 0,12,13
 895 1120 895 1120 1044 964 c 280,14,15
 1210 790 1210 790 1210 525 c 1,16,-1
 328 525 l 1,17,-1
 328 192 l 1,18,19
 439 72 439 72 646 72 c 256,20,21
 769 72 769 72 860 132 c 0,22,23
 942 186 942 186 991 266 c 1,24,25
 1084 204 l 1,0,1
328 605 m 1,26,-1
 963 605 l 1,27,-1
 963 903 l 1,28,29
 832 1036 832 1036 646 1036 c 0,30,31
 455 1036 455 1036 328 914 c 1,32,-1
 328 605 l 1,26,-1
EndSplineSet
Validated: 1
EndChar

StartChar: partialdiff
Encoding: 8706 8706 153
Width: 1245
GlyphClass: 2
Flags: W
HStem: -20 153<379.379 643.581> 870 170<526.66 803.335> 1378 152<472 810.299>
VStem: 130 188<198.966 600.959> 932 183<930 1235.35>
LayerCount: 2
Fore
SplineSet
492 -20 m 0,0,1
 130 -20 130 -20 130 375 c 0,2,3
 130 631 130 631 266 815 c 0,4,5
 434 1040 434 1040 652 1040 c 0,6,7
 839 1040 839 1040 932 930 c 1,8,9
 932 1136 932 1136 887 1239 c 0,10,11
 826 1378 826 1378 658 1378 c 0,12,13
 527 1378 527 1378 400 1294 c 1,14,-1
 400 1468 l 1,15,16
 534 1530 534 1530 683 1530 c 0,17,18
 1115 1530 1115 1530 1115 934 c 0,19,20
 1115 545 1115 545 946.5 262.5 c 128,-1,21
 778 -20 778 -20 492 -20 c 0,0,1
505 133 m 0,22,23
 643 133 643 133 752.5 286 c 128,-1,24
 862 439 862 439 900 680 c 1,25,26
 878 765 878 765 814.5 817.5 c 128,-1,27
 751 870 751 870 675 870 c 0,28,29
 515 870 515 870 416.5 710 c 128,-1,30
 318 550 318 550 318 369 c 0,31,32
 318 133 318 133 505 133 c 0,22,23
EndSplineSet
Validated: 1
EndChar

StartChar: uni2206
Encoding: 8710 8710 154
Width: 1291
GlyphClass: 2
Flags: W
HStem: 0 130<192 1023> 1530 20G<692.118 733.226>
DStem2: 5 0 192 130 0.345453 0.938436<186.596 1406.79> 726 1550 611 1276 0.339794 -0.9405<218.621 1436.43>
LayerCount: 2
Fore
SplineSet
5 0 m 1,0,-1
 513 1380 l 1,1,-1
 716 1550 l 1,2,-1
 726 1550 l 1,3,-1
 1286 0 l 1,4,-1
 5 0 l 1,0,-1
192 130 m 1,5,-1
 1023 130 l 1,6,-1
 611 1276 l 1,7,-1
 192 130 l 1,5,-1
EndSplineSet
Validated: 1
EndChar

StartChar: product
Encoding: 8719 8719 155
Width: 1350
GlyphClass: 2
Flags: W
HStem: -450 21G<180 213.75 970 1003.9> 1380 130<380 970>
VStem: 180 200<-290 1380> 970 200<-291 1380>
LayerCount: 2
Fore
SplineSet
190 -450 m 1,0,-1
 180 -450 l 1,1,-1
 180 1389 l 1,2,-1
 324 1510 l 1,3,-1
 1170 1510 l 1,4,-1
 1170 -291 l 1,5,-1
 980 -450 l 1,6,-1
 970 -450 l 1,7,-1
 970 1380 l 1,8,-1
 380 1380 l 1,9,-1
 380 -290 l 1,10,-1
 190 -450 l 1,0,-1
EndSplineSet
Validated: 1
EndChar

StartChar: summation
Encoding: 8721 8721 156
Width: 1163
GlyphClass: 2
Flags: W
HStem: -410 130<348 932> 1382 128<346 841>
DStem2: 80 -410 348 -280 0.43812 0.898917<234.275 1102.44> 346 1382 121 1387 0.480833 -0.876812<0 806.667>
LayerCount: 2
Fore
SplineSet
80 -410 m 1,0,-1
 563 581 l 1,1,-1
 121 1387 l 1,2,-1
 267 1510 l 1,3,-1
 942 1510 l 1,4,-1
 942 1500 l 1,5,-1
 841 1380 l 1,6,-1
 346 1382 l 1,7,-1
 784 588 l 1,8,-1
 348 -280 l 1,9,-1
 1033 -280 l 1,10,-1
 1033 -290 l 1,11,-1
 932 -410 l 1,12,-1
 80 -410 l 1,0,-1
EndSplineSet
Validated: 1
EndChar

StartChar: uni2219
Encoding: 8729 8729 157
Width: 308
GlyphClass: 2
Flags: W
HStem: 627 252<94.8813 213.536>
VStem: 30 248<689.479 816.521>
LayerCount: 2
Fore
SplineSet
166 879 m 0,0,1
 179 879 179 879 195 873 c 0,2,3
 228 860 228 860 249 832 c 0,4,5
 278 794 278 794 278 755 c 0,6,7
 278 726 278 726 255 707 c 2,8,-1
 177 641 l 2,9,10
 160 627 160 627 142 627 c 0,11,12
 129 627 129 627 113 633 c 0,13,14
 81 645 81 645 59 674 c 0,15,16
 30 712 30 712 30 751 c 0,17,18
 30 780 30 780 53 799 c 2,19,-1
 131 865 l 2,20,21
 148 879 148 879 166 879 c 0,0,1
EndSplineSet
Validated: 1
EndChar

StartChar: radical
Encoding: 8730 8730 158
Width: 1233
GlyphClass: 2
Flags: W
HStem: -40 21G<488.707 528.882> 621 130<181 287> 1608 114<1207 1366>
DStem2: 438 751 287 621 0.300164 -0.953888<78.6806 557.596> 605 219 708 130 0.319879 0.947458<0 1496.39>
LayerCount: 2
Fore
SplineSet
505 -40 m 1,0,-1
 495 -40 l 1,1,-1
 287 621 l 1,2,-1
 80 621 l 1,3,-1
 80 631 l 1,4,-1
 181 751 l 1,5,-1
 438 751 l 1,6,-1
 605 219 l 1,7,-1
 1080 1638 l 1,8,-1
 1180 1722 l 1,9,-1
 1453 1722 l 1,10,-1
 1453 1712 l 1,11,-1
 1366 1608 l 1,12,-1
 1207 1608 l 1,13,-1
 708 130 l 1,14,-1
 505 -40 l 1,0,-1
EndSplineSet
Validated: 1
EndChar

StartChar: infinity
Encoding: 8734 8734 159
Width: 1700
GlyphClass: 2
Flags: W
HStem: 330 160<403.482 590.762 1033.48 1219.1> 1010 161<480.485 666.475 1109.48 1296.32>
VStem: 130 180<585.297 866.361> 760 180<586.699 912.807> 1390 180<634.139 914.608>
CounterMasks: 1 38
LayerCount: 2
Fore
SplineSet
567 1171 m 0,0,1
 609 1171 609 1171 638 1164 c 0,2,3
 755 1136 755 1136 828 1059 c 0,4,5
 940 940 940 940 940 751 c 24,6,7
 940 623 940 623 1007 557 c 0,8,9
 1075 490 1075 490 1166 490 c 0,10,11
 1260 490 1260 490 1325 556 c 0,12,13
 1390 623 1390 623 1390 750 c 24,14,15
 1390 878 1390 878 1323 943 c 0,16,17
 1253 1011 1253 1011 1164 1011 c 0,18,19
 1115 1011 1115 1011 1073 993 c 1,20,-1
 1022 1053 l 1,21,-1
 1120 1135 l 2,22,23
 1163 1171 1163 1171 1197 1171 c 0,24,25
 1239 1171 1239 1171 1268 1164 c 0,26,27
 1385 1136 1385 1136 1458 1059 c 0,28,29
 1570 940 1570 940 1570 751 c 24,30,31
 1570 709 1570 709 1552 672 c 0,32,33
 1537 640 1537 640 1496 606 c 2,34,-1
 1210 366 l 2,35,36
 1167 330 1167 330 1133 330 c 0,37,38
 1091 330 1091 330 1062 337 c 0,39,40
 946 365 946 365 872 442 c 0,41,42
 760 558 760 558 760 750 c 24,43,44
 760 877 760 877 693 943 c 0,45,46
 624 1010 624 1010 534 1010 c 0,47,48
 438 1010 438 1010 375 944 c 0,49,50
 310 877 310 877 310 750 c 152,-1,51
 310 623 310 623 377 557 c 0,52,53
 445 490 445 490 536 490 c 0,54,55
 586 490 586 490 627 508 c 1,56,-1
 678 448 l 1,57,-1
 580 366 l 2,58,59
 537 330 537 330 503 330 c 0,60,61
 461 330 461 330 432 337 c 0,62,63
 316 365 316 365 242 442 c 0,64,65
 130 558 130 558 130 750 c 24,66,67
 130 792 130 792 148 829 c 0,68,69
 163 861 163 861 204 895 c 2,70,-1
 490 1135 l 2,71,72
 533 1171 533 1171 567 1171 c 0,0,1
EndSplineSet
Validated: 1
EndChar

StartChar: approxequal
Encoding: 8776 8776 160
Width: 1238
GlyphClass: 2
Flags: W
HStem: 373 90<803.97 919.735> 654 97<318.391 439.957> 758 90<803.97 919.735> 1039 97<318.391 439.957>
VStem: 130 179<464.021 626.5 849.021 1011.5> 929 179<494 659.979 879 1044.98>
DStem2: 1049 1149 889 777 0.765012 0.644016<-220.063 -55.3529> 1049 764 889 392 0.765012 0.644016<-220.063 -55.3529>
LayerCount: 2
Fore
SplineSet
1059 764 m 1,0,1
 1108 699 1108 699 1108 609 c 24,2,3
 1108 576 1108 576 1085 557 c 2,4,-1
 889 392 l 2,5,6
 866 373 866 373 839 373 c 0,7,8
 623 373 623 373 533 499 c 0,9,10
 423 654 423 654 366 654 c 0,11,12
 309 653 309 653 309 600 c 0,13,14
 309 549 309 549 357 501 c 1,15,-1
 189 360 l 1,16,-1
 179 360 l 1,17,18
 130 425 130 425 130 515 c 24,19,20
 130 548 130 548 153 567 c 2,21,-1
 349 732 l 2,22,23
 372 751 372 751 399 751 c 0,24,25
 615 751 615 751 705 625 c 0,26,27
 822 463 822 463 869 463 c 0,28,29
 929 463 929 463 929 525 c 0,30,31
 929 575 929 575 881 623 c 1,32,-1
 1049 764 l 1,33,-1
 1059 764 l 1,0,1
1059 1149 m 1,34,35
 1108 1084 1108 1084 1108 994 c 24,36,37
 1108 961 1108 961 1085 942 c 2,38,-1
 889 777 l 2,39,40
 866 758 866 758 839 758 c 0,41,42
 623 758 623 758 533 884 c 0,43,44
 423 1039 423 1039 366 1039 c 0,45,46
 309 1038 309 1038 309 985 c 0,47,48
 309 934 309 934 357 886 c 1,49,-1
 189 745 l 1,50,-1
 179 745 l 1,51,52
 130 810 130 810 130 900 c 24,53,54
 130 933 130 933 153 952 c 2,55,-1
 349 1117 l 2,56,57
 372 1136 372 1136 399 1136 c 0,58,59
 615 1136 615 1136 705 1010 c 0,60,61
 822 848 822 848 869 848 c 0,62,63
 929 848 929 848 929 910 c 0,64,65
 929 960 929 960 881 1008 c 1,66,-1
 1049 1149 l 1,67,-1
 1059 1149 l 1,34,35
EndSplineSet
Validated: 1
EndChar

StartChar: notequal
Encoding: 8800 8800 161
Width: 1174
GlyphClass: 2
Flags: W
HStem: 502 151<249 357 585 926> 857 151<249 584 812 926>
DStem2: 246 328 325 246 0.538319 0.842741<0 206.39 456.381 627.762 877.753 1093.58>
LayerCount: 2
Fore
SplineSet
849 1272 m 1,0,-1
 859 1272 l 1,1,-1
 928 1190 l 1,2,-1
 812 1008 l 1,3,-1
 1044 1008 l 1,4,-1
 1044 998 l 1,5,-1
 926 857 l 1,6,-1
 715 857 l 1,7,-1
 585 653 l 1,8,-1
 1044 653 l 1,9,-1
 1044 643 l 1,10,-1
 926 502 l 1,11,-1
 489 502 l 1,12,-1
 325 246 l 1,13,-1
 315 246 l 1,14,-1
 246 328 l 1,15,-1
 357 502 l 1,16,-1
 130 502 l 1,17,-1
 130 512 l 1,18,-1
 249 653 l 1,19,-1
 454 653 l 1,20,-1
 584 857 l 1,21,-1
 130 857 l 1,22,-1
 130 867 l 1,23,-1
 249 1008 l 1,24,-1
 680 1008 l 1,25,-1
 849 1272 l 1,0,-1
EndSplineSet
Validated: 1
EndChar

StartChar: lessequal
Encoding: 8804 8804 162
Width: 1236
GlyphClass: 2
Flags: W
HStem: 191 151<249 926>
DStem2: 354 864 130 801 0.906294 -0.422647<0 741.641> 224 924 354 864 0.905729 0.423857<92.3133 844.624>
LayerCount: 2
Fore
SplineSet
130 191 m 1,0,-1
 130 201 l 1,1,-1
 249 342 l 1,2,-1
 1044 342 l 1,3,-1
 1044 332 l 1,4,-1
 926 191 l 1,5,-1
 130 191 l 1,0,-1
989 1282 m 1,6,-1
 1056 1202 l 1,7,-1
 1056 1192 l 1,8,-1
 354 864 l 1,9,-1
 1056 536 l 1,10,-1
 1056 526 l 1,11,-1
 962 413 l 1,12,-1
 130 801 l 1,13,-1
 130 811 l 1,14,-1
 224 924 l 1,15,-1
 989 1282 l 1,6,-1
EndSplineSet
Validated: 1
EndChar

StartChar: greaterequal
Encoding: 8805 8805 163
Width: 1236
GlyphClass: 2
Flags: W
HStem: 191 151<249 926>
DStem2: 274 1282 180 1159 0.906294 -0.422647<0 741.641> 180 503 247 413 0.905729 0.423857<22.5367 774.847>
LayerCount: 2
Fore
SplineSet
130 191 m 1,0,-1
 130 201 l 1,1,-1
 249 342 l 1,2,-1
 1044 342 l 1,3,-1
 1044 332 l 1,4,-1
 926 191 l 1,5,-1
 130 191 l 1,0,-1
274 1282 m 1,6,-1
 1106 894 l 1,7,-1
 1106 884 l 1,8,-1
 1012 771 l 1,9,-1
 247 413 l 1,10,-1
 180 493 l 1,11,-1
 180 503 l 1,12,-1
 882 831 l 1,13,-1
 180 1159 l 1,14,-1
 180 1169 l 1,15,-1
 274 1282 l 1,6,-1
EndSplineSet
Validated: 1
EndChar

StartChar: lozenge
Encoding: 9674 9674 164
Width: 1094
GlyphClass: 2
Flags: W
HStem: -20 21G<534.678 559.273> 1510 20G<535.207 558.838>
DStem2: 80 738 268 775 0.507923 0.861403<127.361 627.638> 268 775 80 738 0.524536 -0.851388<0 582.074> 547 1530 522 1206 0.509354 -0.860557<266.087 853.984> 571 278 547 -20 0.523035 0.852311<0 492.332>
LayerCount: 2
Fore
SplineSet
571 278 m 5,0,-1
 823 701 l 1,1,-1
 522 1206 l 1,2,-1
 268 775 l 1,3,-1
 571 278 l 5,0,-1
547 -20 m 1,4,-1
 80 738 l 1,5,-1
 547 1530 l 1,6,-1
 1014 741 l 1,7,-1
 547 -20 l 1,4,-1
EndSplineSet
Validated: 1
EndChar

StartChar: AE
Encoding: 198 198 165
Width: 1903
Flags: W
HStem: -40 21G<140 275> 0 130<1201.96 1772> 520 130<111 200 400 990 1190 1559> 1350 180<644.112 847.314> 1380 130<1055 1629>
VStem: 200 200<110 520 650 1149.35> 990 200<132.821 520 650 1198.47>
LayerCount: 2
Fore
SplineSet
400 650 m 1,0,-1
 990 650 l 1,1,-1
 990 1020 l 2,2,3
 990 1160 990 1160 909 1251 c 0,4,5
 821 1350 821 1350 695 1350 c 0,6,7
 570 1350 570 1350 483 1251 c 0,8,9
 400 1156 400 1156 400 1020 c 2,10,-1
 400 650 l 1,0,-1
1095 0 m 1,11,12
 990 76 990 76 990 220 c 2,13,-1
 990 520 l 1,14,-1
 400 520 l 1,15,-1
 400 268 l 2,16,17
 400 56 400 56 150 -40 c 1,18,-1
 140 -40 l 1,19,20
 200 106 200 106 200 268 c 2,21,-1
 200 520 l 1,22,-1
 5 520 l 1,23,-1
 5 530 l 1,24,-1
 111 650 l 1,25,-1
 200 650 l 1,26,-1
 200 1022 l 2,27,28
 200 1083 200 1083 218 1113 c 0,29,30
 241 1152 241 1152 274 1179 c 2,31,-1
 652 1494 l 2,32,33
 695 1530 695 1530 729 1530 c 0,34,35
 761 1530 761 1530 800 1523 c 0,36,37
 828 1518 828 1518 854 1510 c 1,38,-1
 1730 1510 l 1,39,-1
 1730 1500 l 1,40,-1
 1629 1380 l 1,41,-1
 1055 1380 l 1,42,43
 1065 1370 1065 1370 1074 1359 c 0,44,45
 1190 1217 1190 1217 1190 1022 c 2,46,-1
 1190 650 l 1,47,-1
 1660 650 l 1,48,-1
 1660 640 l 1,49,-1
 1559 520 l 1,50,-1
 1190 520 l 1,51,-1
 1190 240 l 2,52,53
 1190 166 1190 166 1235 130 c 1,54,-1
 1873 130 l 1,55,-1
 1873 120 l 1,56,-1
 1772 0 l 1,57,-1
 1095 0 l 1,11,12
EndSplineSet
Validated: 1
EndChar

StartChar: Eth
Encoding: 208 208 166
Width: 1293
Flags: W
HStem: -40 21G<180 379> 588 100<106 180 380 606> 1384 146<572.915 631.458> 1530 20G<346.101 380>
VStem: 180 200<100 588 688 1391> 1006 207<623.732 1053.95>
LayerCount: 2
Fore
SplineSet
380 100 m 1,0,1
 616 188 616 188 777 326 c 0,2,3
 1006 522 1006 522 1006 834 c 0,4,5
 1006 1077 1006 1077 826 1233 c 0,6,7
 677 1362 677 1362 416 1384 c 1,8,-1
 590 1530 l 1,9,10
 859 1507 859 1507 1034 1332 c 0,11,12
 1213 1153 1213 1153 1213 888 c 0,13,14
 1213 475 1213 475 850 220 c 0,15,16
 568 22 568 22 190 -40 c 1,17,-1
 180 -40 l 1,18,-1
 180 588 l 1,19,-1
 30 588 l 1,20,-1
 30 598 l 1,21,-1
 106 688 l 1,22,-1
 180 688 l 1,23,-1
 180 1391 l 1,24,-1
 370 1550 l 1,25,-1
 380 1550 l 1,26,-1
 380 688 l 1,27,-1
 682 688 l 1,28,-1
 682 678 l 1,29,-1
 606 588 l 1,30,-1
 380 588 l 1,31,-1
 380 100 l 1,0,1
EndSplineSet
Validated: 1
EndChar

StartChar: Hbar
Encoding: 294 294 167
Width: 1365
Flags: W
HStem: -40 21G<195 228.899 985 1018.9> 520 130<106 195 395 985> 1237 100<121 195 395 985 1185 1259> 1530 20G<361.101 395 1151.1 1185>
VStem: 195 200<119 520 650 1237 1337 1391> 985 200<119 520 650 1237 1337 1391>
LayerCount: 2
Fore
SplineSet
195 -40 m 1,0,-1
 195 520 l 1,1,-1
 5 520 l 1,2,-1
 5 530 l 1,3,-1
 106 650 l 1,4,-1
 195 650 l 1,5,-1
 195 1237 l 1,6,-1
 45 1237 l 1,7,-1
 45 1247 l 1,8,-1
 121 1337 l 1,9,-1
 195 1337 l 1,10,-1
 195 1391 l 1,11,-1
 385 1550 l 1,12,-1
 395 1550 l 1,13,-1
 395 1337 l 1,14,-1
 985 1337 l 1,15,-1
 985 1391 l 1,16,-1
 1175 1550 l 1,17,-1
 1185 1550 l 1,18,-1
 1185 1337 l 1,19,-1
 1335 1337 l 1,20,-1
 1335 1327 l 1,21,-1
 1259 1237 l 1,22,-1
 1185 1237 l 1,23,-1
 1185 119 l 1,24,-1
 995 -40 l 1,25,-1
 985 -40 l 1,26,-1
 985 520 l 1,27,-1
 395 520 l 1,28,-1
 395 119 l 1,29,-1
 205 -40 l 1,30,-1
 195 -40 l 1,0,-1
395 1237 m 1,31,-1
 395 650 l 1,32,-1
 985 650 l 1,33,-1
 985 1237 l 1,34,-1
 395 1237 l 1,31,-1
EndSplineSet
Validated: 1
EndChar

StartChar: Lslash
Encoding: 321 321 168
Width: 1083
Flags: W
HStem: 0 130<107 195 395 977> 1120 20G<678.202 735.934> 1530 20G<361.101 395>
VStem: 195 200<130 584 715 752 882 1391>
DStem2: 18 566 101 505 0.766014 0.642824<24.3668 147.155 491.92 892.934>
LayerCount: 2
Fore
SplineSet
5 0 m 1,0,-1
 5 8 l 1,1,-1
 107 130 l 1,2,-1
 195 130 l 1,3,-1
 195 584 l 1,4,-1
 101 505 l 1,5,-1
 91 505 l 1,6,-1
 18 566 l 1,7,-1
 195 715 l 1,8,-1
 195 1391 l 1,9,-1
 385 1550 l 1,10,-1
 395 1550 l 1,11,-1
 395 882 l 1,12,-1
 702 1140 l 1,13,-1
 712 1140 l 1,14,-1
 785 1079 l 1,15,-1
 395 752 l 1,16,-1
 395 130 l 1,17,-1
 1078 130 l 1,18,-1
 1078 120 l 1,19,-1
 977 0 l 1,20,-1
 5 0 l 1,0,-1
EndSplineSet
Validated: 1
EndChar

StartChar: Eng
Encoding: 330 330 169
Width: 1370
Flags: W
HStem: -370 10<768 774.883> -40 21G<180 213.899> 1350 180<633.563 841.233> 1530 20G<346.101 380>
VStem: 180 200<119 1187.59 1273 1391> 990 200<-191.461 1192.72>
LayerCount: 2
Fore
SplineSet
180 -40 m 1,0,-1
 180 1391 l 1,1,-1
 370 1550 l 1,2,-1
 380 1550 l 1,3,-1
 380 1273 l 1,4,-1
 642 1494 l 2,5,6
 685 1530 685 1530 719 1530 c 0,7,8
 752 1530 752 1530 790 1523 c 0,9,10
 957 1492 957 1492 1069 1359 c 0,11,12
 1190 1214 1190 1214 1190 1010 c 2,13,-1
 1190 0 l 2,14,15
 1190 -370 1190 -370 768 -370 c 1,16,-1
 768 -360 l 1,17,18
 990 -249 990 -249 990 0 c 2,19,-1
 990 1010 l 2,20,21
 990 1154 990 1154 904 1251 c 0,22,23
 816 1350 816 1350 685 1350 c 0,24,25
 553 1350 553 1350 468 1251 c 0,26,27
 380 1150 380 1150 380 1010 c 2,28,-1
 380 119 l 1,29,-1
 190 -40 l 1,30,-1
 180 -40 l 1,0,-1
EndSplineSet
Validated: 1
EndChar

StartChar: Oslash
Encoding: 216 216 170
Width: 1270
Flags: W
HStem: -20 168<483.075 685.257> 1361 169<584.581 787.14>
VStem: 130 190<321.216 1136.47> 950 190<373.525 1188.78>
DStem2: 221 -15 303 -76 0.422607 0.906313<0 120.733 354.318 1390.42 1625.33 1746.97>
LayerCount: 2
Fore
SplineSet
601 -20 m 0,0,1
 568 -20 568 -20 530 -13 c 0,2,3
 438 4 438 4 363 52 c 1,4,-1
 303 -76 l 1,5,-1
 293 -76 l 1,6,-1
 221 -15 l 1,7,-1
 282 117 l 1,8,9
 266 133 266 133 251 151 c 0,10,11
 130 295 130 295 130 500 c 2,12,-1
 130 1010 l 2,13,14
 130 1064 130 1064 148 1101 c 0,15,16
 163 1132 163 1132 204 1167 c 2,17,-1
 592 1494 l 2,18,19
 635 1530 635 1530 669 1530 c 0,20,21
 702 1530 702 1530 740 1523 c 0,22,23
 832 1506 832 1506 908 1458 c 1,24,-1
 968 1587 l 1,25,-1
 977 1587 l 1,26,-1
 1050 1526 l 1,27,-1
 988 1393 l 1,28,29
 1004 1377 1004 1377 1019 1359 c 0,30,31
 1140 1215 1140 1215 1140 1010 c 2,32,-1
 1140 500 l 2,33,34
 1140 446 1140 446 1122 409 c 0,35,36
 1107 378 1107 378 1066 343 c 2,37,-1
 678 16 l 2,38,39
 635 -20 635 -20 601 -20 c 0,0,1
635 148 m 0,40,41
 765 148 765 148 862 259 c 0,42,43
 950 360 950 360 950 500 c 2,44,-1
 950 1010 l 2,45,46
 950 1120 950 1120 899 1203 c 1,47,-1
 442 223 l 1,48,49
 529 148 529 148 635 148 c 0,40,41
371 306 m 1,50,-1
 828 1287 l 1,51,52
 742 1361 742 1361 635 1361 c 0,53,54
 504 1361 504 1361 408 1251 c 0,55,56
 320 1150 320 1150 320 1010 c 2,57,-1
 320 500 l 2,58,59
 320 389 320 389 371 306 c 1,50,-1
EndSplineSet
Validated: 19457
EndChar

StartChar: OE
Encoding: 338 338 171
Width: 1853
Flags: W
HStem: -20 180<478.767 685.109> 0 130<1140 1722> 520 130<1140 1509> 1350 180<584.626 791.589> 1380 130<1000 1579>
VStem: 130 200<321.216 1136.47> 940 200<130 237 322.406 520 650 1188.78>
LayerCount: 2
Fore
SplineSet
940 1010 m 2,0,1
 940 1154 940 1154 854 1251 c 0,2,3
 766 1350 766 1350 635 1350 c 0,4,5
 503 1350 503 1350 418 1251 c 0,6,7
 330 1150 330 1150 330 1010 c 2,8,-1
 330 500 l 2,9,10
 330 356 330 356 416 259 c 0,11,12
 504 160 504 160 635 160 c 0,13,14
 767 160 767 160 852 259 c 0,15,16
 940 360 940 360 940 500 c 2,17,-1
 940 1010 l 2,0,1
940 0 m 1,18,-1
 940 237 l 1,19,-1
 657 0 l 2,20,21
 633 -20 633 -20 601 -20 c 0,22,23
 568 -20 568 -20 530 -13 c 0,24,25
 363 18 363 18 251 151 c 0,26,27
 130 295 130 295 130 500 c 2,28,-1
 130 1010 l 2,29,30
 130 1064 130 1064 148 1101 c 0,31,32
 163 1133 163 1133 204 1167 c 2,33,-1
 592 1494 l 2,34,35
 635 1530 635 1530 669 1530 c 0,36,37
 702 1530 702 1530 740 1523 c 0,38,39
 768 1518 768 1518 794 1510 c 1,40,-1
 1680 1510 l 1,41,-1
 1680 1500 l 1,42,-1
 1579 1380 l 1,43,-1
 1000 1380 l 1,44,45
 1009 1370 1009 1370 1019 1359 c 0,46,47
 1140 1215 1140 1215 1140 1010 c 2,48,-1
 1140 650 l 1,49,-1
 1610 650 l 1,50,-1
 1610 640 l 1,51,-1
 1509 520 l 1,52,-1
 1140 520 l 1,53,-1
 1140 130 l 1,54,-1
 1823 130 l 1,55,-1
 1823 120 l 1,56,-1
 1722 0 l 1,57,-1
 940 0 l 1,18,-1
EndSplineSet
Validated: 19457
EndChar

StartChar: longs
Encoding: 383 383 172
Width: 958
Flags: W
HStem: -40 21G<265 298.704> 790 110<104 265> 1370 160<605.642 790.443>
VStem: 265 170<95 790 900 1218.95>
LayerCount: 2
Fore
SplineSet
265 -40 m 1,0,-1
 265 790 l 1,1,-1
 20 790 l 1,2,-1
 20 800 l 1,3,-1
 104 900 l 1,4,-1
 265 900 l 1,5,-1
 265 1093 l 2,6,7
 265 1150 265 1150 283 1184 c 0,8,9
 300 1215 300 1215 339 1250 c 2,10,-1
 615 1494 l 2,11,12
 656 1530 656 1530 692 1530 c 0,13,14
 734 1530 734 1530 763 1523 c 0,15,16
 878 1497 878 1497 953 1419 c 1,17,-1
 816 1304 l 1,18,19
 748 1370 748 1370 659 1370 c 0,20,21
 563 1370 563 1370 500 1304 c 0,22,23
 435 1237 435 1237 435 1110 c 2,24,-1
 435 95 l 1,25,-1
 275 -40 l 1,26,-1
 265 -40 l 1,0,-1
EndSplineSet
Validated: 19457
EndChar

StartChar: florin
Encoding: 402 402 173
Width: 903
Flags: W
HStem: -450 21G<50 220> 790 110<104 210 380 648> 1370 160<550.642 735.443>
VStem: 210 170<-207.871 790 900 1218.95>
LayerCount: 2
Fore
SplineSet
50 -450 m 1,0,1
 210 -233 210 -233 210 0 c 2,2,-1
 210 790 l 1,3,-1
 20 790 l 1,4,-1
 20 800 l 1,5,-1
 104 900 l 1,6,-1
 210 900 l 1,7,-1
 210 1093 l 2,8,9
 210 1150 210 1150 228 1184 c 0,10,11
 245 1216 245 1216 284 1250 c 2,12,-1
 560 1494 l 2,13,14
 601 1530 601 1530 637 1530 c 0,15,16
 679 1530 679 1530 708 1523 c 0,17,18
 823 1497 823 1497 898 1419 c 1,19,-1
 761 1304 l 1,20,21
 693 1370 693 1370 604 1370 c 0,22,23
 508 1370 508 1370 445 1304 c 0,24,25
 380 1237 380 1237 380 1110 c 2,26,-1
 380 900 l 1,27,-1
 732 900 l 1,28,-1
 732 890 l 1,29,-1
 648 790 l 1,30,-1
 380 790 l 1,31,-1
 380 0 l 2,32,33
 380 -311 380 -311 60 -450 c 1,34,-1
 50 -450 l 1,0,1
EndSplineSet
Validated: 19457
EndChar

StartChar: thorn
Encoding: 254 254 174
Width: 1100
Flags: W
HStem: -450 21G<180 213.704> -20 160<443.085 629.515> 960 160<520.735 706.146> 1530 20G<316.296 350>
VStem: 180 170<-315 57 233.895 869.196 933 1415> 800 180<284.983 866.105>
LayerCount: 2
Fore
SplineSet
574 960 m 0,0,1
 478 960 478 960 415 894 c 0,2,3
 350 827 350 827 350 700 c 2,4,-1
 350 400 l 2,5,6
 350 273 350 273 417 207 c 0,7,8
 486 140 486 140 576 140 c 0,9,10
 672 140 672 140 735 206 c 0,11,12
 800 273 800 273 800 400 c 2,13,-1
 800 700 l 2,14,15
 800 827 800 827 733 893 c 0,16,17
 664 960 664 960 574 960 c 0,0,1
543 -20 m 0,18,19
 506 -20 506 -20 473 -12 c 0,20,21
 407 4 407 4 350 57 c 1,22,-1
 350 -315 l 1,23,-1
 190 -450 l 1,24,-1
 180 -450 l 1,25,-1
 180 1415 l 1,26,-1
 340 1550 l 1,27,-1
 350 1550 l 1,28,-1
 350 933 l 1,29,-1
 530 1084 l 2,30,31
 573 1120 573 1120 607 1120 c 0,32,33
 649 1120 649 1120 678 1113 c 0,34,35
 792 1087 792 1087 868 1008 c 0,36,37
 980 889 980 889 980 700 c 2,38,-1
 980 413 l 2,39,40
 980 359 980 359 962 322 c 0,41,42
 947 290 947 290 906 256 c 2,43,-1
 620 16 l 2,44,45
 577 -20 577 -20 543 -20 c 0,18,19
EndSplineSet
Validated: 1
EndChar

StartChar: eth
Encoding: 240 240 175
Width: 1050
Flags: W
HStem: -20 160<393.854 579.515> 959 161<470.485 656.719> 1453 97<366 444.276>
VStem: 120 180<233.895 814.017> 750 180<284.983 865.105>
DStem2: 385 1365 391 1240 0.765569 0.643354<0 81.563 277.685 357.839>
LayerCount: 2
Fore
SplineSet
493 -20 m 0,0,1
 451 -20 451 -20 422 -13 c 0,2,3
 308 13 308 13 232 92 c 0,4,5
 120 211 120 211 120 400 c 2,6,-1
 120 687 l 2,7,8
 120 741 120 741 138 778 c 0,9,10
 153 810 153 810 194 844 c 2,11,-1
 480 1084 l 2,12,13
 523 1120 523 1120 560 1120 c 128,-1,14
 597 1120 597 1120 631 1111 c 0,15,16
 690 1095 690 1095 754 1041 c 1,17,18
 732 1212 732 1212 628 1312 c 0,19,20
 592 1346 592 1346 549 1372 c 1,21,-1
 391 1240 l 1,22,-1
 385 1248 l 1,23,-1
 385 1365 l 1,24,-1
 447 1418 l 1,25,26
 360 1447 360 1447 251 1453 c 1,27,-1
 366 1550 l 1,28,29
 471 1545 471 1545 561 1513 c 1,30,-1
 717 1644 l 1,31,-1
 723 1636 l 1,32,-1
 723 1519 l 1,33,-1
 662 1467 l 1,34,35
 717 1435 717 1435 764 1391 c 0,36,37
 930 1238 930 1238 930 936 c 2,38,-1
 930 413 l 2,39,40
 930 359 930 359 912 322 c 0,41,42
 897 290 897 290 856 256 c 2,43,-1
 570 16 l 2,44,45
 527 -20 527 -20 493 -20 c 0,0,1
526 140 m 0,46,47
 622 140 622 140 685 206 c 0,48,49
 750 273 750 273 750 400 c 2,50,-1
 750 699 l 2,51,52
 750 826 750 826 683 892 c 0,53,54
 614 959 614 959 524 959 c 0,55,56
 428 959 428 959 365 893 c 0,57,58
 300 826 300 826 300 699 c 2,59,-1
 300 400 l 2,60,61
 300 273 300 273 367 207 c 0,62,63
 436 140 436 140 526 140 c 0,46,47
EndSplineSet
Validated: 19457
EndChar

StartChar: oslash
Encoding: 248 248 176
Width: 1050
Flags: W
HStem: -20 153<404.497 579.166> 966 154<470.834 645.655>
VStem: 120 170<248.023 814.017> 760 170<284.983 851.977>
DStem2: 197 -35 279 -95 0.422603 0.906315<0 107.338 307.8 1028.49 1229.9 1337.62>
LayerCount: 2
Fore
SplineSet
526 133 m 0,0,1
 625 133 625 133 695 206 c 0,2,3
 760 273 760 273 760 400 c 2,4,-1
 760 699 l 2,5,6
 760 794 760 794 722 855 c 1,7,-1
 403 170 l 1,8,9
 460 133 460 133 526 133 c 0,0,1
493 -20 m 0,10,11
 451 -20 451 -20 422 -13 c 0,12,13
 374 -2 374 -2 332 19 c 1,14,-1
 279 -95 l 1,15,-1
 269 -95 l 1,16,-1
 197 -35 l 1,17,-1
 249 76 l 1,18,19
 240 84 240 84 232 92 c 0,20,21
 120 211 120 211 120 400 c 2,22,-1
 120 687 l 2,23,24
 120 741 120 741 138 778 c 0,25,26
 153 810 153 810 194 844 c 2,27,-1
 480 1084 l 2,28,29
 523 1120 523 1120 557 1120 c 0,30,31
 599 1120 599 1120 628 1113 c 0,32,33
 677 1101 677 1101 718 1081 c 1,34,-1
 771 1196 l 1,35,-1
 781 1196 l 1,36,-1
 853 1135 l 1,37,-1
 801 1024 l 1,38,39
 810 1016 810 1016 818 1008 c 0,40,41
 930 889 930 889 930 700 c 2,42,-1
 930 413 l 2,43,44
 930 359 930 359 912 322 c 0,45,46
 897 290 897 290 856 256 c 2,47,-1
 570 16 l 2,48,49
 527 -20 527 -20 493 -20 c 0,10,11
327 244 m 1,50,-1
 647 929 l 1,51,52
 590 966 590 966 524 966 c 0,53,54
 425 966 425 966 355 893 c 0,55,56
 290 826 290 826 290 699 c 2,57,-1
 290 400 l 2,58,59
 290 305 290 305 327 244 c 1,50,-1
EndSplineSet
Validated: 19457
EndChar

StartChar: oe
Encoding: 339 339 177
Width: 1660
Flags: W
HStem: -20 160<393.854 580.179 1023.79 1208.89> 959 161<470.485 656.475 1099.8 1287.61>
VStem: 120 180<233.895 814.017> 750 180<439 864.306>
DStem2: 930 439 937 325 0.765318 0.643652<0 583.106> 1560 413 1200 16 0.766021 0.642815<-464.592 -37.6888>
LayerCount: 2
Fore
SplineSet
1123 -20 m 0,0,1
 1081 -20 1081 -20 1052 -13 c 0,2,3
 936 15 936 15 862 92 c 0,4,5
 816 140 816 140 789 200 c 1,6,-1
 570 16 l 2,7,8
 527 -20 527 -20 493 -20 c 0,9,10
 451 -20 451 -20 422 -13 c 0,11,12
 308 13 308 13 232 92 c 0,13,14
 120 211 120 211 120 400 c 2,15,-1
 120 687 l 2,16,17
 120 741 120 741 138 778 c 0,18,19
 153 810 153 810 194 844 c 2,20,-1
 480 1084 l 2,21,22
 523 1120 523 1120 557 1120 c 0,23,24
 599 1120 599 1120 628 1113 c 0,25,26
 745 1085 745 1085 818 1008 c 0,27,28
 863 960 863 960 890 900 c 1,29,-1
 1110 1084 l 2,30,31
 1153 1120 1153 1120 1187 1120 c 0,32,33
 1229 1120 1229 1120 1258 1113 c 0,34,35
 1375 1085 1375 1085 1448 1008 c 0,36,37
 1517 934 1517 934 1545 836 c 1,38,-1
 937 325 l 1,39,40
 951 251 951 251 997 207 c 0,41,42
 1067 140 1067 140 1156 140 c 0,43,44
 1237 140 1237 140 1315 206 c 2,45,-1
 1560 413 l 1,46,47
 1560 359 1560 359 1542 322 c 0,48,49
 1527 290 1527 290 1486 256 c 2,50,-1
 1200 16 l 2,51,52
 1157 -20 1157 -20 1123 -20 c 0,0,1
930 439 m 1,53,-1
 1367 806 l 1,54,55
 1348 859 1348 859 1313 893 c 0,56,57
 1244 960 1244 960 1154 960 c 0,58,59
 1058 960 1058 960 995 894 c 0,60,61
 930 827 930 827 930 700 c 2,62,-1
 930 439 l 1,53,-1
526 140 m 0,63,64
 622 140 622 140 685 206 c 0,65,66
 750 273 750 273 750 400 c 2,67,-1
 750 699 l 2,68,69
 750 826 750 826 683 892 c 0,70,71
 614 959 614 959 524 959 c 0,72,73
 428 959 428 959 365 893 c 0,74,75
 300 826 300 826 300 699 c 2,76,-1
 300 400 l 2,77,78
 300 273 300 273 367 207 c 0,79,80
 436 140 436 140 526 140 c 0,63,64
EndSplineSet
Validated: 19457
EndChar

StartChar: eng
Encoding: 331 331 178
Width: 1120
Flags: W
HStem: -370 10<578 584.883> -40 21G<180 213.704> 960 160<520.735 706.146> 1120 20G<316.296 350>
VStem: 180 170<95 869.196 933 1005> 800 180<-191.461 866.105>
LayerCount: 2
Fore
SplineSet
180 -40 m 1,0,-1
 180 1005 l 1,1,-1
 340 1140 l 1,2,-1
 350 1140 l 1,3,-1
 350 933 l 1,4,-1
 530 1084 l 2,5,6
 573 1120 573 1120 607 1120 c 0,7,8
 649 1120 649 1120 678 1113 c 0,9,10
 792 1088 792 1088 868 1008 c 0,11,12
 980 889 980 889 980 700 c 2,13,-1
 980 0 l 2,14,15
 980 -370 980 -370 578 -370 c 1,16,-1
 578 -360 l 1,17,18
 800 -249 800 -249 800 0 c 2,19,-1
 800 700 l 2,20,21
 800 827 800 827 733 893 c 0,22,23
 664 960 664 960 574 960 c 0,24,25
 478 960 478 960 415 894 c 0,26,27
 350 827 350 827 350 700 c 2,28,-1
 350 95 l 1,29,-1
 190 -40 l 1,30,-1
 180 -40 l 1,0,-1
EndSplineSet
Validated: 1
EndChar

StartChar: ae
Encoding: 230 230 179
Width: 1620
Flags: W
HStem: -20 148<350.732 539.953 1001.91 1168.89> 612 149<430.509 618.321> 969 151<430.697 623.3 1059.8 1232.49>
VStem: 80 169<229.776 436.639> 720 170<439 511.607 674 866.766>
DStem2: 890 439 897 325 0.765318 0.643652<0 583.106> 1520 413 1160 16 0.766021 0.642815<-464.592 -37.6888>
LayerCount: 2
Fore
SplineSet
249 370 m 128,-1,1
 249 268 249 268 319 199 c 0,2,3
 390 128 390 128 486 128 c 0,4,5
 586 128 586 128 653 198 c 0,6,7
 721 268 721 268 721 370 c 128,-1,8
 721 472 721 472 651 541 c 0,9,10
 578 612 578 612 484 612 c 0,11,12
 383 612 383 612 317 542 c 0,13,0
 249 472 249 472 249 370 c 128,-1,1
1083 -20 m 0,14,15
 1041 -20 1041 -20 1012 -13 c 0,16,17
 896 15 896 15 822 92 c 0,18,19
 776 139 776 139 749 200 c 1,20,-1
 530 16 l 2,21,22
 487 -20 487 -20 453 -20 c 0,23,24
 411 -20 411 -20 382 -13 c 0,25,26
 266 15 266 15 192 92 c 0,27,28
 80 208 80 208 80 328 c 0,29,30
 80 382 80 382 98 419 c 0,31,32
 113 450 113 450 154 485 c 2,33,-1
 440 725 l 2,34,35
 483 761 483 761 517 761 c 0,36,37
 554 761 554 761 588 754 c 0,38,39
 659 740 659 740 720 674 c 1,40,-1
 720 690 l 2,41,42
 720 820 720 820 652 898 c 0,43,44
 591 969 591 969 484 969 c 0,45,46
 398 969 398 969 325 893 c 1,47,-1
 278 948 l 1,48,-1
 440 1084 l 2,49,50
 483 1120 483 1120 517 1120 c 0,51,52
 559 1120 559 1120 588 1113 c 0,53,54
 705 1085 705 1085 778 1008 c 0,55,56
 823 960 823 960 850 900 c 1,57,-1
 1070 1084 l 2,58,59
 1113 1120 1113 1120 1147 1120 c 0,60,61
 1189 1120 1189 1120 1218 1113 c 0,62,63
 1335 1085 1335 1085 1408 1008 c 0,64,65
 1477 934 1477 934 1505 836 c 1,66,-1
 897 325 l 1,67,68
 911 251 911 251 957 207 c 0,69,70
 1027 140 1027 140 1116 140 c 0,71,72
 1197 140 1197 140 1275 206 c 2,73,-1
 1520 413 l 1,74,75
 1520 359 1520 359 1502 322 c 0,76,77
 1487 290 1487 290 1446 256 c 2,78,-1
 1160 16 l 2,79,80
 1117 -20 1117 -20 1083 -20 c 0,14,15
890 439 m 1,81,-1
 1327 806 l 1,82,83
 1308 859 1308 859 1273 893 c 0,84,85
 1204 960 1204 960 1114 960 c 0,86,87
 1018 960 1018 960 955 894 c 0,88,89
 890 827 890 827 890 700 c 2,90,-1
 890 439 l 1,81,-1
EndSplineSet
Validated: 1
EndChar

StartChar: kgreenlandic
Encoding: 312 312 180
Width: 1120
Flags: W
HStem: -40 21G<180 213.704 800 833.776> 1120 20G<316.296 350 866.211 916.923>
VStem: 180 170<95 622.766 686 1005> 800 180<103 618.801>
DStem2: 890 1140 700 861 0.765426 0.643524<-324.974 0>
LayerCount: 2
Fore
SplineSet
180 -40 m 1,0,-1
 180 1005 l 1,1,-1
 340 1140 l 1,2,-1
 350 1140 l 1,3,-1
 350 686 l 1,4,-1
 890 1140 l 1,5,-1
 900 1140 l 1,6,-1
 955 1075 l 1,7,-1
 700 861 l 1,8,9
 800 834 800 834 868 761 c 0,10,11
 980 642 980 642 980 453 c 2,12,-1
 980 103 l 1,13,-1
 810 -40 l 1,14,-1
 800 -40 l 1,15,-1
 800 453 l 2,16,17
 800 579 800 579 733 646 c 0,18,19
 664 713 664 713 574 713 c 0,20,21
 480 713 480 713 415 647 c 0,22,23
 350 582 350 582 350 453 c 2,24,-1
 350 95 l 1,25,-1
 190 -40 l 1,26,-1
 180 -40 l 1,0,-1
EndSplineSet
Validated: 1
EndChar

StartChar: lslash
Encoding: 322 322 181
Width: 766
Flags: W
HStem: -40 21G<298 331.704> 1120 20G<654.136 711.934> 1530 20G<434.296 468>
VStem: 298 170<95 682 813 833 964 1415>
DStem2: 5 567 88 506 0.761409 0.648272<23.6523 297.644 609.896 883.888>
LayerCount: 2
Fore
SplineSet
298 -40 m 1,0,-1
 298 682 l 1,1,-1
 88 506 l 1,2,-1
 78 506 l 1,3,-1
 5 567 l 1,4,-1
 298 813 l 1,5,-1
 298 1415 l 1,6,-1
 458 1550 l 1,7,-1
 468 1550 l 1,8,-1
 468 964 l 1,9,-1
 678 1140 l 1,10,-1
 688 1140 l 1,11,-1
 761 1079 l 1,12,-1
 468 833 l 1,13,-1
 468 95 l 1,14,-1
 308 -40 l 1,15,-1
 298 -40 l 1,0,-1
EndSplineSet
Validated: 19457
EndChar

StartChar: multiply
Encoding: 215 215 182
Width: 1173
Flags: W
HStem: 648 213<480.5 693.5>
VStem: 480 213<647.5 860.5>
DStem2: 401 1047 210 1024 0.707107 -0.707107<0 263.044 412.95 677.408> 211 485 400 462 0.707107 0.707107<117.38 380.423 531.744 796.202>
LayerCount: 2
Fore
SplineSet
956 1032 m 1,0,-1
 963 1025 l 1,1,-1
 693 755 l 1,2,-1
 963 485 l 1,3,-1
 956 478 l 1,4,-1
 773 461 l 1,5,-1
 586 648 l 1,6,-1
 400 462 l 1,7,-1
 218 478 l 1,8,-1
 211 485 l 1,9,-1
 480 754 l 1,10,-1
 210 1024 l 1,11,-1
 217 1031 l 1,12,-1
 401 1047 l 1,13,-1
 587 861 l 1,14,-1
 774 1048 l 1,15,-1
 956 1032 l 1,0,-1
EndSplineSet
Validated: 1
EndChar

StartChar: divide
Encoding: 247 247 183
Width: 1174
Flags: W
HStem: 295 252<527.881 646.536> 679 151<249 926> 962 252<527.881 646.536>
VStem: 463 248<357.479 484.521 1024.48 1151.52>
CounterMasks: 1 e0
LayerCount: 2
Fore
SplineSet
130 679 m 1,0,-1
 130 689 l 1,1,-1
 249 830 l 1,2,-1
 1044 830 l 1,3,-1
 1044 820 l 1,4,-1
 926 679 l 1,5,-1
 130 679 l 1,0,-1
575 295 m 0,6,7
 562 295 562 295 546 301 c 0,8,9
 514 313 514 313 492 342 c 0,10,11
 463 380 463 380 463 419 c 0,12,13
 463 448 463 448 486 467 c 2,14,-1
 564 533 l 2,15,16
 581 547 581 547 599 547 c 0,17,18
 612 547 612 547 628 541 c 0,19,20
 661 528 661 528 682 500 c 0,21,22
 711 462 711 462 711 423 c 0,23,24
 711 394 711 394 688 375 c 2,25,-1
 610 309 l 2,26,27
 593 295 593 295 575 295 c 0,6,7
599 1214 m 0,28,29
 612 1214 612 1214 628 1208 c 0,30,31
 661 1195 661 1195 682 1167 c 0,32,33
 711 1129 711 1129 711 1090 c 0,34,35
 711 1061 711 1061 688 1042 c 2,36,-1
 610 976 l 2,37,38
 593 962 593 962 575 962 c 0,39,40
 562 962 562 962 546 968 c 0,41,42
 514 980 514 980 492 1009 c 0,43,44
 463 1047 463 1047 463 1086 c 0,45,46
 463 1115 463 1115 486 1134 c 2,47,-1
 564 1200 l 2,48,49
 581 1214 581 1214 599 1214 c 0,28,29
EndSplineSet
Validated: 1
EndChar

StartChar: germandbls
Encoding: 223 223 184
Width: 1170
Flags: W
HStem: -40 21G<180 213.704> -20 160<494.907 679.382> -13 172<527 624.532> 1370 161<520.982 706.591>
VStem: 180 170<95 1233.38> 800 180<1034.87 1276.8> 850 180<284.419 637.803>
DStem2: 707 930 751 876 0.766608 0.642116<-0.943517 129.644>
LayerCount: 2
Fore
SplineSet
180 -40 m 1,0,-1
 180 1105 l 2,1,2
 180 1159 180 1159 198 1196 c 0,3,4
 214 1229 214 1229 254 1263 c 2,5,-1
 530 1495 l 2,6,7
 573 1531 573 1531 607 1531 c 0,8,9
 649 1531 649 1531 678 1524 c 0,10,11
 782 1498 782 1498 863 1415 c 0,12,13
 980 1296 980 1296 980 1163 c 0,14,15
 980 1110 980 1110 962 1072 c 0,16,17
 946 1039 946 1039 906 1006 c 2,18,-1
 751 876 l 1,19,20
 852 852 852 852 918 783 c 0,21,22
 1030 666 1030 666 1030 475 c 2,23,-1
 1030 413 l 2,24,25
 1030 358 1030 358 1012 322 c 0,26,27
 997 290 997 290 956 256 c 2,28,-1
 670 16 l 2,29,30
 627 -20 627 -20 593 -20 c 0,31,32
 551 -20 551 -20 522 -13 c 0,33,34
 447 5 447 5 390 43 c 1,35,-1
 527 159 l 1,36,-1
 537 159 l 1,37,38
 579 140 579 140 626 140 c 0,39,40
 722 140 722 140 782 202 c 0,41,42
 850 274 850 274 850 400 c 2,43,-1
 850 474 l 2,44,45
 850 601 850 601 783 667 c 0,46,47
 714 734 714 734 604 734 c 2,48,-1
 473 734 l 1,49,-1
 707 930 l 2,50,51
 800 1008 800 1008 800 1133 c 0,52,53
 800 1237 800 1237 733 1303 c 0,54,55
 664 1370 664 1370 574 1370 c 0,56,57
 473 1370 473 1370 415 1304 c 0,58,59
 350 1230 350 1230 350 1110 c 2,60,-1
 350 95 l 1,61,-1
 190 -40 l 1,62,-1
 180 -40 l 1,0,-1
EndSplineSet
Validated: 1
EndChar

StartChar: Thorn
Encoding: 222 222 185
Width: 1232
Flags: W
HStem: -40 21G<180 213.899> 255 100<380 555.824> 1109 146<476.5 765.078> 1530 20G<346.101 380>
VStem: 180 200<119 259.656 355 1391> 941 211<680.508 970.914>
LayerCount: 2
Fore
SplineSet
180 -40 m 1,0,-1
 180 1391 l 1,1,-1
 370 1550 l 1,2,-1
 380 1550 l 1,3,-1
 380 355 l 1,4,5
 644 401 644 401 784 518 c 0,6,7
 941 649 941 649 941 825 c 0,8,9
 941 978 941 978 800 1049 c 0,10,11
 682 1109 682 1109 496 1109 c 0,12,13
 457 1109 457 1109 416 1106 c 1,14,-1
 590 1252 l 1,15,16
 628 1255 628 1255 663 1255 c 0,17,18
 876 1255 876 1255 1012 1152 c 0,19,20
 1152 1048 1152 1048 1152 873 c 0,21,22
 1152 632 1152 632 916 457 c 0,23,24
 688 288 688 288 380 255 c 1,25,-1
 380 119 l 1,26,-1
 190 -40 l 1,27,-1
 180 -40 l 1,0,-1
EndSplineSet
Validated: 1
EndChar

StartChar: circumflex
Encoding: 710 710 186
Width: 536
Flags: W
HStem: 1210 339
VStem: 30 476
LayerCount: 2
Fore
SplineSet
243 1549 m 1,0,-1
 253 1549 l 1,1,-1
 312 1499 l 1,2,3
 396 1337 396 1337 506 1298 c 1,4,-1
 401 1210 l 1,5,-1
 391 1210 l 1,6,7
 308 1266 308 1266 268 1369 c 1,8,9
 225 1265 225 1265 145 1210 c 1,10,-1
 135 1210 l 1,11,-1
 30 1298 l 1,12,13
 181 1344 181 1344 243 1549 c 1,0,-1
EndSplineSet
Validated: 1
EndChar

StartChar: caron
Encoding: 711 711 187
Width: 536
Flags: W
HStem: 1210 339
VStem: 30 476
LayerCount: 2
Fore
SplineSet
135 1549 m 1,0,-1
 145 1549 l 1,1,2
 228 1493 228 1493 268 1390 c 1,3,4
 311 1494 311 1494 391 1549 c 1,5,-1
 401 1549 l 1,6,-1
 506 1461 l 1,7,8
 355 1415 355 1415 293 1210 c 1,9,-1
 283 1210 l 1,10,-1
 224 1260 l 1,11,12
 140 1422 140 1422 30 1461 c 1,13,-1
 135 1549 l 1,0,-1
EndSplineSet
Validated: 1
EndChar

StartChar: uni02C9
Encoding: 713 713 188
Width: 635
Flags: W
HStem: 1316 115<118 517>
VStem: 30 575
LayerCount: 2
Fore
SplineSet
118 1431 m 1,0,-1
 605 1431 l 1,1,-1
 605 1421 l 1,2,-1
 517 1316 l 1,3,-1
 30 1316 l 1,4,-1
 30 1326 l 1,5,-1
 118 1431 l 1,0,-1
EndSplineSet
Validated: 1
EndChar

StartChar: breve
Encoding: 728 728 189
Width: 530
Flags: W
HStem: 1256 114<177.526 329.273>
VStem: 30 119<1406.07 1490> 381 119<1408.38 1490>
LayerCount: 2
Fore
SplineSet
30 1490 m 1,0,-1
 149 1490 l 1,1,2
 149 1439 149 1439 181 1405 c 0,3,4
 213 1370 213 1370 265 1370 c 0,5,6
 315 1370 315 1370 347 1406 c 0,7,8
 381 1444 381 1444 381 1490 c 1,9,-1
 500 1490 l 1,10,11
 500 1447 500 1447 455 1408 c 2,12,-1
 308 1282 l 2,13,14
 278 1256 278 1256 242 1256 c 0,15,16
 218 1256 218 1256 188 1267 c 0,17,18
 127 1290 127 1290 85 1344 c 0,19,20
 30 1416 30 1416 30 1490 c 1,0,-1
EndSplineSet
Validated: 1
EndChar

StartChar: dotaccent
Encoding: 729 729 190
Width: 308
Flags: W
HStem: 1264 252<94.8813 213.536>
VStem: 30 248<1326.48 1453.52>
LayerCount: 2
Fore
SplineSet
166 1516 m 0,0,1
 179 1516 179 1516 195 1510 c 0,2,3
 228 1497 228 1497 249 1469 c 0,4,5
 278 1431 278 1431 278 1392 c 0,6,7
 278 1363 278 1363 255 1344 c 2,8,-1
 177 1278 l 2,9,10
 160 1264 160 1264 142 1264 c 0,11,12
 129 1264 129 1264 113 1270 c 0,13,14
 81 1282 81 1282 59 1311 c 0,15,16
 30 1349 30 1349 30 1388 c 0,17,18
 30 1417 30 1417 53 1436 c 2,19,-1
 131 1502 l 2,20,21
 148 1516 148 1516 166 1516 c 0,0,1
EndSplineSet
Validated: 1
EndChar

StartChar: ring
Encoding: 730 730 191
Width: 408
Flags: W
HStem: 1198 84<136.685 262.134> 1463 87<144.374 270.983>
VStem: 30 88<1300.88 1440.97> 290 88<1305.58 1444.42>
LayerCount: 2
Fore
SplineSet
221 1550 m 0,0,1
 239 1550 239 1550 261 1542 c 0,2,3
 307 1524 307 1524 337 1485 c 0,4,5
 378 1432 378 1432 378 1377 c 0,6,7
 378 1336 378 1336 345 1310 c 2,8,-1
 236 1217 l 2,9,10
 214 1198 214 1198 187 1198 c 0,11,12
 169 1198 169 1198 147 1206 c 0,13,14
 102 1223 102 1223 71 1263 c 0,15,16
 30 1316 30 1316 30 1371 c 0,17,18
 30 1412 30 1412 63 1438 c 2,19,-1
 172 1531 l 2,20,21
 196 1550 196 1550 221 1550 c 0,0,1
205 1463 m 0,22,23
 165 1463 165 1463 140 1436 c 0,24,25
 118 1411 118 1411 118 1372 c 128,-1,26
 118 1333 118 1333 142 1308 c 0,27,28
 166 1282 166 1282 204 1282 c 0,29,30
 241 1282 241 1282 265 1309 c 0,31,32
 290 1337 290 1337 290 1375 c 0,33,34
 290 1411 290 1411 265 1438 c 0,35,36
 242 1463 242 1463 205 1463 c 0,22,23
EndSplineSet
Validated: 1
EndChar

StartChar: ogonek
Encoding: 731 731 192
Width: 334
Flags: W
HStem: -410 447
VStem: 30 152<-261.27 -108.237>
LayerCount: 2
Fore
SplineSet
130 -410 m 1,0,-1
 120 -410 l 1,1,2
 30 -334 30 -334 30 -225 c 0,3,4
 30 -91 30 -91 250 37 c 1,5,-1
 260 37 l 1,6,-1
 304 0 l 1,7,8
 182 -83 182 -83 182 -169 c 0,9,10
 182 -259 182 -259 279 -285 c 1,11,-1
 130 -410 l 1,0,-1
EndSplineSet
Validated: 1
EndChar

StartChar: tilde
Encoding: 732 732 193
Width: 586
Flags: W
HStem: 1270 54<391.969 443.637> 1438 58<140.178 197.584>
VStem: 30 107<1316.12 1412.46> 449 107<1353.53 1449.71>
DStem2: 521 1504 425 1281 0.766088 0.642735<-136.459 -33.364>
LayerCount: 2
Fore
SplineSet
527 1504 m 1,0,1
 556 1467 556 1467 556 1411 c 24,2,3
 556 1391 556 1391 543 1380 c 2,4,-1
 425 1281 l 2,5,6
 412 1270 412 1270 395 1270 c 0,7,8
 285 1270 285 1270 241 1345 c 0,9,10
 186 1438 186 1438 161.5 1438 c 128,-1,11
 137 1438 137 1438 137 1406 c 0,12,13
 137 1375 137 1375 166 1346 c 1,14,-1
 65 1262 l 1,15,-1
 59 1262 l 1,16,17
 30 1305 30 1305 30 1355 c 0,18,19
 30 1375 30 1375 43 1386 c 2,20,-1
 161 1485 l 2,21,22
 174 1496 174 1496 191 1496 c 0,23,24
 300 1496 300 1496 345 1421 c 0,25,26
 402 1324 402 1324 425.5 1324 c 128,-1,27
 449 1324 449 1324 449 1361 c 0,28,29
 449 1390 449 1390 420 1420 c 1,30,-1
 521 1504 l 1,31,-1
 527 1504 l 1,0,1
EndSplineSet
Validated: 1
EndChar

StartChar: hungarumlaut
Encoding: 733 733 194
Width: 621
Flags: W
HStem: 1211 339
VStem: 30 93<1268.91 1307.71> 285 93<1268.91 1307.71>
LayerCount: 2
Fore
SplineSet
452 1550 m 1,0,1
 462 1550 l 1,2,-1
 591 1442 l 1,3,4
 440 1396 440 1396 378 1211 c 1,5,-1
 368 1211 l 1,6,-1
 285 1281 l 1,7,8
 307 1455 307 1455 452 1550 c 1,0,1
197 1550 m 1,9,-1
 207 1550 l 1,10,-1
 336 1442 l 1,11,12
 185 1396 185 1396 123 1211 c 1,13,-1
 113 1211 l 1,14,-1
 30 1281 l 1,15,16
 52 1455 52 1455 197 1550 c 1,9,-1
EndSplineSet
Validated: 1
EndChar

StartChar: uni1E9E
Encoding: 7838 7838 195
Width: 1268
Flags: W
HStem: -40 21G<180 212.642> -20 194<582 732.062> 696 177<707.848 911.484> 1349 181<544.405 734.487>
VStem: 180 190<119 1213.08> 521 178<884.315 1010.22> 988 200<370.847 617.692>
DStem2: 799 1219 814 1109 0.765362 0.6436<-246.42 8.58934>
LayerCount: 2
Fore
SplineSet
180 -40 m 1,0,-1
 180 1085 l 2,1,2
 180 1143 180 1143 198 1176 c 0,3,4
 217 1211 217 1211 254 1242 c 2,5,-1
 554 1494 l 2,6,7
 597 1530 597 1530 631 1530 c 0,8,9
 673 1530 673 1530 702 1523 c 0,10,11
 819 1495 819 1495 892 1418 c 0,12,13
 958 1348 958 1348 985 1252 c 1,14,-1
 814 1109 l 2,15,16
 699 1013 699 1013 699 951 c 0,17,18
 699 873 699 873 813 873 c 0,19,20
 990 873 990 873 1092 753 c 0,21,22
 1188 640 1188 640 1188 500 c 0,23,24
 1188 446 1188 446 1170 409 c 0,25,26
 1155 377 1155 377 1114 343 c 2,27,-1
 726 16 l 2,28,29
 683 -20 683 -20 649 -20 c 0,30,31
 616 -20 616 -20 578 -13 c 0,32,33
 495 3 495 3 426 43 c 1,34,-1
 582 174 l 1,35,-1
 592 174 l 1,36,37
 635 160 635 160 683 160 c 0,38,39
 814 160 814 160 900 259 c 0,40,41
 988 360 988 360 988 492 c 0,42,43
 988 569 988 569 933 632 c 0,44,45
 876 696 876 696 768 696 c 0,46,47
 648 696 648 696 579 755 c 0,48,49
 521 804 521 804 521 890 c 0,50,51
 521 947 521 947 558 1000 c 0,52,53
 586 1040 586 1040 623 1071 c 2,54,-1
 799 1219 l 1,55,56
 780 1257 780 1257 763 1278 c 0,57,58
 704 1349 704 1349 598 1349 c 0,59,60
 496 1349 496 1349 439 1283 c 0,61,62
 370 1201 370 1201 370 1085 c 2,63,-1
 370 119 l 1,64,-1
 190 -40 l 1,65,-1
 180 -40 l 1,0,-1
EndSplineSet
Validated: 1
EndChar

StartChar: uni203D
Encoding: 8253 8253 196
Width: 1250
Flags: W
HStem: -20 252<563.881 682.536> 1350 180<573.771 775.745>
VStem: 130 200<843.129 1147.04> 499 248<42.4788 169.521> 528 181<915.39 1036.99> 920 200<894.172 1199.74>
LayerCount: 2
Fore
SplineSet
659 1530 m 0,0,1
 692 1530 692 1530 730 1523 c 0,2,3
 891 1493 891 1493 1004 1359 c 0,4,5
 1120 1221 1120 1221 1120 1021 c 0,6,7
 1120 966 1120 966 1102 931 c 0,8,9
 1085 898 1085 898 1046 865 c 2,10,-1
 878 724 l 2,11,12
 751 617 751 617 718 457 c 1,13,-1
 516 288 l 1,14,-1
 506 288 l 1,15,16
 506 413 506 413 558 511 c 1,17,-1
 528 1025 l 1,18,-1
 699 1168 l 1,19,-1
 709 1168 l 1,20,-1
 680 657 l 1,21,22
 800 749 800 749 837 791 c 0,23,24
 920 885 920 885 920 1021 c 0,25,26
 920 1160 920 1160 839 1251 c 0,27,28
 751 1350 751 1350 625 1350 c 0,29,30
 498 1350 498 1350 413 1251 c 0,31,32
 330 1156 330 1156 330 1021 c 0,33,34
 330 892 330 892 401 804 c 1,35,-1
 256 683 l 1,36,-1
 246 683 l 1,37,38
 130 821 130 821 130 1021 c 0,39,40
 130 1076 130 1076 148 1111 c 0,41,42
 167 1146 167 1146 204 1177 c 2,43,-1
 582 1494 l 2,44,45
 625 1530 625 1530 659 1530 c 0,0,1
611 -20 m 0,46,47
 598 -20 598 -20 582 -14 c 0,48,49
 550 -2 550 -2 528 27 c 0,50,51
 499 65 499 65 499 104 c 0,52,53
 499 133 499 133 522 152 c 2,54,-1
 600 218 l 2,55,56
 617 232 617 232 635 232 c 0,57,58
 648 232 648 232 664 226 c 0,59,60
 697 213 697 213 718 185 c 0,61,62
 747 147 747 147 747 108 c 0,63,64
 747 79 747 79 724 60 c 2,65,-1
 646 -6 l 2,66,67
 629 -20 629 -20 611 -20 c 0,46,47
EndSplineSet
Validated: 1
EndChar

StartChar: afii61352
Encoding: 8470 8470 197
Width: 1984
Flags: W
HStem: -40 21G<180 213.899 990 1023.9> -11 115<1366 1766> 137 122<1494.59 1626.36> 626 122<1505.64 1637.41> 1350 180<633.563 841.233> 1530 20G<346.101 380>
VStem: 180 200<119 1187.59 1273 1391> 990 200<119 1192.72> 1343 130<287.366 597.634> 1659 130<287.366 597.634>
LayerCount: 2
Fore
SplineSet
1366 104 m 1,0,-1
 1854 104 l 1,1,-1
 1854 94 l 1,2,-1
 1766 -11 l 1,3,-1
 1278 -11 l 1,4,-1
 1278 -1 l 1,5,-1
 1366 104 l 1,0,-1
1582 748 m 0,6,7
 1666 748 1666 748 1727.5 684 c 128,-1,8
 1789 620 1789 620 1789 518 c 2,9,-1
 1789 374 l 2,10,11
 1789 318 1789 318 1744 280 c 2,12,-1
 1601 160 l 2,13,14
 1574 137 1574 137 1550 137 c 0,15,16
 1466 137 1466 137 1404.5 201 c 128,-1,17
 1343 265 1343 265 1343 367 c 2,18,-1
 1343 511 l 2,19,20
 1343 567 1343 567 1388 605 c 2,21,-1
 1531 725 l 2,22,23
 1558 748 1558 748 1582 748 c 0,6,7
1566 626 m 128,-1,25
 1528 626 1528 626 1500.5 598.5 c 128,-1,26
 1473 571 1473 571 1473 517 c 2,27,-1
 1473 368 l 2,28,29
 1473 314 1473 314 1500.5 286.5 c 128,-1,30
 1528 259 1528 259 1566 259 c 128,-1,31
 1604 259 1604 259 1631.5 286.5 c 128,-1,32
 1659 314 1659 314 1659 368 c 2,33,-1
 1659 517 l 2,34,35
 1659 571 1659 571 1631.5 598.5 c 128,-1,24
 1604 626 1604 626 1566 626 c 128,-1,25
180 -40 m 1,36,-1
 180 1391 l 1,37,-1
 370 1550 l 1,38,-1
 380 1550 l 1,39,-1
 380 1273 l 1,40,-1
 642 1494 l 2,41,42
 685 1530 685 1530 719 1530 c 0,43,44
 752 1530 752 1530 790 1523 c 0,45,46
 957 1492 957 1492 1069 1359 c 0,47,48
 1190 1214 1190 1214 1190 1010 c 2,49,-1
 1190 119 l 1,50,-1
 1000 -40 l 1,51,-1
 990 -40 l 1,52,-1
 990 1010 l 2,53,54
 990 1154 990 1154 904 1251 c 0,55,56
 816 1350 816 1350 685 1350 c 0,57,58
 553 1350 553 1350 468 1251 c 0,59,60
 380 1150 380 1150 380 1010 c 2,61,-1
 380 119 l 1,62,-1
 190 -40 l 1,63,-1
 180 -40 l 1,36,-1
EndSplineSet
Validated: 1
EndChar

StartChar: uni2117
Encoding: 8471 8471 198
Width: 1361
Flags: W
HStem: 386 73<494.363 858.202> 1453 77<496.855 864.866>
VStem: 130 74<768.815 1151.31> 464 140<641 700.139 777 1243> 847 146<912.445 1169.6> 1156 75<757.376 1158.43>
LayerCount: 2
Fore
SplineSet
604 777 m 1,0,1
 672 800 672 800 742 851 c 24,2,3
 847 928 847 928 847 1050 c 0,4,5
 847 1135 847 1135 785 1186 c 0,6,7
 722 1238 722 1238 604 1243 c 1,8,-1
 604 777 l 1,0,1
464 532 m 1,9,-1
 464 1257 l 1,10,-1
 594 1366 l 1,11,-1
 604 1366 l 1,12,-1
 604 1291 l 1,13,-1
 683 1357 l 1,14,15
 808 1348 808 1348 900 1270 c 0,16,17
 993 1191 993 1191 993 1055 c 0,18,19
 993 892 993 892 804 777 c 0,20,21
 713 722 713 722 604 684 c 1,22,-1
 604 641 l 1,23,-1
 474 532 l 1,24,-1
 464 532 l 1,9,-1
681 1530 m 0,25,26
 923 1530 923 1530 1079 1357 c 0,27,28
 1231 1188 1231 1188 1231 953 c 0,29,30
 1231 701 1231 701 1070 549 c 0,31,32
 899 386 899 386 679 386 c 0,33,34
 456 386 456 386 291 549 c 0,35,36
 130 708 130 708 130 953 c 0,37,38
 130 1197 130 1197 288 1362 c 0,39,40
 449 1530 449 1530 681 1530 c 0,25,26
679 1453 m 0,41,42
 489 1453 489 1453 347 1312 c 0,43,44
 204 1170 204 1170 204 953 c 0,45,46
 204 760 204 760 344 605 c 0,47,48
 475 459 475 459 681 459 c 0,49,50
 872 459 872 459 1017 605 c 0,51,52
 1156 745 1156 745 1156 953 c 0,53,54
 1156 1174 1156 1174 1019 1309 c 0,55,56
 873 1453 873 1453 679 1453 c 0,41,42
EndSplineSet
Validated: 1
EndChar

StartChar: integral
Encoding: 8747 8747 199
Width: 1226
Flags: W
HStem: -430 160<167.557 352.515> 1370 160<873.485 1058.44>
VStem: 523 180<-125.017 1225.02>
LayerCount: 2
Fore
SplineSet
266 -430 m 0,0,1
 224 -430 224 -430 195 -423 c 0,2,3
 80 -397 80 -397 5 -319 c 1,4,-1
 142 -204 l 1,5,6
 210 -270 210 -270 299 -270 c 0,7,8
 395 -270 395 -270 458 -204 c 0,9,10
 523 -137 523 -137 523 -10 c 2,11,-1
 523 1097 l 2,12,13
 523 1152 523 1152 541 1188 c 0,14,15
 557 1220 557 1220 597 1254 c 2,16,-1
 883 1494 l 2,17,18
 926 1530 926 1530 960 1530 c 0,19,20
 1002 1530 1002 1530 1031 1523 c 0,21,22
 1146 1497 1146 1497 1221 1419 c 1,23,-1
 1084 1304 l 1,24,25
 1016 1370 1016 1370 927 1370 c 0,26,27
 831 1370 831 1370 768 1304 c 0,28,29
 703 1237 703 1237 703 1110 c 2,30,-1
 703 3 l 2,31,32
 703 -52 703 -52 685 -88 c 0,33,34
 669 -120 669 -120 629 -154 c 2,35,-1
 343 -394 l 2,36,37
 300 -430 300 -430 266 -430 c 0,0,1
EndSplineSet
Validated: 1
EndChar

StartChar: Tbar
Encoding: 358 358 200
Width: 1066
Flags: W
HStem: -40 21G<433 466.899> 588 100<283 433 633 783> 1380 130<106 433 633 960>
VStem: 433 200<119 588 688 1380>
LayerCount: 2
Fore
SplineSet
433 -40 m 1,0,-1
 433 588 l 1,1,-1
 207 588 l 1,2,-1
 207 598 l 1,3,-1
 283 688 l 1,4,-1
 433 688 l 1,5,-1
 433 1380 l 1,6,-1
 5 1380 l 1,7,-1
 5 1390 l 1,8,-1
 106 1510 l 1,9,-1
 1061 1510 l 1,10,-1
 1061 1500 l 1,11,-1
 960 1380 l 1,12,-1
 633 1380 l 1,13,-1
 633 688 l 1,14,-1
 859 688 l 1,15,-1
 859 678 l 1,16,-1
 783 588 l 1,17,-1
 633 588 l 1,18,-1
 633 119 l 1,19,-1
 443 -40 l 1,20,-1
 433 -40 l 1,0,-1
EndSplineSet
Validated: 1
EndChar

StartChar: dcroat
Encoding: 273 273 201
Width: 1120
Flags: W
HStem: -40 21G<770 803.704> -20 160<413.854 599.265> 960 160<490.485 676.915> 1237 100<524 770 940 1014> 1530 20G<906.296 940>
VStem: 140 180<233.895 815.017> 770 170<95 167 230.804 866.105 1043 1237 1337 1415>
LayerCount: 2
Fore
SplineSet
780 -40 m 1,0,-1
 770 -40 l 1,1,-1
 770 167 l 1,2,-1
 590 16 l 2,3,4
 547 -20 547 -20 513 -20 c 0,5,6
 471 -20 471 -20 442 -13 c 0,7,8
 328 13 328 13 252 92 c 0,9,10
 140 211 140 211 140 400 c 2,11,-1
 140 687 l 2,12,13
 140 741 140 741 158 778 c 0,14,15
 173 809 173 809 214 844 c 2,16,-1
 500 1084 l 2,17,18
 543 1120 543 1120 577 1120 c 0,19,20
 614 1120 614 1120 647 1112 c 0,21,22
 713 1096 713 1096 770 1043 c 1,23,-1
 770 1237 l 1,24,-1
 448 1237 l 1,25,-1
 448 1247 l 1,26,-1
 524 1337 l 1,27,-1
 770 1337 l 1,28,-1
 770 1415 l 1,29,-1
 930 1550 l 1,30,-1
 940 1550 l 1,31,-1
 940 1337 l 1,32,-1
 1090 1337 l 1,33,-1
 1090 1327 l 1,34,-1
 1014 1237 l 1,35,-1
 940 1237 l 1,36,-1
 940 95 l 1,37,-1
 780 -40 l 1,0,-1
546 140 m 0,38,39
 642 140 642 140 705 206 c 0,40,41
 770 273 770 273 770 400 c 2,42,-1
 770 700 l 2,43,44
 770 827 770 827 703 893 c 0,45,46
 634 960 634 960 544 960 c 0,47,48
 448 960 448 960 385 894 c 0,49,50
 320 827 320 827 320 700 c 2,51,-1
 320 400 l 2,52,53
 320 273 320 273 387 207 c 0,54,55
 456 140 456 140 546 140 c 0,38,39
EndSplineSet
Validated: 1
EndChar

StartChar: hbar
Encoding: 295 295 202
Width: 1120
Flags: W
HStem: -40 21G<180 213.704 800 833.776> 960 160<520.735 706.146> 1237 100<106 180 350 596> 1530 20G<316.296 350>
VStem: 180 170<95 869.196 933 1237 1337 1415> 800 180<103 866.105>
LayerCount: 2
Fore
SplineSet
180 -40 m 1,0,-1
 180 1237 l 1,1,-1
 30 1237 l 1,2,-1
 30 1247 l 1,3,-1
 106 1337 l 1,4,-1
 180 1337 l 1,5,-1
 180 1415 l 1,6,-1
 340 1550 l 1,7,-1
 350 1550 l 1,8,-1
 350 1337 l 1,9,-1
 672 1337 l 1,10,-1
 672 1327 l 1,11,-1
 596 1237 l 1,12,-1
 350 1237 l 1,13,-1
 350 933 l 1,14,-1
 530 1084 l 2,15,16
 573 1120 573 1120 607 1120 c 0,17,18
 649 1120 649 1120 678 1113 c 0,19,20
 792 1088 792 1088 868 1008 c 0,21,22
 980 889 980 889 980 700 c 2,23,-1
 980 103 l 1,24,-1
 810 -40 l 1,25,-1
 800 -40 l 1,26,-1
 800 700 l 2,27,28
 800 827 800 827 733 893 c 0,29,30
 664 960 664 960 574 960 c 0,31,32
 478 960 478 960 415 894 c 0,33,34
 350 827 350 827 350 700 c 2,35,-1
 350 95 l 1,36,-1
 190 -40 l 1,37,-1
 180 -40 l 1,0,-1
EndSplineSet
Validated: 1
EndChar

StartChar: tbar
Encoding: 359 359 203
Width: 712
Flags: W
HStem: -40 21G<271 304.704> 588 100<111 271 441 601> 990 110<89 271 441 623> 1530 20G<407.296 441>
VStem: 271 170<95 588 688 990 1100 1415>
LayerCount: 2
Fore
SplineSet
271 -40 m 1,0,-1
 271 588 l 1,1,-1
 35 588 l 1,2,-1
 35 598 l 1,3,-1
 111 688 l 1,4,-1
 271 688 l 1,5,-1
 271 990 l 1,6,-1
 5 990 l 1,7,-1
 5 1000 l 1,8,-1
 89 1100 l 1,9,-1
 271 1100 l 1,10,-1
 271 1415 l 1,11,-1
 431 1550 l 1,12,-1
 441 1550 l 1,13,-1
 441 1100 l 1,14,-1
 707 1100 l 1,15,-1
 707 1090 l 1,16,-1
 623 990 l 1,17,-1
 441 990 l 1,18,-1
 441 688 l 1,19,-1
 677 688 l 1,20,-1
 677 678 l 1,21,-1
 601 588 l 1,22,-1
 441 588 l 1,23,-1
 441 95 l 1,24,-1
 281 -40 l 1,25,-1
 271 -40 l 1,0,-1
EndSplineSet
Validated: 1
EndChar

StartChar: endash
Encoding: 8211 8211 204
Width: 1174
Flags: W
HStem: 679 151<249 926>
LayerCount: 2
Fore
SplineSet
130 679 m 1,0,-1
 130 689 l 1,1,-1
 249 830 l 1,2,-1
 1044 830 l 1,3,-1
 1044 820 l 1,4,-1
 926 679 l 1,5,-1
 130 679 l 1,0,-1
EndSplineSet
Validated: 1
EndChar

StartChar: afii00208
Encoding: 8213 8213 205
Width: 1474
Flags: W
HStem: 679 151<249 1226>
LayerCount: 2
Fore
SplineSet
130 679 m 1,0,-1
 130 689 l 1,1,-1
 249 830 l 1,2,-1
 1344 830 l 1,3,-1
 1344 820 l 1,4,-1
 1226 679 l 1,5,-1
 130 679 l 1,0,-1
EndSplineSet
Validated: 1
EndChar

StartChar: fraction
Encoding: 8260 8260 206
Width: 1366
Flags: W
HStem: -40 21G<79.1373 122.79> 1530 20G<1243.2 1287.03>
DStem2: 10 62 106 -40 0.642963 0.765897<0 1927.73>
LayerCount: 2
Fore
SplineSet
106 -40 m 5,0,-1
 96 -40 l 5,1,-1
 10 62 l 5,2,-1
 1260 1550 l 5,3,-1
 1270 1550 l 5,4,-1
 1356 1449 l 5,5,-1
 106 -40 l 5,0,-1
EndSplineSet
Validated: 1
EndChar

StartChar: minus
Encoding: 8722 8722 207
Width: 1174
Flags: W
HStem: 679 151<249 926>
LayerCount: 2
Fore
SplineSet
130 679 m 1,0,-1
 130 689 l 1,1,-1
 249 830 l 1,2,-1
 1044 830 l 1,3,-1
 1044 820 l 1,4,-1
 926 679 l 1,5,-1
 130 679 l 1,0,-1
EndSplineSet
Validated: 1
EndChar

StartChar: uni2215
Encoding: 8725 8725 208
Width: 1366
Flags: W
HStem: -40 21G<79.1373 122.79> 1530 20G<1243.2 1287.03>
DStem2: 10 62 106 -40 0.642963 0.765897<0 1927.73>
LayerCount: 2
Fore
SplineSet
106 -40 m 5,0,-1
 96 -40 l 5,1,-1
 10 62 l 5,2,-1
 1260 1550 l 5,3,-1
 1270 1550 l 5,4,-1
 1356 1449 l 5,5,-1
 106 -40 l 5,0,-1
EndSplineSet
Validated: 1
EndChar

StartChar: Omacron
Encoding: 332 332 209
Width: 1270
Flags: W
HStem: -20 180<483.48 686.308> 1350 180<583.692 786.52> 1710 115<469 868>
VStem: 130 205<321.216 1136.47> 935 205<373.525 1188.78>
LayerCount: 2
Fore
SplineSet
469 1825 m 1,0,-1
 956 1825 l 1,1,-1
 956 1815 l 1,2,-1
 868 1710 l 1,3,-1
 381 1710 l 1,4,-1
 381 1720 l 1,5,-1
 469 1825 l 1,0,-1
635 160 m 0,6,7
 762 160 762 160 847 259 c 0,8,9
 935 360 935 360 935 500 c 2,10,-1
 935 1010 l 2,11,12
 935 1154 935 1154 849 1251 c 0,13,14
 761 1350 761 1350 635 1350 c 0,15,16
 508 1350 508 1350 423 1251 c 0,17,18
 335 1150 335 1150 335 1010 c 2,19,-1
 335 500 l 2,20,21
 335 356 335 356 421 259 c 0,22,23
 509 160 509 160 635 160 c 0,6,7
601 -20 m 0,24,25
 568 -20 568 -20 530 -13 c 0,26,27
 363 18 363 18 251 151 c 0,28,29
 130 295 130 295 130 500 c 2,30,-1
 130 1010 l 2,31,32
 130 1064 130 1064 148 1101 c 0,33,34
 163 1132 163 1132 204 1167 c 2,35,-1
 592 1494 l 2,36,37
 635 1530 635 1530 669 1530 c 0,38,39
 702 1530 702 1530 740 1523 c 0,40,41
 907 1492 907 1492 1019 1359 c 0,42,43
 1140 1215 1140 1215 1140 1010 c 2,44,-1
 1140 500 l 2,45,46
 1140 446 1140 446 1122 409 c 0,47,48
 1107 378 1107 378 1066 343 c 2,49,-1
 678 16 l 2,50,51
 635 -20 635 -20 601 -20 c 0,24,25
EndSplineSet
Validated: 19457
EndChar

StartChar: Dcroat
Encoding: 272 272 210
Width: 1293
Flags: W
HStem: -40 21G<180 379> 588 100<106 180 380 606> 1384 146<572.915 631.458> 1530 20G<346.101 380>
VStem: 180 200<100 588 688 1391> 1006 207<623.732 1053.95>
LayerCount: 2
Fore
SplineSet
380 100 m 1,0,1
 616 188 616 188 777 326 c 0,2,3
 1006 522 1006 522 1006 834 c 0,4,5
 1006 1077 1006 1077 826 1233 c 0,6,7
 677 1362 677 1362 416 1384 c 1,8,-1
 590 1530 l 1,9,10
 859 1507 859 1507 1034 1332 c 0,11,12
 1213 1153 1213 1153 1213 888 c 0,13,14
 1213 475 1213 475 850 220 c 0,15,16
 568 22 568 22 190 -40 c 1,17,-1
 180 -40 l 1,18,-1
 180 588 l 1,19,-1
 30 588 l 1,20,-1
 30 598 l 1,21,-1
 106 688 l 1,22,-1
 180 688 l 1,23,-1
 180 1391 l 1,24,-1
 370 1550 l 1,25,-1
 380 1550 l 1,26,-1
 380 688 l 1,27,-1
 682 688 l 1,28,-1
 682 678 l 1,29,-1
 606 588 l 1,30,-1
 380 588 l 1,31,-1
 380 100 l 1,0,1
EndSplineSet
Validated: 1
EndChar

StartChar: Agrave
Encoding: 192 192 211
Width: 1365
Flags: W
HStem: -40 21G<135 270 1053.5 1155.84> 520 130<106 195 395 985> 1350 180<639.112 840.987>
VStem: 195 200<110 520 650 1145.75> 721 93<1677.91 1716.71> 985 200<131.44 520 650 1199.2>
LayerCount: 2
Fore
SplineSet
647 1959 m 1,0,1
 792 1864 792 1864 814 1690 c 1,2,-1
 731 1620 l 1,3,-1
 721 1620 l 1,4,5
 659 1805 659 1805 508 1851 c 1,6,-1
 637 1959 l 1,7,-1
 647 1959 l 1,0,1
395 650 m 1,8,-1
 985 650 l 1,9,-1
 985 1020 l 2,10,11
 985 1160 985 1160 904 1251 c 0,12,13
 816 1350 816 1350 690 1350 c 0,14,15
 565 1350 565 1350 478 1251 c 0,16,17
 395 1156 395 1156 395 1020 c 2,18,-1
 395 650 l 1,8,-1
135 -40 m 1,19,20
 195 106 195 106 195 268 c 2,21,-1
 195 520 l 1,22,-1
 5 520 l 1,23,-1
 5 530 l 1,24,-1
 106 650 l 1,25,-1
 195 650 l 1,26,-1
 195 1020 l 2,27,28
 195 1079 195 1079 213 1111 c 0,29,30
 236 1149 236 1149 269 1177 c 2,31,-1
 647 1494 l 2,32,33
 690 1530 690 1530 724 1530 c 0,34,35
 757 1530 757 1530 795 1523 c 0,36,37
 958 1493 958 1493 1069 1359 c 0,38,39
 1185 1220 1185 1220 1185 1020 c 2,40,-1
 1185 240 l 2,41,42
 1185 132 1185 132 1281 105 c 1,43,-1
 1132 -20 l 1,44,-1
 1122 -20 l 1,45,46
 985 56 985 56 985 220 c 2,47,-1
 985 520 l 1,48,-1
 395 520 l 1,49,-1
 395 268 l 2,50,51
 395 56 395 56 145 -40 c 1,52,-1
 135 -40 l 1,19,20
EndSplineSet
Validated: 1
EndChar

StartChar: Aacute
Encoding: 193 193 212
Width: 1365
Flags: W
HStem: -40 21G<135 270 1053.5 1155.84> 520 130<106 195 395 985> 1350 180<639.112 840.987>
VStem: 195 200<110 520 650 1145.75> 643 93<1677.91 1716.71> 985 200<131.44 520 650 1199.2>
LayerCount: 2
Fore
SplineSet
810 1959 m 1,0,1
 820 1959 l 1,2,-1
 949 1851 l 1,3,4
 798 1805 798 1805 736 1620 c 1,5,-1
 726 1620 l 1,6,-1
 643 1690 l 1,7,8
 665 1864 665 1864 810 1959 c 1,0,1
395 650 m 1,9,-1
 985 650 l 1,10,-1
 985 1020 l 2,11,12
 985 1160 985 1160 904 1251 c 0,13,14
 816 1350 816 1350 690 1350 c 0,15,16
 565 1350 565 1350 478 1251 c 0,17,18
 395 1156 395 1156 395 1020 c 2,19,-1
 395 650 l 1,9,-1
135 -40 m 1,20,21
 195 106 195 106 195 268 c 2,22,-1
 195 520 l 1,23,-1
 5 520 l 1,24,-1
 5 530 l 1,25,-1
 106 650 l 1,26,-1
 195 650 l 1,27,-1
 195 1020 l 2,28,29
 195 1079 195 1079 213 1111 c 0,30,31
 236 1149 236 1149 269 1177 c 2,32,-1
 647 1494 l 2,33,34
 690 1530 690 1530 724 1530 c 0,35,36
 757 1530 757 1530 795 1523 c 0,37,38
 958 1493 958 1493 1069 1359 c 0,39,40
 1185 1220 1185 1220 1185 1020 c 2,41,-1
 1185 240 l 2,42,43
 1185 132 1185 132 1281 105 c 1,44,-1
 1132 -20 l 1,45,-1
 1122 -20 l 1,46,47
 985 56 985 56 985 220 c 2,48,-1
 985 520 l 1,49,-1
 395 520 l 1,50,-1
 395 268 l 2,51,52
 395 56 395 56 145 -40 c 1,53,-1
 135 -40 l 1,20,21
EndSplineSet
Validated: 1
EndChar

StartChar: Acircumflex
Encoding: 194 194 213
Width: 1365
Flags: W
HStem: -40 21G<135 270 1053.5 1155.84> 520 130<106 195 395 985> 1350 180<639.112 840.987>
VStem: 195 200<110 520 650 1145.75> 985 200<131.44 520 650 1199.2>
LayerCount: 2
Fore
SplineSet
698 1959 m 1,0,-1
 708 1959 l 1,1,-1
 767 1909 l 1,2,3
 851 1747 851 1747 961 1708 c 1,4,-1
 856 1620 l 1,5,-1
 846 1620 l 1,6,7
 763 1676 763 1676 723 1779 c 1,8,9
 680 1675 680 1675 600 1620 c 1,10,-1
 590 1620 l 1,11,-1
 485 1708 l 1,12,13
 636 1754 636 1754 698 1959 c 1,0,-1
395 650 m 1,14,-1
 985 650 l 1,15,-1
 985 1020 l 2,16,17
 985 1160 985 1160 904 1251 c 0,18,19
 816 1350 816 1350 690 1350 c 0,20,21
 565 1350 565 1350 478 1251 c 0,22,23
 395 1156 395 1156 395 1020 c 2,24,-1
 395 650 l 1,14,-1
135 -40 m 1,25,26
 195 106 195 106 195 268 c 2,27,-1
 195 520 l 1,28,-1
 5 520 l 1,29,-1
 5 530 l 1,30,-1
 106 650 l 1,31,-1
 195 650 l 1,32,-1
 195 1020 l 2,33,34
 195 1079 195 1079 213 1111 c 0,35,36
 236 1149 236 1149 269 1177 c 2,37,-1
 647 1494 l 2,38,39
 690 1530 690 1530 724 1530 c 0,40,41
 757 1530 757 1530 795 1523 c 0,42,43
 958 1493 958 1493 1069 1359 c 0,44,45
 1185 1220 1185 1220 1185 1020 c 2,46,-1
 1185 240 l 2,47,48
 1185 132 1185 132 1281 105 c 1,49,-1
 1132 -20 l 1,50,-1
 1122 -20 l 1,51,52
 985 56 985 56 985 220 c 2,53,-1
 985 520 l 1,54,-1
 395 520 l 1,55,-1
 395 268 l 2,56,57
 395 56 395 56 145 -40 c 1,58,-1
 135 -40 l 1,25,26
EndSplineSet
Validated: 1
EndChar

StartChar: Atilde
Encoding: 195 195 214
Width: 1365
Flags: W
HStem: -40 21G<135 270 1053.5 1155.84> 520 130<106 195 395 985> 1350 180<639.112 840.987> 1660 54<823.969 875.637> 1828 58<572.178 629.584>
VStem: 195 200<110 520 650 1145.75> 462 107<1706.12 1802.46> 881 107<1743.53 1839.71> 985 200<131.44 520 650 1199.2>
DStem2: 953 1894 857 1671 0.766088 0.642735<-136.459 -33.364>
LayerCount: 2
Fore
SplineSet
959 1894 m 1,0,1
 988 1857 988 1857 988 1801 c 24,2,3
 988 1781 988 1781 975 1770 c 2,4,-1
 857 1671 l 2,5,6
 844 1660 844 1660 827 1660 c 0,7,8
 717 1660 717 1660 673 1735 c 0,9,10
 618 1828 618 1828 593.5 1828 c 128,-1,11
 569 1828 569 1828 569 1796 c 0,12,13
 569 1765 569 1765 598 1736 c 1,14,-1
 497 1652 l 1,15,-1
 491 1652 l 1,16,17
 462 1695 462 1695 462 1745 c 0,18,19
 462 1765 462 1765 475 1776 c 2,20,-1
 593 1875 l 2,21,22
 606 1886 606 1886 623 1886 c 0,23,24
 732 1886 732 1886 777 1811 c 0,25,26
 834 1714 834 1714 857.5 1714 c 128,-1,27
 881 1714 881 1714 881 1751 c 0,28,29
 881 1780 881 1780 852 1810 c 1,30,-1
 953 1894 l 1,31,-1
 959 1894 l 1,0,1
395 650 m 1,32,-1
 985 650 l 1,33,-1
 985 1020 l 2,34,35
 985 1160 985 1160 904 1251 c 0,36,37
 816 1350 816 1350 690 1350 c 0,38,39
 565 1350 565 1350 478 1251 c 0,40,41
 395 1156 395 1156 395 1020 c 2,42,-1
 395 650 l 1,32,-1
135 -40 m 1,43,44
 195 106 195 106 195 268 c 2,45,-1
 195 520 l 1,46,-1
 5 520 l 1,47,-1
 5 530 l 1,48,-1
 106 650 l 1,49,-1
 195 650 l 1,50,-1
 195 1020 l 2,51,52
 195 1079 195 1079 213 1111 c 0,53,54
 236 1149 236 1149 269 1177 c 2,55,-1
 647 1494 l 2,56,57
 690 1530 690 1530 724 1530 c 0,58,59
 757 1530 757 1530 795 1523 c 0,60,61
 958 1493 958 1493 1069 1359 c 0,62,63
 1185 1220 1185 1220 1185 1020 c 2,64,-1
 1185 240 l 2,65,66
 1185 132 1185 132 1281 105 c 1,67,-1
 1132 -20 l 1,68,-1
 1122 -20 l 1,69,70
 985 56 985 56 985 220 c 2,71,-1
 985 520 l 1,72,-1
 395 520 l 1,73,-1
 395 268 l 2,74,75
 395 56 395 56 145 -40 c 1,76,-1
 135 -40 l 1,43,44
EndSplineSet
Validated: 1
EndChar

